<ttFont>
    <TTGlyph name=".notdef" xMin="0" yMin="0" xMax="500" yMax="700">
      <contour>
        <pt x="0" y="700" on="1"/>
        <pt x="500" y="700" on="1"/>
        <pt x="500" y="0" on="1"/>
        <pt x="0" y="0" on="1"/>
      </contour>
      <contour>
        <pt x="50" y="650" on="1"/>
        <pt x="50" y="50" on="1"/>
        <pt x="450" y="50" on="1"/>
        <pt x="450" y="650" on="1"/>
      </contour>
      <contour>
        <pt x="229" y="278" on="1"/>
        <pt x="229" y="307" on="0"/>
        <pt x="256" y="345" on="0"/>
        <pt x="283" y="367" on="1"/>
        <pt x="311" y="390" on="0"/>
        <pt x="339" y="431" on="0"/>
        <pt x="339" y="465" on="1"/>
        <pt x="339" y="496" on="0"/>
        <pt x="301" y="552" on="0"/>
        <pt x="250" y="552" on="1"/>
        <pt x="192" y="552" on="0"/>
        <pt x="152" y="485" on="0"/>
        <pt x="152" y="452" on="1"/>
        <pt x="152" y="424" on="1"/>
        <pt x="103" y="424" on="1"/>
        <pt x="99" y="440" on="0"/>
        <pt x="99" y="455" on="1"/>
        <pt x="99" y="478" on="0"/>
        <pt x="120" y="544" on="0"/>
        <pt x="187" y="602" on="0"/>
        <pt x="250" y="602" on="1"/>
        <pt x="313" y="602" on="0"/>
        <pt x="376" y="546" on="0"/>
        <pt x="393" y="486" on="0"/>
        <pt x="393" y="467" on="1"/>
        <pt x="393" y="422" on="0"/>
        <pt x="356" y="364" on="0"/>
        <pt x="326" y="338" on="1"/>
        <pt x="304" y="320" on="0"/>
        <pt x="282" y="290" on="0"/>
        <pt x="282" y="268" on="1"/>
        <pt x="282" y="215" on="1"/>
        <pt x="229" y="215" on="1"/>
      </contour>
      <contour>
        <pt x="225" y="169" on="1"/>
        <pt x="285" y="169" on="1"/>
        <pt x="285" y="99" on="1"/>
        <pt x="225" y="99" on="1"/>
      </contour>
    </TTGlyph>
    <TTGlyph name="A" xMin="8" yMin="0" xMax="684" yMax="688">
      <contour>
        <pt x="466" y="130" on="1"/>
        <pt x="221" y="130" on="1"/>
        <pt x="182" y="0" on="1"/>
        <pt x="8" y="0" on="1"/>
        <pt x="228" y="688" on="1"/>
        <pt x="464" y="688" on="1"/>
        <pt x="684" y="0" on="1"/>
        <pt x="507" y="0" on="1"/>
      </contour>
      <contour>
        <pt x="340" y="534" on="1"/>
        <pt x="261" y="271" on="1"/>
        <pt x="425" y="271" on="1"/>
        <pt x="345" y="534" on="1"/>
      </contour>
    </TTGlyph>
    <TTGlyph name="A.ss01" xMin="67" yMin="0" xMax="619" yMax="696">
      <contour>
        <pt x="445" y="185" on="1"/>
        <pt x="241" y="185" on="1"/>
        <pt x="241" y="0" on="1"/>
        <pt x="67" y="0" on="1"/>
        <pt x="67" y="377" on="1"/>
        <pt x="67" y="515" on="0"/>
        <pt x="100" y="641" on="0"/>
        <pt x="214" y="696" on="0"/>
        <pt x="343" y="696" on="1"/>
        <pt x="472" y="696" on="0"/>
        <pt x="586" y="641" on="0"/>
        <pt x="619" y="515" on="0"/>
        <pt x="619" y="377" on="1"/>
        <pt x="619" y="0" on="1"/>
        <pt x="445" y="0" on="1"/>
      </contour>
      <contour>
        <pt x="445" y="485" on="0"/>
        <pt x="435" y="539" on="0"/>
        <pt x="395" y="557" on="0"/>
        <pt x="343" y="557" on="1"/>
        <pt x="291" y="557" on="0"/>
        <pt x="251" y="539" on="0"/>
        <pt x="241" y="485" on="0"/>
        <pt x="241" y="414" on="1"/>
        <pt x="241" y="327" on="1"/>
        <pt x="445" y="327" on="1"/>
        <pt x="445" y="414" on="1"/>
      </contour>
    </TTGlyph>
    <TTGlyph name="AE" xMin="-16" yMin="0" xMax="925" yMax="688">
      <contour>
        <pt x="461" y="131" on="1"/>
        <pt x="217" y="131" on="1"/>
        <pt x="156" y="0" on="1"/>
        <pt x="-16" y="0" on="1"/>
        <pt x="308" y="688" on="1"/>
        <pt x="925" y="688" on="1"/>
        <pt x="925" y="547" on="1"/>
        <pt x="564" y="547" on="1"/>
        <pt x="586" y="417" on="1"/>
        <pt x="877" y="417" on="1"/>
        <pt x="877" y="277" on="1"/>
        <pt x="607" y="277" on="1"/>
        <pt x="629" y="141" on="1"/>
        <pt x="925" y="141" on="1"/>
        <pt x="925" y="0" on="1"/>
        <pt x="482" y="0" on="1"/>
      </contour>
      <contour>
        <pt x="396" y="538" on="1"/>
        <pt x="276" y="271" on="1"/>
        <pt x="442" y="271" on="1"/>
        <pt x="402" y="538" on="1"/>
      </contour>
    </TTGlyph>
    <TTGlyph name="AEacute" xMin="-16" yMin="0" xMax="925" yMax="888">
      <component glyphName="AE" x="0" y="0" flags="0x0"/>
      <component glyphName="acutecomb.case" x="693" y="0" flags="0x0"/>
    </TTGlyph>
    <TTGlyph name="Aacute" xMin="8" yMin="0" xMax="684" yMax="896">
      <component glyphName="A" x="0" y="0" flags="0x0"/>
      <component glyphName="acute" x="234" y="153" flags="0x4"/>
    </TTGlyph>
    <TTGlyph name="Aacute.ss01" xMin="67" yMin="0" xMax="619" yMax="896">
      <component glyphName="A.ss01" x="0" y="0" flags="0x0"/>
      <component glyphName="acute" x="264" y="153" flags="0x4"/>
    </TTGlyph>
    <TTGlyph name="Abreve" xMin="8" yMin="0" xMax="684" yMax="888">
      <component glyphName="A" x="0" y="0" flags="0x0"/>
      <component glyphName="uni0306.case" x="519" y="0" flags="0x0"/>
    </TTGlyph>
    <TTGlyph name="Abreve.ss01" xMin="67" yMin="0" xMax="619" yMax="888">
      <component glyphName="A.ss01" x="0" y="0" flags="0x0"/>
      <component glyphName="uni0306.case" x="516" y="0" flags="0x0"/>
    </TTGlyph>
    <TTGlyph name="Acircumflex" xMin="8" yMin="0" xMax="684" yMax="896">
      <component glyphName="A" x="0" y="0" flags="0x0"/>
      <component glyphName="circumflex" x="155" y="153" flags="0x4"/>
    </TTGlyph>
    <TTGlyph name="Acircumflex.ss01" xMin="67" yMin="0" xMax="619" yMax="896">
      <component glyphName="A.ss01" x="0" y="0" flags="0x0"/>
      <component glyphName="circumflex" x="156" y="153" flags="0x4"/>
    </TTGlyph>
    <TTGlyph name="Adieresis" xMin="8" yMin="0" xMax="684" yMax="888">
      <component glyphName="A" x="0" y="0" flags="0x0"/>
      <component glyphName="dieresis" x="156" y="158" flags="0x4"/>
    </TTGlyph>
    <TTGlyph name="Adieresis.ss01" xMin="67" yMin="0" xMax="619" yMax="888">
      <component glyphName="A.ss01" x="0" y="0" flags="0x0"/>
      <component glyphName="dieresis" x="161" y="158" flags="0x4"/>
    </TTGlyph>
    <TTGlyph name="Agrave" xMin="8" yMin="0" xMax="684" yMax="896">
      <component glyphName="A" x="0" y="0" flags="0x0"/>
      <component glyphName="grave" x="154" y="153" flags="0x4"/>
    </TTGlyph>
    <TTGlyph name="Agrave.ss01" xMin="67" yMin="0" xMax="619" yMax="895">
      <component glyphName="A.ss01" x="0" y="0" flags="0x0"/>
      <component glyphName="grave" x="144" y="152" flags="0x4"/>
    </TTGlyph>
    <TTGlyph name="Amacron" xMin="8" yMin="0" xMax="684" yMax="888">
      <component glyphName="A" x="0" y="0" flags="0x0"/>
      <component glyphName="uni0304.case" x="534" y="0" flags="0x0"/>
    </TTGlyph>
    <TTGlyph name="Amacron.ss01" xMin="67" yMin="0" xMax="619" yMax="888">
      <component glyphName="A.ss01" x="0" y="0" flags="0x0"/>
      <component glyphName="uni0304.case" x="531" y="0" flags="0x0"/>
    </TTGlyph>
    <TTGlyph name="Aogonek" xMin="8" yMin="-196" xMax="679" yMax="688">
      <contour>
        <pt x="575" y="-94" on="0"/>
        <pt x="595" y="-111" on="0"/>
        <pt x="622" y="-111" on="1"/>
        <pt x="632" y="-111" on="0"/>
        <pt x="639" y="-110" on="1"/>
        <pt x="639" y="-193" on="1"/>
        <pt x="613" y="-194" on="1"/>
        <pt x="583" y="-196" on="0"/>
        <pt x="571" y="-196" on="1"/>
        <pt x="444" y="-196" on="0"/>
        <pt x="444" y="-111" on="1"/>
        <pt x="444" y="-83" on="0"/>
        <pt x="476" y="-26" on="0"/>
        <pt x="503" y="1" on="1"/>
        <pt x="462" y="131" on="1"/>
        <pt x="220" y="131" on="1"/>
        <pt x="180" y="0" on="1"/>
        <pt x="8" y="0" on="1"/>
        <pt x="224" y="688" on="1"/>
        <pt x="462" y="688" on="1"/>
        <pt x="679" y="0" on="1"/>
        <pt x="632" y="0" on="1"/>
        <pt x="610" y="-15" on="0"/>
        <pt x="575" y="-58" on="0"/>
        <pt x="575" y="-77" on="1"/>
      </contour>
      <contour>
        <pt x="425" y="266" on="1"/>
        <pt x="344" y="533" on="1"/>
        <pt x="337" y="533" on="1"/>
        <pt x="256" y="266" on="1"/>
      </contour>
    </TTGlyph>
    <TTGlyph name="Aogonek.ss01" xMin="67" yMin="-196" xMax="619" yMax="696">
      <contour>
        <pt x="552" y="-15" on="0"/>
        <pt x="517" y="-58" on="0"/>
        <pt x="517" y="-77" on="1"/>
        <pt x="517" y="-94" on="0"/>
        <pt x="537" y="-111" on="0"/>
        <pt x="564" y="-111" on="1"/>
        <pt x="573" y="-111" on="0"/>
        <pt x="580" y="-110" on="1"/>
        <pt x="580" y="-193" on="1"/>
        <pt x="523" y="-196" on="0"/>
        <pt x="512" y="-196" on="1"/>
        <pt x="386" y="-196" on="0"/>
        <pt x="386" y="-111" on="1"/>
        <pt x="386" y="-84" on="0"/>
        <pt x="418" y="-25" on="0"/>
        <pt x="445" y="1" on="1"/>
        <pt x="445" y="185" on="1"/>
        <pt x="241" y="185" on="1"/>
        <pt x="241" y="0" on="1"/>
        <pt x="67" y="0" on="1"/>
        <pt x="67" y="377" on="1"/>
        <pt x="67" y="515" on="0"/>
        <pt x="100" y="641" on="0"/>
        <pt x="214" y="696" on="0"/>
        <pt x="343" y="696" on="1"/>
        <pt x="472" y="696" on="0"/>
        <pt x="586" y="641" on="0"/>
        <pt x="619" y="515" on="0"/>
        <pt x="619" y="377" on="1"/>
        <pt x="619" y="0" on="1"/>
        <pt x="573" y="0" on="1"/>
      </contour>
      <contour>
        <pt x="445" y="327" on="1"/>
        <pt x="445" y="414" on="1"/>
        <pt x="445" y="485" on="0"/>
        <pt x="435" y="539" on="0"/>
        <pt x="395" y="557" on="0"/>
        <pt x="343" y="557" on="1"/>
        <pt x="291" y="557" on="0"/>
        <pt x="251" y="539" on="0"/>
        <pt x="241" y="485" on="0"/>
        <pt x="241" y="414" on="1"/>
        <pt x="241" y="327" on="1"/>
      </contour>
    </TTGlyph>
    <TTGlyph name="Aring" xMin="8" yMin="0" xMax="684" yMax="915">
      <contour>
        <pt x="684" y="0" on="1"/>
        <pt x="507" y="0" on="1"/>
        <pt x="466" y="130" on="1"/>
        <pt x="221" y="130" on="1"/>
        <pt x="182" y="0" on="1"/>
        <pt x="8" y="0" on="1"/>
        <pt x="226" y="686" on="1"/>
        <pt x="206" y="700" on="0"/>
        <pt x="195" y="745" on="0"/>
        <pt x="195" y="789" on="1"/>
        <pt x="195" y="840" on="0"/>
        <pt x="213" y="890" on="0"/>
        <pt x="276" y="915" on="0"/>
        <pt x="345" y="915" on="1"/>
        <pt x="415" y="915" on="0"/>
        <pt x="479" y="890" on="0"/>
        <pt x="497" y="840" on="0"/>
        <pt x="497" y="789" on="1"/>
        <pt x="497" y="747" on="0"/>
        <pt x="485" y="701" on="0"/>
        <pt x="466" y="687" on="1"/>
      </contour>
      <contour>
        <pt x="315" y="843" on="0"/>
        <pt x="290" y="834" on="0"/>
        <pt x="284" y="814" on="0"/>
        <pt x="284" y="789" on="1"/>
        <pt x="284" y="764" on="0"/>
        <pt x="290" y="744" on="0"/>
        <pt x="315" y="735" on="0"/>
        <pt x="345" y="735" on="1"/>
        <pt x="376" y="735" on="0"/>
        <pt x="402" y="744" on="0"/>
        <pt x="408" y="764" on="0"/>
        <pt x="408" y="789" on="1"/>
        <pt x="408" y="814" on="0"/>
        <pt x="402" y="834" on="0"/>
        <pt x="376" y="843" on="0"/>
        <pt x="345" y="843" on="1"/>
      </contour>
      <contour>
        <pt x="425" y="271" on="1"/>
        <pt x="345" y="534" on="1"/>
        <pt x="340" y="534" on="1"/>
        <pt x="261" y="271" on="1"/>
      </contour>
    </TTGlyph>
    <TTGlyph name="Aring.ss01" xMin="67" yMin="0" xMax="619" yMax="969">
      <component glyphName="A.ss01" x="0" y="0" flags="0x0"/>
      <component glyphName="ring" x="181" y="138" flags="0x4"/>
    </TTGlyph>
    <TTGlyph name="Aringacute" xMin="8" yMin="0" xMax="684" yMax="1115">
      <component glyphName="Aring" x="0" y="0" flags="0x0"/>
      <component glyphName="acutecomb.case" x="548" y="227" flags="0x4"/>
    </TTGlyph>
    <TTGlyph name="Aringacute.ss01" xMin="67" yMin="0" xMax="619" yMax="1116">
      <component glyphName="A.ss01" x="0" y="0" flags="0x0"/>
      <component glyphName="uni030A.case" x="509" y="0" flags="0x0"/>
      <component glyphName="acutecomb.case" x="549" y="228" flags="0x4"/>
    </TTGlyph>
    <TTGlyph name="Atilde" xMin="8" yMin="0" xMax="684" yMax="905">
      <component glyphName="A" x="0" y="0" flags="0x0"/>
      <component glyphName="tilde" x="129" y="162" flags="0x4"/>
    </TTGlyph>
    <TTGlyph name="Atilde.ss01" xMin="67" yMin="0" xMax="619" yMax="904">
      <component glyphName="A.ss01" x="0" y="0" flags="0x0"/>
      <component glyphName="tilde" x="132" y="161" flags="0x4"/>
    </TTGlyph>
    <TTGlyph name="B" xMin="73" yMin="0" xMax="626" yMax="688">
      <contour>
        <pt x="73" y="688" on="1"/>
        <pt x="419" y="688" on="1"/>
        <pt x="520" y="688" on="0"/>
        <pt x="620" y="602" on="0"/>
        <pt x="620" y="515" on="1"/>
        <pt x="620" y="442" on="0"/>
        <pt x="563" y="367" on="0"/>
        <pt x="500" y="353" on="1"/>
        <pt x="500" y="349" on="1"/>
        <pt x="568" y="334" on="0"/>
        <pt x="626" y="262" on="0"/>
        <pt x="626" y="183" on="1"/>
        <pt x="626" y="92" on="0"/>
        <pt x="529" y="0" on="0"/>
        <pt x="418" y="0" on="1"/>
        <pt x="73" y="0" on="1"/>
      </contour>
      <contour>
        <pt x="393" y="414" on="0"/>
        <pt x="429" y="425" on="0"/>
        <pt x="443" y="453" on="0"/>
        <pt x="443" y="481" on="1"/>
        <pt x="443" y="510" on="0"/>
        <pt x="430" y="538" on="0"/>
        <pt x="395" y="548" on="0"/>
        <pt x="356" y="548" on="1"/>
        <pt x="246" y="548" on="1"/>
        <pt x="246" y="414" on="1"/>
        <pt x="356" y="414" on="1"/>
      </contour>
      <contour>
        <pt x="399" y="140" on="0"/>
        <pt x="435" y="151" on="0"/>
        <pt x="449" y="179" on="0"/>
        <pt x="449" y="209" on="1"/>
        <pt x="449" y="240" on="0"/>
        <pt x="436" y="270" on="0"/>
        <pt x="399" y="281" on="0"/>
        <pt x="361" y="281" on="1"/>
        <pt x="246" y="281" on="1"/>
        <pt x="246" y="140" on="1"/>
        <pt x="361" y="140" on="1"/>
      </contour>
    </TTGlyph>
    <TTGlyph name="C" xMin="55" yMin="-8" xMax="531" yMax="696">
      <contour>
        <pt x="497" y="2" on="0"/>
        <pt x="394" y="-8" on="0"/>
        <pt x="349" y="-8" on="1"/>
        <pt x="219" y="-8" on="0"/>
        <pt x="95" y="56" on="0"/>
        <pt x="55" y="200" on="0"/>
        <pt x="55" y="344" on="1"/>
        <pt x="55" y="486" on="0"/>
        <pt x="96" y="630" on="0"/>
        <pt x="220" y="696" on="0"/>
        <pt x="349" y="696" on="1"/>
        <pt x="394" y="696" on="0"/>
        <pt x="494" y="685" on="0"/>
        <pt x="527" y="677" on="1"/>
        <pt x="527" y="545" on="1"/>
        <pt x="425" y="555" on="0"/>
        <pt x="392" y="555" on="1"/>
        <pt x="310" y="555" on="0"/>
        <pt x="248" y="530" on="0"/>
        <pt x="231" y="451" on="0"/>
        <pt x="231" y="344" on="1"/>
        <pt x="231" y="237" on="0"/>
        <pt x="248" y="158" on="0"/>
        <pt x="310" y="133" on="0"/>
        <pt x="392" y="133" on="1"/>
        <pt x="466" y="133" on="0"/>
        <pt x="531" y="143" on="1"/>
        <pt x="531" y="9" on="1"/>
      </contour>
    </TTGlyph>
    <TTGlyph name="Cacute" xMin="55" yMin="-8" xMax="531" yMax="888">
      <component glyphName="C" x="0" y="0" flags="0x0"/>
      <component glyphName="acutecomb.case" x="490" y="0" flags="0x0"/>
    </TTGlyph>
    <TTGlyph name="Cacute.loclPLK" xMin="55" yMin="-8" xMax="531" yMax="888">
      <component glyphName="C" x="0" y="0" flags="0x0"/>
      <component glyphName="acute.case.loclPLK" x="204" y="0" flags="0x0"/>
    </TTGlyph>
    <TTGlyph name="Ccaron" xMin="55" yMin="-8" xMax="531" yMax="888">
      <component glyphName="C" x="0" y="0" flags="0x0"/>
      <component glyphName="uni030C.case" x="475" y="0" flags="0x0"/>
    </TTGlyph>
    <TTGlyph name="Ccedilla" xMin="55" yMin="-190" xMax="531" yMax="696">
      <contour>
        <pt x="466" y="133" on="0"/>
        <pt x="531" y="143" on="1"/>
        <pt x="531" y="9" on="1"/>
        <pt x="497" y="2" on="0"/>
        <pt x="394" y="-8" on="0"/>
        <pt x="349" y="-8" on="1"/>
        <pt x="339" y="-8" on="1"/>
        <pt x="305" y="-190" on="1"/>
        <pt x="159" y="-190" on="1"/>
        <pt x="159" y="-185" on="1"/>
        <pt x="232" y="0" on="1"/>
        <pt x="156" y="13" on="0"/>
        <pt x="81" y="90" on="0"/>
        <pt x="55" y="224" on="0"/>
        <pt x="55" y="344" on="1"/>
        <pt x="55" y="486" on="0"/>
        <pt x="96" y="630" on="0"/>
        <pt x="220" y="696" on="0"/>
        <pt x="349" y="696" on="1"/>
        <pt x="394" y="696" on="0"/>
        <pt x="494" y="685" on="0"/>
        <pt x="527" y="677" on="1"/>
        <pt x="527" y="545" on="1"/>
        <pt x="425" y="555" on="0"/>
        <pt x="392" y="555" on="1"/>
        <pt x="310" y="555" on="0"/>
        <pt x="248" y="530" on="0"/>
        <pt x="231" y="451" on="0"/>
        <pt x="231" y="344" on="1"/>
        <pt x="231" y="237" on="0"/>
        <pt x="248" y="158" on="0"/>
        <pt x="310" y="133" on="0"/>
        <pt x="392" y="133" on="1"/>
      </contour>
    </TTGlyph>
    <TTGlyph name="Ccircumflex" xMin="55" yMin="-8" xMax="531" yMax="888">
      <component glyphName="C" x="0" y="0" flags="0x0"/>
      <component glyphName="uni0302.case" x="475" y="0" flags="0x0"/>
    </TTGlyph>
    <TTGlyph name="Cdotaccent" xMin="55" yMin="-8" xMax="531" yMax="875">
      <component glyphName="C" x="0" y="0" flags="0x0"/>
      <component glyphName="uni0307.case" x="372" y="0" flags="0x0"/>
    </TTGlyph>
    <TTGlyph name="D" xMin="73" yMin="0" xMax="630" yMax="688">
      <contour>
        <pt x="73" y="688" on="1"/>
        <pt x="316" y="688" on="1"/>
        <pt x="468" y="688" on="0"/>
        <pt x="598" y="627" on="0"/>
        <pt x="630" y="496" on="0"/>
        <pt x="630" y="344" on="1"/>
        <pt x="630" y="192" on="0"/>
        <pt x="598" y="61" on="0"/>
        <pt x="468" y="0" on="0"/>
        <pt x="316" y="0" on="1"/>
        <pt x="73" y="0" on="1"/>
      </contour>
      <contour>
        <pt x="312" y="141" on="1"/>
        <pt x="389" y="141" on="0"/>
        <pt x="440" y="160" on="0"/>
        <pt x="453" y="233" on="0"/>
        <pt x="453" y="344" on="1"/>
        <pt x="453" y="454" on="0"/>
        <pt x="439" y="528" on="0"/>
        <pt x="388" y="547" on="0"/>
        <pt x="312" y="547" on="1"/>
        <pt x="246" y="547" on="1"/>
        <pt x="246" y="141" on="1"/>
      </contour>
    </TTGlyph>
    <TTGlyph name="Dcaron" xMin="73" yMin="0" xMax="630" yMax="888">
      <component glyphName="D" x="0" y="0" flags="0x0"/>
      <component glyphName="uni030C.case" x="531" y="0" flags="0x0"/>
    </TTGlyph>
    <TTGlyph name="Dcroat" xMin="7" yMin="0" xMax="630" yMax="688">
      <component glyphName="Eth" x="0" y="0" flags="0x0"/>
    </TTGlyph>
    <TTGlyph name="E" xMin="73" yMin="0" xMax="561" yMax="688">
      <contour>
        <pt x="73" y="688" on="1"/>
        <pt x="561" y="688" on="1"/>
        <pt x="561" y="547" on="1"/>
        <pt x="247" y="547" on="1"/>
        <pt x="247" y="418" on="1"/>
        <pt x="513" y="418" on="1"/>
        <pt x="513" y="277" on="1"/>
        <pt x="247" y="277" on="1"/>
        <pt x="247" y="141" on="1"/>
        <pt x="561" y="141" on="1"/>
        <pt x="561" y="0" on="1"/>
        <pt x="73" y="0" on="1"/>
      </contour>
    </TTGlyph>
    <TTGlyph name="Eacute" xMin="73" yMin="0" xMax="561" yMax="896">
      <component glyphName="E" x="0" y="0" flags="0x0"/>
      <component glyphName="acute" x="232" y="153" flags="0x4"/>
    </TTGlyph>
    <TTGlyph name="Ebreve" xMin="73" yMin="0" xMax="561" yMax="888">
      <component glyphName="E" x="0" y="0" flags="0x0"/>
      <component glyphName="uni0306.case" x="480" y="0" flags="0x0"/>
    </TTGlyph>
    <TTGlyph name="Ecaron" xMin="73" yMin="0" xMax="561" yMax="888">
      <component glyphName="E" x="0" y="0" flags="0x0"/>
      <component glyphName="uni030C.case" x="496" y="0" flags="0x0"/>
    </TTGlyph>
    <TTGlyph name="Ecircumflex" xMin="73" yMin="0" xMax="561" yMax="896">
      <component glyphName="E" x="0" y="0" flags="0x0"/>
      <component glyphName="circumflex" x="120" y="153" flags="0x4"/>
    </TTGlyph>
    <TTGlyph name="Edieresis" xMin="73" yMin="0" xMax="561" yMax="874">
      <component glyphName="E" x="0" y="0" flags="0x0"/>
      <component glyphName="dieresis" x="126" y="144" flags="0x4"/>
    </TTGlyph>
    <TTGlyph name="Edotaccent" xMin="73" yMin="0" xMax="561" yMax="875">
      <component glyphName="E" x="0" y="0" flags="0x0"/>
      <component glyphName="uni0307.case" x="393" y="0" flags="0x0"/>
    </TTGlyph>
    <TTGlyph name="Egrave" xMin="73" yMin="0" xMax="561" yMax="896">
      <component glyphName="E" x="0" y="0" flags="0x0"/>
      <component glyphName="grave" x="127" y="153" flags="0x4"/>
    </TTGlyph>
    <TTGlyph name="Emacron" xMin="73" yMin="0" xMax="561" yMax="888">
      <component glyphName="E" x="0" y="0" flags="0x0"/>
      <component glyphName="uni0304.case" x="495" y="0" flags="0x0"/>
    </TTGlyph>
    <TTGlyph name="Eng" xMin="71" yMin="-200" xMax="643" yMax="688">
      <contour>
        <pt x="643" y="688" on="1"/>
        <pt x="643" y="5" on="1"/>
        <pt x="643" y="-90" on="0"/>
        <pt x="604" y="-174" on="0"/>
        <pt x="505" y="-200" on="0"/>
        <pt x="395" y="-200" on="1"/>
        <pt x="395" y="-84" on="1"/>
        <pt x="433" y="-84" on="0"/>
        <pt x="467" y="-74" on="0"/>
        <pt x="476" y="-54" on="0"/>
        <pt x="476" y="-32" on="1"/>
        <pt x="476" y="8" on="1"/>
        <pt x="242" y="393" on="1"/>
        <pt x="237" y="393" on="1"/>
        <pt x="237" y="0" on="1"/>
        <pt x="71" y="0" on="1"/>
        <pt x="71" y="688" on="1"/>
        <pt x="250" y="688" on="1"/>
        <pt x="471" y="331" on="1"/>
        <pt x="476" y="331" on="1"/>
        <pt x="476" y="688" on="1"/>
      </contour>
    </TTGlyph>
    <TTGlyph name="Eogonek" xMin="71" yMin="-196" xMax="551" yMax="688">
      <contour>
        <pt x="406" y="-196" on="0"/>
        <pt x="348" y="-150" on="0"/>
        <pt x="348" y="-114" on="1"/>
        <pt x="348" y="-58" on="0"/>
        <pt x="419" y="0" on="1"/>
        <pt x="71" y="0" on="1"/>
        <pt x="71" y="688" on="1"/>
        <pt x="551" y="688" on="1"/>
        <pt x="551" y="550" on="1"/>
        <pt x="245" y="550" on="1"/>
        <pt x="245" y="415" on="1"/>
        <pt x="504" y="415" on="1"/>
        <pt x="504" y="279" on="1"/>
        <pt x="245" y="279" on="1"/>
        <pt x="245" y="138" on="1"/>
        <pt x="551" y="138" on="1"/>
        <pt x="551" y="0" on="1"/>
        <pt x="523" y="-15" on="0"/>
        <pt x="479" y="-58" on="0"/>
        <pt x="479" y="-80" on="1"/>
        <pt x="479" y="-111" on="0"/>
        <pt x="525" y="-111" on="1"/>
        <pt x="539" y="-111" on="0"/>
        <pt x="543" y="-110" on="1"/>
        <pt x="543" y="-193" on="1"/>
        <pt x="510" y="-196" on="0"/>
        <pt x="475" y="-196" on="1"/>
      </contour>
    </TTGlyph>
    <TTGlyph name="Eth" xMin="7" yMin="0" xMax="630" yMax="688">
      <contour>
        <pt x="73" y="289" on="1"/>
        <pt x="7" y="289" on="1"/>
        <pt x="7" y="408" on="1"/>
        <pt x="73" y="408" on="1"/>
        <pt x="73" y="688" on="1"/>
        <pt x="316" y="688" on="1"/>
        <pt x="468" y="688" on="0"/>
        <pt x="598" y="627" on="0"/>
        <pt x="630" y="496" on="0"/>
        <pt x="630" y="344" on="1"/>
        <pt x="630" y="192" on="0"/>
        <pt x="598" y="61" on="0"/>
        <pt x="468" y="0" on="0"/>
        <pt x="316" y="0" on="1"/>
        <pt x="73" y="0" on="1"/>
      </contour>
      <contour>
        <pt x="389" y="141" on="0"/>
        <pt x="440" y="160" on="0"/>
        <pt x="453" y="233" on="0"/>
        <pt x="453" y="344" on="1"/>
        <pt x="453" y="454" on="0"/>
        <pt x="439" y="528" on="0"/>
        <pt x="388" y="547" on="0"/>
        <pt x="312" y="547" on="1"/>
        <pt x="246" y="547" on="1"/>
        <pt x="246" y="408" on="1"/>
        <pt x="334" y="408" on="1"/>
        <pt x="334" y="289" on="1"/>
        <pt x="246" y="289" on="1"/>
        <pt x="246" y="141" on="1"/>
        <pt x="312" y="141" on="1"/>
      </contour>
    </TTGlyph>
    <TTGlyph name="Euro" xMin="32" yMin="-8" xMax="565" yMax="696">
      <contour>
        <pt x="283" y="-8" on="0"/>
        <pt x="167" y="35" on="0"/>
        <pt x="114" y="134" on="0"/>
        <pt x="107" y="225" on="1"/>
        <pt x="32" y="225" on="1"/>
        <pt x="32" y="311" on="1"/>
        <pt x="103" y="311" on="1"/>
        <pt x="103" y="378" on="1"/>
        <pt x="32" y="378" on="1"/>
        <pt x="32" y="463" on="1"/>
        <pt x="107" y="463" on="1"/>
        <pt x="114" y="551" on="0"/>
        <pt x="168" y="650" on="0"/>
        <pt x="285" y="696" on="0"/>
        <pt x="389" y="696" on="1"/>
        <pt x="444" y="696" on="0"/>
        <pt x="543" y="684" on="0"/>
        <pt x="561" y="678" on="1"/>
        <pt x="561" y="551" on="1"/>
        <pt x="537" y="554" on="0"/>
        <pt x="459" y="560" on="0"/>
        <pt x="431" y="560" on="1"/>
        <pt x="369" y="560" on="0"/>
        <pt x="309" y="548" on="0"/>
        <pt x="281" y="507" on="0"/>
        <pt x="277" y="463" on="1"/>
        <pt x="512" y="463" on="1"/>
        <pt x="512" y="378" on="1"/>
        <pt x="274" y="378" on="1"/>
        <pt x="274" y="311" on="1"/>
        <pt x="512" y="311" on="1"/>
        <pt x="512" y="225" on="1"/>
        <pt x="277" y="225" on="1"/>
        <pt x="281" y="181" on="0"/>
        <pt x="309" y="140" on="0"/>
        <pt x="368" y="128" on="0"/>
        <pt x="431" y="128" on="1"/>
        <pt x="493" y="128" on="0"/>
        <pt x="565" y="136" on="1"/>
        <pt x="565" y="7" on="1"/>
        <pt x="545" y="2" on="0"/>
        <pt x="443" y="-8" on="0"/>
        <pt x="389" y="-8" on="1"/>
      </contour>
    </TTGlyph>
    <TTGlyph name="F" xMin="73" yMin="0" xMax="541" yMax="688">
      <contour>
        <pt x="73" y="688" on="1"/>
        <pt x="541" y="688" on="1"/>
        <pt x="541" y="547" on="1"/>
        <pt x="247" y="547" on="1"/>
        <pt x="247" y="396" on="1"/>
        <pt x="503" y="396" on="1"/>
        <pt x="503" y="255" on="1"/>
        <pt x="247" y="255" on="1"/>
        <pt x="247" y="0" on="1"/>
        <pt x="73" y="0" on="1"/>
      </contour>
    </TTGlyph>
    <TTGlyph name="G" xMin="55" yMin="-8" xMax="602" yMax="696">
      <contour>
        <pt x="345" y="270" on="1"/>
        <pt x="345" y="402" on="1"/>
        <pt x="602" y="402" on="1"/>
        <pt x="602" y="15" on="1"/>
        <pt x="550" y="5" on="0"/>
        <pt x="415" y="-8" on="0"/>
        <pt x="364" y="-8" on="1"/>
        <pt x="231" y="-8" on="0"/>
        <pt x="103" y="47" on="0"/>
        <pt x="55" y="192" on="0"/>
        <pt x="55" y="344" on="1"/>
        <pt x="55" y="486" on="0"/>
        <pt x="104" y="633" on="0"/>
        <pt x="234" y="696" on="0"/>
        <pt x="363" y="696" on="1"/>
        <pt x="437" y="696" on="0"/>
        <pt x="583" y="678" on="0"/>
        <pt x="599" y="673" on="1"/>
        <pt x="599" y="541" on="1"/>
        <pt x="487" y="555" on="0"/>
        <pt x="427" y="555" on="1"/>
        <pt x="328" y="555" on="0"/>
        <pt x="255" y="534" on="0"/>
        <pt x="231" y="452" on="0"/>
        <pt x="231" y="344" on="1"/>
        <pt x="231" y="246" on="0"/>
        <pt x="249" y="161" on="0"/>
        <pt x="306" y="129" on="0"/>
        <pt x="371" y="129" on="1"/>
        <pt x="407" y="129" on="0"/>
        <pt x="440" y="132" on="1"/>
        <pt x="440" y="270" on="1"/>
      </contour>
    </TTGlyph>
    <TTGlyph name="G.ss01" xMin="55" yMin="-8" xMax="628" yMax="696">
      <contour>
        <pt x="227" y="-8" on="0"/>
        <pt x="98" y="52" on="0"/>
        <pt x="55" y="196" on="0"/>
        <pt x="55" y="344" on="1"/>
        <pt x="55" y="488" on="0"/>
        <pt x="106" y="635" on="0"/>
        <pt x="238" y="696" on="0"/>
        <pt x="369" y="696" on="1"/>
        <pt x="420" y="696" on="0"/>
        <pt x="550" y="683" on="0"/>
        <pt x="601" y="673" on="1"/>
        <pt x="601" y="545" on="1"/>
        <pt x="487" y="558" on="0"/>
        <pt x="431" y="558" on="1"/>
        <pt x="329" y="558" on="0"/>
        <pt x="253" y="537" on="0"/>
        <pt x="227" y="454" on="0"/>
        <pt x="227" y="344" on="1"/>
        <pt x="227" y="239" on="0"/>
        <pt x="245" y="152" on="0"/>
        <pt x="294" y="127" on="0"/>
        <pt x="353" y="127" on="1"/>
        <pt x="408" y="127" on="0"/>
        <pt x="447" y="141" on="0"/>
        <pt x="458" y="186" on="0"/>
        <pt x="458" y="249" on="1"/>
        <pt x="458" y="279" on="1"/>
        <pt x="356" y="279" on="1"/>
        <pt x="356" y="409" on="1"/>
        <pt x="628" y="409" on="1"/>
        <pt x="628" y="267" on="1"/>
        <pt x="628" y="148" on="0"/>
        <pt x="602" y="43" on="0"/>
        <pt x="491" y="-8" on="0"/>
        <pt x="363" y="-8" on="1"/>
      </contour>
    </TTGlyph>
    <TTGlyph name="G_tilde.loclGUA" xMin="55" yMin="-8" xMax="602" yMax="888">
      <component glyphName="G" x="0" y="0" flags="0x0"/>
      <component glyphName="tildecomb.case" x="548" y="0" flags="0x0"/>
    </TTGlyph>
    <TTGlyph name="Gbreve" xMin="55" yMin="-8" xMax="602" yMax="888">
      <component glyphName="G" x="0" y="0" flags="0x0"/>
      <component glyphName="uni0306.case" x="506" y="0" flags="0x0"/>
    </TTGlyph>
    <TTGlyph name="Gbreve.ss01" xMin="55" yMin="-8" xMax="628" yMax="888">
      <component glyphName="G.ss01" x="0" y="0" flags="0x0"/>
      <component glyphName="uni0306.case" x="513" y="0" flags="0x0"/>
    </TTGlyph>
    <TTGlyph name="Gcaron" xMin="55" yMin="-8" xMax="602" yMax="888">
      <component glyphName="G" x="0" y="0" flags="0x0"/>
      <component glyphName="uni030C.case" x="522" y="0" flags="0x0"/>
    </TTGlyph>
    <TTGlyph name="Gcaron.ss01" xMin="55" yMin="-8" xMax="628" yMax="888">
      <component glyphName="G.ss01" x="0" y="0" flags="0x0"/>
      <component glyphName="uni030C.case" x="529" y="0" flags="0x0"/>
    </TTGlyph>
    <TTGlyph name="Gcircumflex" xMin="55" yMin="-8" xMax="602" yMax="888">
      <component glyphName="G" x="0" y="0" flags="0x0"/>
      <component glyphName="uni0302.case" x="522" y="0" flags="0x0"/>
    </TTGlyph>
    <TTGlyph name="Gcircumflex.ss01" xMin="55" yMin="-8" xMax="628" yMax="888">
      <component glyphName="G.ss01" x="0" y="0" flags="0x0"/>
      <component glyphName="uni0302.case" x="529" y="0" flags="0x0"/>
    </TTGlyph>
    <TTGlyph name="Gcommaaccent" xMin="55" yMin="-289" xMax="602" yMax="696">
      <component glyphName="G" x="0" y="0" flags="0x0"/>
      <component glyphName="uni0326" x="482" y="0" flags="0x0"/>
    </TTGlyph>
    <TTGlyph name="Gcommaaccent.ss01" xMin="55" yMin="-289" xMax="628" yMax="696">
      <component glyphName="G.ss01" x="0" y="0" flags="0x0"/>
      <component glyphName="uni0326" x="489" y="0" flags="0x0"/>
    </TTGlyph>
    <TTGlyph name="Gdotaccent" xMin="55" yMin="-8" xMax="602" yMax="875">
      <component glyphName="G" x="0" y="0" flags="0x0"/>
      <component glyphName="uni0307.case" x="419" y="0" flags="0x0"/>
    </TTGlyph>
    <TTGlyph name="Gdotaccent.ss01" xMin="55" yMin="-8" xMax="628" yMax="875">
      <component glyphName="G.ss01" x="0" y="0" flags="0x0"/>
      <component glyphName="uni0307.case" x="426" y="0" flags="0x0"/>
    </TTGlyph>
    <TTGlyph name="Gtilde.loclGUA.ss01" xMin="55" yMin="-8" xMax="628" yMax="888">
      <component glyphName="G.ss01" x="0" y="0" flags="0x0"/>
      <component glyphName="tildecomb.case" x="555" y="0" flags="0x0"/>
    </TTGlyph>
    <TTGlyph name="H" xMin="71" yMin="0" xMax="639" yMax="688">
      <contour>
        <pt x="465" y="270" on="1"/>
        <pt x="245" y="270" on="1"/>
        <pt x="245" y="0" on="1"/>
        <pt x="71" y="0" on="1"/>
        <pt x="71" y="688" on="1"/>
        <pt x="245" y="688" on="1"/>
        <pt x="245" y="420" on="1"/>
        <pt x="465" y="420" on="1"/>
        <pt x="465" y="688" on="1"/>
        <pt x="639" y="688" on="1"/>
        <pt x="639" y="0" on="1"/>
        <pt x="465" y="0" on="1"/>
      </contour>
    </TTGlyph>
    <TTGlyph name="Hbar" xMin="71" yMin="0" xMax="639" yMax="688">
      <contour>
        <pt x="639" y="688" on="1"/>
        <pt x="639" y="0" on="1"/>
        <pt x="465" y="0" on="1"/>
        <pt x="465" y="230" on="1"/>
        <pt x="245" y="230" on="1"/>
        <pt x="245" y="0" on="1"/>
        <pt x="71" y="0" on="1"/>
        <pt x="71" y="688" on="1"/>
        <pt x="245" y="688" on="1"/>
        <pt x="245" y="591" on="1"/>
        <pt x="465" y="591" on="1"/>
        <pt x="465" y="688" on="1"/>
      </contour>
      <contour>
        <pt x="465" y="380" on="1"/>
        <pt x="465" y="473" on="1"/>
        <pt x="245" y="473" on="1"/>
        <pt x="245" y="380" on="1"/>
      </contour>
    </TTGlyph>
    <TTGlyph name="Hcircumflex" xMin="71" yMin="0" xMax="639" yMax="888">
      <component glyphName="H" x="0" y="0" flags="0x0"/>
      <component glyphName="uni0302.case" x="543" y="0" flags="0x0"/>
    </TTGlyph>
    <TTGlyph name="I" xMin="71" yMin="0" xMax="245" yMax="688">
      <contour>
        <pt x="71" y="688" on="1"/>
        <pt x="245" y="688" on="1"/>
        <pt x="245" y="0" on="1"/>
        <pt x="71" y="0" on="1"/>
      </contour>
    </TTGlyph>
    <TTGlyph name="IJ" xMin="71" yMin="0" xMax="652" yMax="688">
      <component glyphName="I" x="0" y="0" flags="0x0"/>
      <component glyphName="J" x="316" y="0" flags="0x0"/>
    </TTGlyph>
    <TTGlyph name="Iacute" xMin="71" yMin="0" xMax="320" yMax="895">
      <component glyphName="I" x="0" y="0" flags="0x0"/>
      <component glyphName="acute" x="54" y="152" flags="0x4"/>
    </TTGlyph>
    <TTGlyph name="Iacute_J.loclNLD" xMin="71" yMin="0" xMax="748" yMax="888">
      <component glyphName="I" x="0" y="0" flags="0x0"/>
      <component glyphName="acutecomb.case" x="361" y="0" flags="0x0"/>
      <component glyphName="J" x="316" y="0" flags="0x0"/>
      <component glyphName="acutecomb.case" x="768" y="0" flags="0x0"/>
    </TTGlyph>
    <TTGlyph name="Ibreve" xMin="6" yMin="0" xMax="310" yMax="888">
      <component glyphName="I" x="0" y="0" flags="0x0"/>
      <component glyphName="uni0306.case" x="330" y="0" flags="0x0"/>
    </TTGlyph>
    <TTGlyph name="Icircumflex" xMin="-10" yMin="0" xMax="327" yMax="896">
      <component glyphName="I" x="0" y="0" flags="0x0"/>
      <component glyphName="circumflex" x="-30" y="153" flags="0x4"/>
    </TTGlyph>
    <TTGlyph name="Idieresis" xMin="-10" yMin="0" xMax="327" yMax="888">
      <component glyphName="I" x="0" y="0" flags="0x0"/>
      <component glyphName="dieresis" x="-28" y="158" flags="0x4"/>
    </TTGlyph>
    <TTGlyph name="Idotaccent" xMin="71" yMin="0" xMax="245" yMax="875">
      <component glyphName="I" x="0" y="0" flags="0x0"/>
      <component glyphName="uni0307.case" x="243" y="0" flags="0x0"/>
    </TTGlyph>
    <TTGlyph name="Igrave" xMin="0" yMin="0" xMax="246" yMax="896">
      <component glyphName="I" x="0" y="0" flags="0x0"/>
      <component glyphName="grave" x="-20" y="153" flags="0x4"/>
    </TTGlyph>
    <TTGlyph name="Imacron" xMin="21" yMin="0" xMax="296" yMax="888">
      <component glyphName="I" x="0" y="0" flags="0x0"/>
      <component glyphName="uni0304.case" x="345" y="0" flags="0x0"/>
    </TTGlyph>
    <TTGlyph name="Iogonek" xMin="52" yMin="-196" xMax="246" yMax="688">
      <contour>
        <pt x="52" y="-196" on="0"/>
        <pt x="52" y="-112" on="1"/>
        <pt x="52" y="-58" on="0"/>
        <pt x="113" y="0" on="1"/>
        <pt x="71" y="0" on="1"/>
        <pt x="71" y="688" on="1"/>
        <pt x="245" y="688" on="1"/>
        <pt x="245" y="0" on="1"/>
        <pt x="222" y="-13" on="0"/>
        <pt x="182" y="-57" on="0"/>
        <pt x="182" y="-78" on="1"/>
        <pt x="182" y="-94" on="0"/>
        <pt x="203" y="-111" on="0"/>
        <pt x="229" y="-111" on="1"/>
        <pt x="242" y="-111" on="0"/>
        <pt x="246" y="-110" on="1"/>
        <pt x="246" y="-193" on="1"/>
        <pt x="216" y="-196" on="0"/>
        <pt x="178" y="-196" on="1"/>
      </contour>
    </TTGlyph>
    <TTGlyph name="Itilde" xMin="-38" yMin="0" xMax="352" yMax="888">
      <component glyphName="I" x="0" y="0" flags="0x0"/>
      <component glyphName="tildecomb.case" x="372" y="0" flags="0x0"/>
    </TTGlyph>
    <TTGlyph name="J" xMin="23" yMin="0" xMax="336" yMax="688">
      <contour>
        <pt x="97" y="131" on="0"/>
        <pt x="149" y="145" on="0"/>
        <pt x="162" y="194" on="0"/>
        <pt x="162" y="265" on="1"/>
        <pt x="162" y="688" on="1"/>
        <pt x="336" y="688" on="1"/>
        <pt x="336" y="311" on="1"/>
        <pt x="336" y="148" on="0"/>
        <pt x="303" y="32" on="0"/>
        <pt x="187" y="0" on="0"/>
        <pt x="23" y="0" on="1"/>
        <pt x="23" y="130" on="1"/>
      </contour>
    </TTGlyph>
    <TTGlyph name="Jcircumflex" xMin="23" yMin="0" xMax="418" yMax="888">
      <component glyphName="J" x="0" y="0" flags="0x0"/>
      <component glyphName="uni0302.case" x="437" y="0" flags="0x0"/>
    </TTGlyph>
    <TTGlyph name="K" xMin="73" yMin="0" xMax="681" yMax="688">
      <contour>
        <pt x="290" y="280" on="1"/>
        <pt x="247" y="280" on="1"/>
        <pt x="247" y="0" on="1"/>
        <pt x="73" y="0" on="1"/>
        <pt x="73" y="688" on="1"/>
        <pt x="247" y="688" on="1"/>
        <pt x="247" y="420" on="1"/>
        <pt x="290" y="420" on="1"/>
        <pt x="487" y="688" on="1"/>
        <pt x="678" y="688" on="1"/>
        <pt x="429" y="362" on="1"/>
        <pt x="681" y="0" on="1"/>
        <pt x="485" y="0" on="1"/>
      </contour>
    </TTGlyph>
    <TTGlyph name="Kcommaaccent" xMin="73" yMin="-289" xMax="681" yMax="688">
      <component glyphName="K" x="0" y="0" flags="0x0"/>
      <component glyphName="uni0326" x="491" y="0" flags="0x0"/>
    </TTGlyph>
    <TTGlyph name="L" xMin="73" yMin="0" xMax="520" yMax="688">
      <contour>
        <pt x="73" y="688" on="1"/>
        <pt x="247" y="688" on="1"/>
        <pt x="247" y="148" on="1"/>
        <pt x="520" y="148" on="1"/>
        <pt x="520" y="0" on="1"/>
        <pt x="73" y="0" on="1"/>
      </contour>
    </TTGlyph>
    <TTGlyph name="Lacute" xMin="73" yMin="0" xMax="520" yMax="888">
      <component glyphName="L" x="0" y="0" flags="0x0"/>
      <component glyphName="acutecomb.case" x="462" y="0" flags="0x0"/>
    </TTGlyph>
    <TTGlyph name="Lcaron" xMin="73" yMin="0" xMax="679" yMax="827">
      <component glyphName="L" x="0" y="0" flags="0x0"/>
      <component glyphName="caron.loclCSY" x="471" y="139" flags="0x4"/>
    </TTGlyph>
    <TTGlyph name="Lcommaaccent" xMin="73" yMin="-289" xMax="520" yMax="688">
      <component glyphName="L" x="0" y="0" flags="0x0"/>
      <component glyphName="uni0326" x="421" y="0" flags="0x0"/>
    </TTGlyph>
    <TTGlyph name="Ldot" xMin="73" yMin="0" xMax="520" yMax="688">
      <component glyphName="L" x="0" y="0" flags="0x0"/>
      <component glyphName="periodcentered" x="280" y="82" flags="0x4"/>
    </TTGlyph>
    <TTGlyph name="Lslash" xMin="15" yMin="0" xMax="520" yMax="688">
      <contour>
        <pt x="520" y="148" on="1"/>
        <pt x="520" y="0" on="1"/>
        <pt x="73" y="0" on="1"/>
        <pt x="73" y="262" on="1"/>
        <pt x="15" y="240" on="1"/>
        <pt x="15" y="359" on="1"/>
        <pt x="73" y="381" on="1"/>
        <pt x="73" y="688" on="1"/>
        <pt x="247" y="688" on="1"/>
        <pt x="247" y="446" on="1"/>
        <pt x="394" y="501" on="1"/>
        <pt x="394" y="382" on="1"/>
        <pt x="247" y="327" on="1"/>
        <pt x="247" y="148" on="1"/>
      </contour>
    </TTGlyph>
    <TTGlyph name="M" xMin="71" yMin="0" xMax="826" yMax="688">
      <contour>
        <pt x="659" y="438" on="1"/>
        <pt x="652" y="438" on="1"/>
        <pt x="505" y="0" on="1"/>
        <pt x="387" y="0" on="1"/>
        <pt x="240" y="438" on="1"/>
        <pt x="233" y="438" on="1"/>
        <pt x="233" y="0" on="1"/>
        <pt x="71" y="0" on="1"/>
        <pt x="71" y="688" on="1"/>
        <pt x="310" y="688" on="1"/>
        <pt x="446" y="291" on="1"/>
        <pt x="453" y="291" on="1"/>
        <pt x="588" y="688" on="1"/>
        <pt x="826" y="688" on="1"/>
        <pt x="826" y="0" on="1"/>
        <pt x="659" y="0" on="1"/>
      </contour>
    </TTGlyph>
    <TTGlyph name="N" xMin="71" yMin="0" xMax="643" yMax="688">
      <contour>
        <pt x="242" y="393" on="1"/>
        <pt x="237" y="393" on="1"/>
        <pt x="237" y="0" on="1"/>
        <pt x="71" y="0" on="1"/>
        <pt x="71" y="688" on="1"/>
        <pt x="250" y="688" on="1"/>
        <pt x="471" y="331" on="1"/>
        <pt x="476" y="331" on="1"/>
        <pt x="476" y="688" on="1"/>
        <pt x="643" y="688" on="1"/>
        <pt x="643" y="0" on="1"/>
        <pt x="480" y="0" on="1"/>
      </contour>
    </TTGlyph>
    <TTGlyph name="Nacute" xMin="71" yMin="0" xMax="643" yMax="888">
      <component glyphName="N" x="0" y="0" flags="0x0"/>
      <component glyphName="acutecomb.case" x="560" y="0" flags="0x0"/>
    </TTGlyph>
    <TTGlyph name="Nacute.loclPLK" xMin="71" yMin="0" xMax="643" yMax="888">
      <component glyphName="N" x="0" y="0" flags="0x0"/>
      <component glyphName="acute.case.loclPLK" x="274" y="0" flags="0x0"/>
    </TTGlyph>
    <TTGlyph name="Ncaron" xMin="71" yMin="0" xMax="643" yMax="888">
      <component glyphName="N" x="0" y="0" flags="0x0"/>
      <component glyphName="uni030C.case" x="545" y="0" flags="0x0"/>
    </TTGlyph>
    <TTGlyph name="Ncommaaccent" xMin="71" yMin="-289" xMax="643" yMax="688">
      <component glyphName="N" x="0" y="0" flags="0x0"/>
      <component glyphName="uni0326" x="505" y="0" flags="0x0"/>
    </TTGlyph>
    <TTGlyph name="Ntilde" xMin="71" yMin="0" xMax="643" yMax="906">
      <component glyphName="N" x="0" y="0" flags="0x0"/>
      <component glyphName="tilde" x="142" y="163" flags="0x4"/>
    </TTGlyph>
    <TTGlyph name="O" xMin="55" yMin="-8" xMax="652" yMax="696">
      <contour>
        <pt x="209" y="-8" on="0"/>
        <pt x="86" y="53" on="0"/>
        <pt x="55" y="187" on="0"/>
        <pt x="55" y="344" on="1"/>
        <pt x="55" y="501" on="0"/>
        <pt x="86" y="635" on="0"/>
        <pt x="209" y="696" on="0"/>
        <pt x="354" y="696" on="1"/>
        <pt x="499" y="696" on="0"/>
        <pt x="622" y="635" on="0"/>
        <pt x="652" y="501" on="0"/>
        <pt x="652" y="344" on="1"/>
        <pt x="652" y="187" on="0"/>
        <pt x="622" y="53" on="0"/>
        <pt x="499" y="-8" on="0"/>
        <pt x="354" y="-8" on="1"/>
      </contour>
      <contour>
        <pt x="419" y="133" on="0"/>
        <pt x="463" y="154" on="0"/>
        <pt x="475" y="230" on="0"/>
        <pt x="475" y="344" on="1"/>
        <pt x="475" y="458" on="0"/>
        <pt x="463" y="534" on="0"/>
        <pt x="419" y="555" on="0"/>
        <pt x="354" y="555" on="1"/>
        <pt x="289" y="555" on="0"/>
        <pt x="243" y="534" on="0"/>
        <pt x="231" y="456" on="0"/>
        <pt x="231" y="344" on="1"/>
        <pt x="231" y="232" on="0"/>
        <pt x="243" y="154" on="0"/>
        <pt x="289" y="133" on="0"/>
        <pt x="354" y="133" on="1"/>
      </contour>
    </TTGlyph>
    <TTGlyph name="OE" xMin="55" yMin="0" xMax="956" yMax="688">
      <contour>
        <pt x="209" y="0" on="0"/>
        <pt x="86" y="60" on="0"/>
        <pt x="55" y="191" on="0"/>
        <pt x="55" y="344" on="1"/>
        <pt x="55" y="497" on="0"/>
        <pt x="86" y="628" on="0"/>
        <pt x="209" y="688" on="0"/>
        <pt x="354" y="688" on="1"/>
        <pt x="956" y="688" on="1"/>
        <pt x="956" y="547" on="1"/>
        <pt x="700" y="547" on="1"/>
        <pt x="658" y="547" on="0"/>
        <pt x="629" y="555" on="1"/>
        <pt x="648" y="508" on="0"/>
        <pt x="651" y="418" on="1"/>
        <pt x="908" y="418" on="1"/>
        <pt x="908" y="277" on="1"/>
        <pt x="652" y="277" on="1"/>
        <pt x="650" y="229" on="0"/>
        <pt x="640" y="160" on="0"/>
        <pt x="629" y="133" on="1"/>
        <pt x="658" y="141" on="0"/>
        <pt x="700" y="141" on="1"/>
        <pt x="956" y="141" on="1"/>
        <pt x="956" y="0" on="1"/>
        <pt x="354" y="0" on="1"/>
      </contour>
      <contour>
        <pt x="419" y="141" on="0"/>
        <pt x="463" y="161" on="0"/>
        <pt x="475" y="235" on="0"/>
        <pt x="475" y="344" on="1"/>
        <pt x="475" y="453" on="0"/>
        <pt x="463" y="527" on="0"/>
        <pt x="419" y="547" on="0"/>
        <pt x="354" y="547" on="1"/>
        <pt x="289" y="547" on="0"/>
        <pt x="243" y="527" on="0"/>
        <pt x="231" y="452" on="0"/>
        <pt x="231" y="344" on="1"/>
        <pt x="231" y="236" on="0"/>
        <pt x="243" y="161" on="0"/>
        <pt x="289" y="141" on="0"/>
        <pt x="354" y="141" on="1"/>
      </contour>
    </TTGlyph>
    <TTGlyph name="Oacute" xMin="55" yMin="-8" xMax="652" yMax="896">
      <component glyphName="O" x="0" y="0" flags="0x0"/>
      <component glyphName="acute" x="260" y="153" flags="0x4"/>
    </TTGlyph>
    <TTGlyph name="Oacute.loclPLK" xMin="55" yMin="-8" xMax="652" yMax="888">
      <component glyphName="O" x="0" y="0" flags="0x0"/>
      <component glyphName="acute.case.loclPLK" x="271" y="0" flags="0x0"/>
    </TTGlyph>
    <TTGlyph name="Obreve" xMin="55" yMin="-8" xMax="652" yMax="888">
      <component glyphName="O" x="0" y="0" flags="0x0"/>
      <component glyphName="uni0306.case" x="526" y="0" flags="0x0"/>
    </TTGlyph>
    <TTGlyph name="Ocircumflex" xMin="55" yMin="-8" xMax="652" yMax="896">
      <component glyphName="O" x="0" y="0" flags="0x0"/>
      <component glyphName="circumflex" x="161" y="153" flags="0x4"/>
    </TTGlyph>
    <TTGlyph name="Odieresis" xMin="55" yMin="-8" xMax="652" yMax="888">
      <component glyphName="O" x="0" y="0" flags="0x0"/>
      <component glyphName="dieresis" x="164" y="158" flags="0x4"/>
    </TTGlyph>
    <TTGlyph name="Ograve" xMin="55" yMin="-8" xMax="652" yMax="896">
      <component glyphName="O" x="0" y="0" flags="0x0"/>
      <component glyphName="grave" x="151" y="153" flags="0x4"/>
    </TTGlyph>
    <TTGlyph name="Ohorn" xMin="55" yMin="-8" xMax="724" yMax="778">
      <contour>
        <pt x="724" y="778" on="1"/>
        <pt x="724" y="761" on="1"/>
        <pt x="724" y="712" on="0"/>
        <pt x="707" y="660" on="0"/>
        <pt x="658" y="632" on="0"/>
        <pt x="607" y="629" on="1"/>
        <pt x="637" y="592" on="0"/>
        <pt x="652" y="469" on="0"/>
        <pt x="652" y="344" on="1"/>
        <pt x="652" y="187" on="0"/>
        <pt x="622" y="53" on="0"/>
        <pt x="499" y="-8" on="0"/>
        <pt x="354" y="-8" on="1"/>
        <pt x="209" y="-8" on="0"/>
        <pt x="86" y="53" on="0"/>
        <pt x="55" y="187" on="0"/>
        <pt x="55" y="344" on="1"/>
        <pt x="55" y="501" on="0"/>
        <pt x="86" y="635" on="0"/>
        <pt x="209" y="696" on="0"/>
        <pt x="354" y="696" on="1"/>
        <pt x="445" y="696" on="0"/>
        <pt x="503" y="684" on="1"/>
        <pt x="503" y="688" on="1"/>
        <pt x="555" y="688" on="1"/>
        <pt x="584" y="688" on="0"/>
        <pt x="610" y="700" on="0"/>
        <pt x="619" y="726" on="0"/>
        <pt x="619" y="753" on="1"/>
        <pt x="619" y="778" on="1"/>
      </contour>
      <contour>
        <pt x="419" y="133" on="0"/>
        <pt x="463" y="154" on="0"/>
        <pt x="475" y="230" on="0"/>
        <pt x="475" y="344" on="1"/>
        <pt x="475" y="458" on="0"/>
        <pt x="463" y="534" on="0"/>
        <pt x="419" y="555" on="0"/>
        <pt x="354" y="555" on="1"/>
        <pt x="289" y="555" on="0"/>
        <pt x="243" y="534" on="0"/>
        <pt x="231" y="456" on="0"/>
        <pt x="231" y="344" on="1"/>
        <pt x="231" y="232" on="0"/>
        <pt x="243" y="154" on="0"/>
        <pt x="289" y="133" on="0"/>
        <pt x="354" y="133" on="1"/>
      </contour>
    </TTGlyph>
    <TTGlyph name="Ohungarumlaut" xMin="55" yMin="-8" xMax="652" yMax="877">
      <component glyphName="O" x="0" y="0" flags="0x0"/>
      <component glyphName="uni030B.case" x="626" y="0" flags="0x0"/>
    </TTGlyph>
    <TTGlyph name="Omacron" xMin="55" yMin="-8" xMax="652" yMax="888">
      <component glyphName="O" x="0" y="0" flags="0x0"/>
      <component glyphName="uni0304.case" x="541" y="0" flags="0x0"/>
    </TTGlyph>
    <TTGlyph name="Oslash" xMin="55" yMin="-55" xMax="652" yMax="743">
      <contour>
        <pt x="618" y="623" on="0"/>
        <pt x="645" y="544" on="0"/>
        <pt x="652" y="439" on="0"/>
        <pt x="652" y="344" on="1"/>
        <pt x="652" y="187" on="0"/>
        <pt x="622" y="53" on="0"/>
        <pt x="499" y="-8" on="0"/>
        <pt x="354" y="-8" on="1"/>
        <pt x="280" y="-8" on="0"/>
        <pt x="222" y="0" on="1"/>
        <pt x="190" y="-55" on="1"/>
        <pt x="55" y="-55" on="1"/>
        <pt x="113" y="46" on="1"/>
        <pt x="86" y="70" on="0"/>
        <pt x="61" y="149" on="0"/>
        <pt x="55" y="252" on="0"/>
        <pt x="55" y="344" on="1"/>
        <pt x="55" y="501" on="0"/>
        <pt x="86" y="635" on="0"/>
        <pt x="209" y="696" on="0"/>
        <pt x="354" y="696" on="1"/>
        <pt x="429" y="696" on="0"/>
        <pt x="477" y="689" on="1"/>
        <pt x="509" y="743" on="1"/>
        <pt x="645" y="743" on="1"/>
        <pt x="589" y="647" on="1"/>
      </contour>
      <contour>
        <pt x="419" y="133" on="0"/>
        <pt x="463" y="154" on="0"/>
        <pt x="475" y="230" on="0"/>
        <pt x="475" y="344" on="1"/>
        <pt x="475" y="458" on="0"/>
        <pt x="463" y="534" on="0"/>
        <pt x="419" y="555" on="0"/>
        <pt x="354" y="555" on="1"/>
        <pt x="289" y="555" on="0"/>
        <pt x="243" y="534" on="0"/>
        <pt x="231" y="456" on="0"/>
        <pt x="231" y="344" on="1"/>
        <pt x="231" y="232" on="0"/>
        <pt x="243" y="154" on="0"/>
        <pt x="289" y="133" on="0"/>
        <pt x="354" y="133" on="1"/>
      </contour>
    </TTGlyph>
    <TTGlyph name="Oslash.bold" xMin="55" yMin="-55" xMax="652" yMax="743">
      <contour>
        <pt x="617" y="625" on="0"/>
        <pt x="645" y="546" on="0"/>
        <pt x="652" y="441" on="0"/>
        <pt x="652" y="344" on="1"/>
        <pt x="652" y="187" on="0"/>
        <pt x="622" y="53" on="0"/>
        <pt x="499" y="-8" on="0"/>
        <pt x="354" y="-8" on="1"/>
        <pt x="274" y="-8" on="0"/>
        <pt x="220" y="1" on="1"/>
        <pt x="188" y="-55" on="1"/>
        <pt x="55" y="-55" on="1"/>
        <pt x="112" y="46" on="1"/>
        <pt x="86" y="70" on="0"/>
        <pt x="61" y="149" on="0"/>
        <pt x="55" y="252" on="0"/>
        <pt x="55" y="344" on="1"/>
        <pt x="55" y="501" on="0"/>
        <pt x="86" y="635" on="0"/>
        <pt x="209" y="696" on="0"/>
        <pt x="354" y="696" on="1"/>
        <pt x="428" y="696" on="0"/>
        <pt x="476" y="689" on="1"/>
        <pt x="506" y="743" on="1"/>
        <pt x="641" y="743" on="1"/>
        <pt x="587" y="648" on="1"/>
      </contour>
      <contour>
        <pt x="231" y="282" on="0"/>
        <pt x="232" y="258" on="1"/>
        <pt x="399" y="554" on="1"/>
        <pt x="386" y="555" on="0"/>
        <pt x="354" y="555" on="1"/>
        <pt x="289" y="555" on="0"/>
        <pt x="243" y="534" on="0"/>
        <pt x="231" y="456" on="0"/>
        <pt x="231" y="344" on="1"/>
      </contour>
      <contour>
        <pt x="419" y="133" on="0"/>
        <pt x="463" y="154" on="0"/>
        <pt x="475" y="230" on="0"/>
        <pt x="475" y="344" on="1"/>
        <pt x="475" y="421" on="0"/>
        <pt x="474" y="448" on="1"/>
        <pt x="296" y="135" on="1"/>
        <pt x="311" y="133" on="0"/>
        <pt x="354" y="133" on="1"/>
      </contour>
    </TTGlyph>
    <TTGlyph name="Oslashacute" xMin="55" yMin="-55" xMax="652" yMax="888">
      <component glyphName="Oslash" x="0" y="0" flags="0x0"/>
      <component glyphName="acutecomb.case" x="553" y="0" flags="0x0"/>
    </TTGlyph>
    <TTGlyph name="Otilde" xMin="55" yMin="-8" xMax="652" yMax="905">
      <component glyphName="O" x="0" y="0" flags="0x0"/>
      <component glyphName="tilde" x="137" y="162" flags="0x4"/>
    </TTGlyph>
    <TTGlyph name="P" xMin="73" yMin="0" xMax="617" yMax="688">
      <contour>
        <pt x="73" y="688" on="1"/>
        <pt x="400" y="688" on="1"/>
        <pt x="492" y="688" on="0"/>
        <pt x="586" y="634" on="0"/>
        <pt x="617" y="536" on="0"/>
        <pt x="617" y="454" on="1"/>
        <pt x="617" y="377" on="0"/>
        <pt x="588" y="279" on="0"/>
        <pt x="493" y="221" on="0"/>
        <pt x="400" y="221" on="1"/>
        <pt x="247" y="221" on="1"/>
        <pt x="247" y="0" on="1"/>
        <pt x="73" y="0" on="1"/>
      </contour>
      <contour>
        <pt x="328" y="360" on="1"/>
        <pt x="381" y="360" on="0"/>
        <pt x="427" y="373" on="0"/>
        <pt x="441" y="410" on="0"/>
        <pt x="441" y="454" on="1"/>
        <pt x="441" y="498" on="0"/>
        <pt x="427" y="535" on="0"/>
        <pt x="382" y="548" on="0"/>
        <pt x="328" y="548" on="1"/>
        <pt x="247" y="548" on="1"/>
        <pt x="247" y="360" on="1"/>
      </contour>
    </TTGlyph>
    <TTGlyph name="Q" xMin="55" yMin="-115" xMax="679" yMax="696">
      <contour>
        <pt x="420" y="-5" on="1"/>
        <pt x="389" y="-8" on="0"/>
        <pt x="349" y="-8" on="1"/>
        <pt x="206" y="-8" on="0"/>
        <pt x="85" y="52" on="0"/>
        <pt x="55" y="186" on="0"/>
        <pt x="55" y="344" on="1"/>
        <pt x="55" y="502" on="0"/>
        <pt x="85" y="636" on="0"/>
        <pt x="206" y="696" on="0"/>
        <pt x="349" y="696" on="1"/>
        <pt x="492" y="696" on="0"/>
        <pt x="614" y="636" on="0"/>
        <pt x="645" y="501" on="0"/>
        <pt x="645" y="344" on="1"/>
        <pt x="645" y="250" on="0"/>
        <pt x="635" y="139" on="0"/>
        <pt x="605" y="63" on="0"/>
        <pt x="574" y="41" on="1"/>
        <pt x="679" y="-109" on="1"/>
        <pt x="679" y="-115" on="1"/>
        <pt x="494" y="-115" on="1"/>
      </contour>
      <contour>
        <pt x="413" y="130" on="0"/>
        <pt x="458" y="151" on="0"/>
        <pt x="470" y="230" on="0"/>
        <pt x="470" y="344" on="1"/>
        <pt x="470" y="458" on="0"/>
        <pt x="458" y="537" on="0"/>
        <pt x="413" y="558" on="0"/>
        <pt x="349" y="558" on="1"/>
        <pt x="285" y="558" on="0"/>
        <pt x="241" y="537" on="0"/>
        <pt x="229" y="458" on="0"/>
        <pt x="229" y="344" on="1"/>
        <pt x="229" y="230" on="0"/>
        <pt x="241" y="151" on="0"/>
        <pt x="285" y="130" on="0"/>
        <pt x="349" y="130" on="1"/>
      </contour>
    </TTGlyph>
    <TTGlyph name="Q.bold" xMin="55" yMin="-115" xMax="676" yMax="696">
      <contour>
        <pt x="676" y="-107" on="1"/>
        <pt x="676" y="-115" on="1"/>
        <pt x="496" y="-115" on="1"/>
        <pt x="422" y="-6" on="1"/>
        <pt x="380" y="-8" on="0"/>
        <pt x="354" y="-8" on="1"/>
        <pt x="209" y="-8" on="0"/>
        <pt x="86" y="53" on="0"/>
        <pt x="55" y="187" on="0"/>
        <pt x="55" y="344" on="1"/>
        <pt x="55" y="501" on="0"/>
        <pt x="86" y="635" on="0"/>
        <pt x="209" y="696" on="0"/>
        <pt x="354" y="696" on="1"/>
        <pt x="499" y="696" on="0"/>
        <pt x="622" y="635" on="0"/>
        <pt x="652" y="501" on="0"/>
        <pt x="652" y="344" on="1"/>
        <pt x="652" y="244" on="0"/>
        <pt x="644" y="135" on="0"/>
        <pt x="612" y="56" on="0"/>
        <pt x="577" y="33" on="1"/>
      </contour>
      <contour>
        <pt x="231" y="239" on="0"/>
        <pt x="241" y="161" on="0"/>
        <pt x="279" y="134" on="0"/>
        <pt x="328" y="133" on="1"/>
        <pt x="270" y="218" on="1"/>
        <pt x="445" y="218" on="1"/>
        <pt x="468" y="186" on="1"/>
        <pt x="473" y="207" on="0"/>
        <pt x="475" y="273" on="0"/>
        <pt x="475" y="344" on="1"/>
        <pt x="475" y="458" on="0"/>
        <pt x="463" y="534" on="0"/>
        <pt x="419" y="555" on="0"/>
        <pt x="354" y="555" on="1"/>
        <pt x="289" y="555" on="0"/>
        <pt x="243" y="534" on="0"/>
        <pt x="231" y="456" on="0"/>
        <pt x="231" y="344" on="1"/>
      </contour>
    </TTGlyph>
    <TTGlyph name="R" xMin="73" yMin="0" xMax="640" yMax="688">
      <contour>
        <pt x="458" y="0" on="1"/>
        <pt x="368" y="241" on="1"/>
        <pt x="247" y="241" on="1"/>
        <pt x="247" y="0" on="1"/>
        <pt x="73" y="0" on="1"/>
        <pt x="73" y="688" on="1"/>
        <pt x="403" y="688" on="1"/>
        <pt x="498" y="688" on="0"/>
        <pt x="595" y="635" on="0"/>
        <pt x="626" y="542" on="0"/>
        <pt x="626" y="464" on="1"/>
        <pt x="626" y="392" on="0"/>
        <pt x="589" y="286" on="0"/>
        <pt x="534" y="262" on="1"/>
        <pt x="640" y="0" on="1"/>
      </contour>
      <contour>
        <pt x="391" y="379" on="0"/>
        <pt x="436" y="391" on="0"/>
        <pt x="450" y="424" on="0"/>
        <pt x="450" y="463" on="1"/>
        <pt x="450" y="503" on="0"/>
        <pt x="438" y="536" on="0"/>
        <pt x="393" y="548" on="0"/>
        <pt x="339" y="548" on="1"/>
        <pt x="247" y="548" on="1"/>
        <pt x="247" y="379" on="1"/>
        <pt x="337" y="379" on="1"/>
      </contour>
    </TTGlyph>
    <TTGlyph name="R.ss01" xMin="71" yMin="0" xMax="625" yMax="688">
      <contour>
        <pt x="625" y="0" on="1"/>
        <pt x="452" y="0" on="1"/>
        <pt x="441" y="152" on="1"/>
        <pt x="438" y="189" on="0"/>
        <pt x="426" y="225" on="0"/>
        <pt x="390" y="243" on="0"/>
        <pt x="351" y="243" on="1"/>
        <pt x="245" y="243" on="1"/>
        <pt x="245" y="0" on="1"/>
        <pt x="71" y="0" on="1"/>
        <pt x="71" y="688" on="1"/>
        <pt x="433" y="688" on="1"/>
        <pt x="534" y="688" on="0"/>
        <pt x="621" y="595" on="0"/>
        <pt x="621" y="500" on="1"/>
        <pt x="621" y="413" on="0"/>
        <pt x="564" y="335" on="0"/>
        <pt x="503" y="319" on="1"/>
        <pt x="503" y="315" on="1"/>
        <pt x="541" y="306" on="0"/>
        <pt x="586" y="278" on="0"/>
        <pt x="611" y="221" on="0"/>
        <pt x="614" y="171" on="1"/>
      </contour>
      <contour>
        <pt x="392" y="379" on="0"/>
        <pt x="431" y="392" on="0"/>
        <pt x="444" y="427" on="0"/>
        <pt x="444" y="464" on="1"/>
        <pt x="444" y="503" on="0"/>
        <pt x="432" y="537" on="0"/>
        <pt x="394" y="550" on="0"/>
        <pt x="349" y="550" on="1"/>
        <pt x="245" y="550" on="1"/>
        <pt x="245" y="379" on="1"/>
        <pt x="348" y="379" on="1"/>
      </contour>
    </TTGlyph>
    <TTGlyph name="Racute" xMin="73" yMin="0" xMax="640" yMax="888">
      <component glyphName="R" x="0" y="0" flags="0x0"/>
      <component glyphName="acutecomb.case" x="543" y="0" flags="0x0"/>
    </TTGlyph>
    <TTGlyph name="Racute.ss01" xMin="71" yMin="0" xMax="625" yMax="888">
      <component glyphName="R.ss01" x="0" y="0" flags="0x0"/>
      <component glyphName="acutecomb.case" x="540" y="0" flags="0x0"/>
    </TTGlyph>
    <TTGlyph name="Rcaron" xMin="73" yMin="0" xMax="640" yMax="888">
      <component glyphName="R" x="0" y="0" flags="0x0"/>
      <component glyphName="uni030C.case" x="528" y="0" flags="0x0"/>
    </TTGlyph>
    <TTGlyph name="Rcaron.ss01" xMin="71" yMin="0" xMax="625" yMax="888">
      <component glyphName="R.ss01" x="0" y="0" flags="0x0"/>
      <component glyphName="uni030C.case" x="525" y="0" flags="0x0"/>
    </TTGlyph>
    <TTGlyph name="Rcommaaccent" xMin="73" yMin="-289" xMax="640" yMax="688">
      <component glyphName="R" x="0" y="0" flags="0x0"/>
      <component glyphName="uni0326" x="488" y="0" flags="0x0"/>
    </TTGlyph>
    <TTGlyph name="Rcommaaccent.ss01" xMin="71" yMin="-289" xMax="625" yMax="688">
      <component glyphName="R.ss01" x="0" y="0" flags="0x0"/>
      <component glyphName="uni0326" x="485" y="0" flags="0x0"/>
    </TTGlyph>
    <TTGlyph name="S" xMin="46" yMin="-8" xMax="574" yMax="696">
      <contour>
        <pt x="179" y="-8" on="0"/>
        <pt x="66" y="9" on="1"/>
        <pt x="66" y="145" on="1"/>
        <pt x="188" y="133" on="0"/>
        <pt x="272" y="133" on="1"/>
        <pt x="321" y="133" on="0"/>
        <pt x="373" y="141" on="0"/>
        <pt x="384" y="150" on="1"/>
        <pt x="394" y="158" on="0"/>
        <pt x="399" y="181" on="0"/>
        <pt x="399" y="202" on="1"/>
        <pt x="399" y="227" on="0"/>
        <pt x="391" y="249" on="0"/>
        <pt x="367" y="258" on="0"/>
        <pt x="337" y="262" on="1"/>
        <pt x="210" y="278" on="1"/>
        <pt x="142" y="286" on="0"/>
        <pt x="71" y="339" on="0"/>
        <pt x="46" y="423" on="0"/>
        <pt x="46" y="486" on="1"/>
        <pt x="46" y="575" on="0"/>
        <pt x="112" y="667" on="0"/>
        <pt x="223" y="696" on="0"/>
        <pt x="309" y="696" on="1"/>
        <pt x="372" y="696" on="0"/>
        <pt x="477" y="686" on="0"/>
        <pt x="539" y="675" on="1"/>
        <pt x="539" y="542" on="1"/>
        <pt x="420" y="555" on="0"/>
        <pt x="344" y="555" on="1"/>
        <pt x="264" y="555" on="0"/>
        <pt x="240" y="543" on="1"/>
        <pt x="227" y="537" on="0"/>
        <pt x="220" y="515" on="0"/>
        <pt x="220" y="495" on="1"/>
        <pt x="220" y="470" on="0"/>
        <pt x="227" y="449" on="0"/>
        <pt x="250" y="440" on="0"/>
        <pt x="279" y="436" on="1"/>
        <pt x="425" y="418" on="1"/>
        <pt x="469" y="413" on="0"/>
        <pt x="526" y="387" on="0"/>
        <pt x="545" y="356" on="1"/>
        <pt x="574" y="313" on="0"/>
        <pt x="574" y="219" on="1"/>
        <pt x="574" y="121" on="0"/>
        <pt x="512" y="22" on="0"/>
        <pt x="408" y="-8" on="0"/>
        <pt x="325" y="-8" on="1"/>
      </contour>
    </TTGlyph>
    <TTGlyph name="Sacute" xMin="46" yMin="-8" xMax="574" yMax="888">
      <component glyphName="S" x="0" y="0" flags="0x0"/>
      <component glyphName="acutecomb.case" x="513" y="0" flags="0x0"/>
    </TTGlyph>
    <TTGlyph name="Sacute.loclPLK" xMin="46" yMin="-8" xMax="574" yMax="888">
      <component glyphName="S" x="0" y="0" flags="0x0"/>
      <component glyphName="acute.case.loclPLK" x="227" y="0" flags="0x0"/>
    </TTGlyph>
    <TTGlyph name="Scaron" xMin="46" yMin="-8" xMax="574" yMax="896">
      <component glyphName="S" x="0" y="0" flags="0x0"/>
      <component glyphName="caron" x="124" y="153" flags="0x4"/>
    </TTGlyph>
    <TTGlyph name="Scedilla" xMin="46" yMin="-190" xMax="574" yMax="696">
      <contour>
        <pt x="574" y="129" on="0"/>
        <pt x="522" y="32" on="0"/>
        <pt x="431" y="-5" on="0"/>
        <pt x="362" y="-7" on="1"/>
        <pt x="328" y="-190" on="1"/>
        <pt x="182" y="-190" on="1"/>
        <pt x="182" y="-185" on="1"/>
        <pt x="252" y="-7" on="1"/>
        <pt x="157" y="-4" on="0"/>
        <pt x="66" y="9" on="1"/>
        <pt x="66" y="145" on="1"/>
        <pt x="188" y="133" on="0"/>
        <pt x="272" y="133" on="1"/>
        <pt x="321" y="133" on="0"/>
        <pt x="373" y="141" on="0"/>
        <pt x="384" y="150" on="1"/>
        <pt x="394" y="158" on="0"/>
        <pt x="399" y="181" on="0"/>
        <pt x="399" y="202" on="1"/>
        <pt x="399" y="227" on="0"/>
        <pt x="391" y="249" on="0"/>
        <pt x="367" y="258" on="0"/>
        <pt x="337" y="262" on="1"/>
        <pt x="210" y="278" on="1"/>
        <pt x="142" y="286" on="0"/>
        <pt x="71" y="339" on="0"/>
        <pt x="46" y="423" on="0"/>
        <pt x="46" y="486" on="1"/>
        <pt x="46" y="575" on="0"/>
        <pt x="112" y="667" on="0"/>
        <pt x="223" y="696" on="0"/>
        <pt x="309" y="696" on="1"/>
        <pt x="372" y="696" on="0"/>
        <pt x="477" y="686" on="0"/>
        <pt x="539" y="675" on="1"/>
        <pt x="539" y="542" on="1"/>
        <pt x="420" y="555" on="0"/>
        <pt x="344" y="555" on="1"/>
        <pt x="264" y="555" on="0"/>
        <pt x="240" y="543" on="1"/>
        <pt x="227" y="537" on="0"/>
        <pt x="220" y="515" on="0"/>
        <pt x="220" y="495" on="1"/>
        <pt x="220" y="470" on="0"/>
        <pt x="227" y="449" on="0"/>
        <pt x="250" y="440" on="0"/>
        <pt x="279" y="436" on="1"/>
        <pt x="425" y="418" on="1"/>
        <pt x="469" y="413" on="0"/>
        <pt x="526" y="387" on="0"/>
        <pt x="545" y="356" on="1"/>
        <pt x="574" y="313" on="0"/>
        <pt x="574" y="219" on="1"/>
      </contour>
    </TTGlyph>
    <TTGlyph name="Scircumflex" xMin="46" yMin="-8" xMax="574" yMax="888">
      <component glyphName="S" x="0" y="0" flags="0x0"/>
      <component glyphName="uni0302.case" x="498" y="0" flags="0x0"/>
    </TTGlyph>
    <TTGlyph name="Scommaaccent" xMin="46" yMin="-289" xMax="574" yMax="696">
      <component glyphName="S" x="0" y="0" flags="0x0"/>
      <component glyphName="uni0326" x="458" y="0" flags="0x0"/>
    </TTGlyph>
    <TTGlyph name="T" xMin="16" yMin="0" xMax="571" yMax="688">
      <contour>
        <pt x="206" y="540" on="1"/>
        <pt x="16" y="540" on="1"/>
        <pt x="16" y="688" on="1"/>
        <pt x="571" y="688" on="1"/>
        <pt x="571" y="540" on="1"/>
        <pt x="380" y="540" on="1"/>
        <pt x="380" y="0" on="1"/>
        <pt x="206" y="0" on="1"/>
      </contour>
    </TTGlyph>
    <TTGlyph name="Tbar" xMin="16" yMin="0" xMax="571" yMax="688">
      <contour>
        <pt x="380" y="540" on="1"/>
        <pt x="380" y="380" on="1"/>
        <pt x="546" y="380" on="1"/>
        <pt x="546" y="262" on="1"/>
        <pt x="380" y="262" on="1"/>
        <pt x="380" y="0" on="1"/>
        <pt x="206" y="0" on="1"/>
        <pt x="206" y="262" on="1"/>
        <pt x="38" y="262" on="1"/>
        <pt x="38" y="380" on="1"/>
        <pt x="206" y="380" on="1"/>
        <pt x="206" y="540" on="1"/>
        <pt x="16" y="540" on="1"/>
        <pt x="16" y="688" on="1"/>
        <pt x="571" y="688" on="1"/>
        <pt x="571" y="540" on="1"/>
      </contour>
    </TTGlyph>
    <TTGlyph name="Tcaron" xMin="16" yMin="0" xMax="571" yMax="888">
      <component glyphName="T" x="0" y="0" flags="0x0"/>
      <component glyphName="uni030C.case" x="481" y="0" flags="0x0"/>
    </TTGlyph>
    <TTGlyph name="Thorn" xMin="73" yMin="0" xMax="617" yMax="688">
      <contour>
        <pt x="73" y="688" on="1"/>
        <pt x="247" y="688" on="1"/>
        <pt x="247" y="585" on="1"/>
        <pt x="400" y="585" on="1"/>
        <pt x="492" y="585" on="0"/>
        <pt x="586" y="531" on="0"/>
        <pt x="617" y="432" on="0"/>
        <pt x="617" y="351" on="1"/>
        <pt x="617" y="274" on="0"/>
        <pt x="588" y="176" on="0"/>
        <pt x="493" y="118" on="0"/>
        <pt x="400" y="118" on="1"/>
        <pt x="247" y="118" on="1"/>
        <pt x="247" y="0" on="1"/>
        <pt x="73" y="0" on="1"/>
      </contour>
      <contour>
        <pt x="328" y="257" on="1"/>
        <pt x="381" y="257" on="0"/>
        <pt x="427" y="270" on="0"/>
        <pt x="441" y="307" on="0"/>
        <pt x="441" y="351" on="1"/>
        <pt x="441" y="395" on="0"/>
        <pt x="427" y="431" on="0"/>
        <pt x="382" y="444" on="0"/>
        <pt x="328" y="444" on="1"/>
        <pt x="247" y="444" on="1"/>
        <pt x="247" y="257" on="1"/>
      </contour>
    </TTGlyph>
    <TTGlyph name="U" xMin="67" yMin="-8" xMax="619" yMax="688">
      <contour>
        <pt x="619" y="688" on="1"/>
        <pt x="619" y="311" on="1"/>
        <pt x="619" y="173" on="0"/>
        <pt x="586" y="46" on="0"/>
        <pt x="472" y="-8" on="0"/>
        <pt x="343" y="-8" on="1"/>
        <pt x="214" y="-8" on="0"/>
        <pt x="100" y="46" on="0"/>
        <pt x="67" y="173" on="0"/>
        <pt x="67" y="311" on="1"/>
        <pt x="67" y="688" on="1"/>
        <pt x="241" y="688" on="1"/>
        <pt x="241" y="274" on="1"/>
        <pt x="241" y="203" on="0"/>
        <pt x="251" y="149" on="0"/>
        <pt x="291" y="131" on="0"/>
        <pt x="343" y="131" on="1"/>
        <pt x="395" y="131" on="0"/>
        <pt x="435" y="149" on="0"/>
        <pt x="445" y="203" on="0"/>
        <pt x="445" y="274" on="1"/>
        <pt x="445" y="688" on="1"/>
      </contour>
    </TTGlyph>
    <TTGlyph name="Uacute" xMin="67" yMin="-8" xMax="619" yMax="896">
      <component glyphName="U" x="0" y="0" flags="0x0"/>
      <component glyphName="acute" x="264" y="153" flags="0x4"/>
    </TTGlyph>
    <TTGlyph name="Ubreve" xMin="67" yMin="-8" xMax="619" yMax="888">
      <component glyphName="U" x="0" y="0" flags="0x0"/>
      <component glyphName="uni0306.case" x="516" y="0" flags="0x0"/>
    </TTGlyph>
    <TTGlyph name="Ucircumflex" xMin="67" yMin="-8" xMax="619" yMax="896">
      <component glyphName="U" x="0" y="0" flags="0x0"/>
      <component glyphName="circumflex" x="157" y="153" flags="0x4"/>
    </TTGlyph>
    <TTGlyph name="Udieresis" xMin="67" yMin="-8" xMax="619" yMax="888">
      <component glyphName="U" x="0" y="0" flags="0x0"/>
      <component glyphName="dieresis" x="157" y="158" flags="0x4"/>
    </TTGlyph>
    <TTGlyph name="Ugrave" xMin="67" yMin="-8" xMax="619" yMax="896">
      <component glyphName="U" x="0" y="0" flags="0x0"/>
      <component glyphName="grave" x="147" y="153" flags="0x4"/>
    </TTGlyph>
    <TTGlyph name="Uhorn" xMin="67" yMin="-8" xMax="711" yMax="778">
      <contour>
        <pt x="711" y="778" on="1"/>
        <pt x="711" y="761" on="1"/>
        <pt x="711" y="717" on="0"/>
        <pt x="697" y="666" on="0"/>
        <pt x="658" y="637" on="0"/>
        <pt x="619" y="631" on="1"/>
        <pt x="619" y="311" on="1"/>
        <pt x="619" y="173" on="0"/>
        <pt x="586" y="46" on="0"/>
        <pt x="472" y="-8" on="0"/>
        <pt x="343" y="-8" on="1"/>
        <pt x="214" y="-8" on="0"/>
        <pt x="100" y="46" on="0"/>
        <pt x="67" y="173" on="0"/>
        <pt x="67" y="311" on="1"/>
        <pt x="67" y="688" on="1"/>
        <pt x="241" y="688" on="1"/>
        <pt x="241" y="274" on="1"/>
        <pt x="241" y="203" on="0"/>
        <pt x="251" y="149" on="0"/>
        <pt x="291" y="131" on="0"/>
        <pt x="343" y="131" on="1"/>
        <pt x="395" y="131" on="0"/>
        <pt x="435" y="149" on="0"/>
        <pt x="445" y="203" on="0"/>
        <pt x="445" y="274" on="1"/>
        <pt x="445" y="688" on="1"/>
        <pt x="542" y="688" on="1"/>
        <pt x="571" y="688" on="0"/>
        <pt x="597" y="700" on="0"/>
        <pt x="606" y="726" on="0"/>
        <pt x="606" y="753" on="1"/>
        <pt x="606" y="778" on="1"/>
      </contour>
    </TTGlyph>
    <TTGlyph name="Uhungarumlaut" xMin="67" yMin="-8" xMax="619" yMax="877">
      <component glyphName="U" x="0" y="0" flags="0x0"/>
      <component glyphName="uni030B.case" x="616" y="0" flags="0x0"/>
    </TTGlyph>
    <TTGlyph name="Umacron" xMin="67" yMin="-8" xMax="619" yMax="888">
      <component glyphName="U" x="0" y="0" flags="0x0"/>
      <component glyphName="uni0304.case" x="531" y="0" flags="0x0"/>
    </TTGlyph>
    <TTGlyph name="Uogonek" xMin="67" yMin="-196" xMax="619" yMax="688">
      <contour>
        <pt x="619" y="688" on="1"/>
        <pt x="619" y="311" on="1"/>
        <pt x="619" y="218" on="0"/>
        <pt x="608" y="110" on="0"/>
        <pt x="570" y="38" on="0"/>
        <pt x="531" y="19" on="1"/>
        <pt x="494" y="1" on="0"/>
        <pt x="452" y="-43" on="0"/>
        <pt x="452" y="-77" on="1"/>
        <pt x="452" y="-94" on="0"/>
        <pt x="472" y="-111" on="0"/>
        <pt x="498" y="-111" on="1"/>
        <pt x="509" y="-111" on="0"/>
        <pt x="515" y="-110" on="1"/>
        <pt x="515" y="-193" on="1"/>
        <pt x="489" y="-194" on="1"/>
        <pt x="459" y="-196" on="0"/>
        <pt x="447" y="-196" on="1"/>
        <pt x="321" y="-196" on="0"/>
        <pt x="321" y="-111" on="1"/>
        <pt x="321" y="-60" on="0"/>
        <pt x="371" y="-8" on="1"/>
        <pt x="342" y="-8" on="1"/>
        <pt x="214" y="-8" on="0"/>
        <pt x="100" y="46" on="0"/>
        <pt x="67" y="173" on="0"/>
        <pt x="67" y="311" on="1"/>
        <pt x="67" y="688" on="1"/>
        <pt x="241" y="688" on="1"/>
        <pt x="241" y="274" on="1"/>
        <pt x="241" y="203" on="0"/>
        <pt x="251" y="149" on="0"/>
        <pt x="291" y="131" on="0"/>
        <pt x="343" y="131" on="1"/>
        <pt x="395" y="131" on="0"/>
        <pt x="435" y="149" on="0"/>
        <pt x="445" y="203" on="0"/>
        <pt x="445" y="274" on="1"/>
        <pt x="445" y="688" on="1"/>
      </contour>
    </TTGlyph>
    <TTGlyph name="Uring" xMin="67" yMin="-8" xMax="619" yMax="946">
      <component glyphName="U" x="0" y="0" flags="0x0"/>
      <component glyphName="uni030A.case" x="509" y="0" flags="0x0"/>
    </TTGlyph>
    <TTGlyph name="Utilde" xMin="67" yMin="-8" xMax="619" yMax="888">
      <component glyphName="U" x="0" y="0" flags="0x0"/>
      <component glyphName="tildecomb.case" x="558" y="0" flags="0x0"/>
    </TTGlyph>
    <TTGlyph name="V" xMin="10" yMin="0" xMax="650" yMax="688">
      <contour>
        <pt x="10" y="688" on="1"/>
        <pt x="188" y="688" on="1"/>
        <pt x="328" y="193" on="1"/>
        <pt x="336" y="193" on="1"/>
        <pt x="475" y="688" on="1"/>
        <pt x="650" y="688" on="1"/>
        <pt x="445" y="0" on="1"/>
        <pt x="214" y="0" on="1"/>
      </contour>
    </TTGlyph>
    <TTGlyph name="W" xMin="15" yMin="0" xMax="982" yMax="688">
      <contour>
        <pt x="502" y="413" on="1"/>
        <pt x="496" y="413" on="1"/>
        <pt x="393" y="0" on="1"/>
        <pt x="173" y="0" on="1"/>
        <pt x="15" y="688" on="1"/>
        <pt x="189" y="688" on="1"/>
        <pt x="292" y="206" on="1"/>
        <pt x="297" y="206" on="1"/>
        <pt x="412" y="688" on="1"/>
        <pt x="590" y="688" on="1"/>
        <pt x="707" y="206" on="1"/>
        <pt x="713" y="206" on="1"/>
        <pt x="809" y="688" on="1"/>
        <pt x="982" y="688" on="1"/>
        <pt x="824" y="0" on="1"/>
        <pt x="605" y="0" on="1"/>
      </contour>
    </TTGlyph>
    <TTGlyph name="Wacute" xMin="15" yMin="0" xMax="982" yMax="888">
      <component glyphName="W" x="0" y="0" flags="0x0"/>
      <component glyphName="acutecomb.case" x="690" y="0" flags="0x0"/>
    </TTGlyph>
    <TTGlyph name="Wcircumflex" xMin="15" yMin="0" xMax="982" yMax="888">
      <component glyphName="W" x="0" y="0" flags="0x0"/>
      <component glyphName="uni0302.case" x="675" y="0" flags="0x0"/>
    </TTGlyph>
    <TTGlyph name="Wdieresis" xMin="15" yMin="0" xMax="982" yMax="875">
      <component glyphName="W" x="0" y="0" flags="0x0"/>
      <component glyphName="uni0308.case" x="673" y="0" flags="0x0"/>
    </TTGlyph>
    <TTGlyph name="Wgrave" xMin="15" yMin="0" xMax="982" yMax="888">
      <component glyphName="W" x="0" y="0" flags="0x0"/>
      <component glyphName="gravecomb.case" x="571" y="0" flags="0x0"/>
    </TTGlyph>
    <TTGlyph name="X" xMin="13" yMin="0" xMax="671" yMax="688">
      <contour>
        <pt x="343" y="209" on="1"/>
        <pt x="334" y="209" on="1"/>
        <pt x="203" y="0" on="1"/>
        <pt x="13" y="0" on="1"/>
        <pt x="234" y="346" on="1"/>
        <pt x="17" y="688" on="1"/>
        <pt x="215" y="688" on="1"/>
        <pt x="341" y="484" on="1"/>
        <pt x="349" y="484" on="1"/>
        <pt x="477" y="688" on="1"/>
        <pt x="668" y="688" on="1"/>
        <pt x="451" y="349" on="1"/>
        <pt x="671" y="0" on="1"/>
        <pt x="473" y="0" on="1"/>
      </contour>
    </TTGlyph>
    <TTGlyph name="Y" xMin="1" yMin="0" xMax="633" yMax="688">
      <contour>
        <pt x="230" y="234" on="1"/>
        <pt x="1" y="688" on="1"/>
        <pt x="181" y="688" on="1"/>
        <pt x="316" y="404" on="1"/>
        <pt x="323" y="404" on="1"/>
        <pt x="457" y="688" on="1"/>
        <pt x="633" y="688" on="1"/>
        <pt x="404" y="234" on="1"/>
        <pt x="404" y="0" on="1"/>
        <pt x="230" y="0" on="1"/>
      </contour>
    </TTGlyph>
    <TTGlyph name="Y.loclGUA" xMin="42" yMin="0" xMax="594" yMax="688">
      <contour>
        <pt x="594" y="688" on="1"/>
        <pt x="594" y="511" on="1"/>
        <pt x="594" y="390" on="0"/>
        <pt x="571" y="268" on="0"/>
        <pt x="492" y="204" on="0"/>
        <pt x="406" y="196" on="1"/>
        <pt x="406" y="0" on="1"/>
        <pt x="232" y="0" on="1"/>
        <pt x="232" y="196" on="1"/>
        <pt x="146" y="204" on="0"/>
        <pt x="66" y="268" on="0"/>
        <pt x="42" y="389" on="0"/>
        <pt x="42" y="511" on="1"/>
        <pt x="42" y="688" on="1"/>
        <pt x="216" y="688" on="1"/>
        <pt x="216" y="474" on="1"/>
        <pt x="216" y="403" on="0"/>
        <pt x="226" y="349" on="0"/>
        <pt x="266" y="331" on="0"/>
        <pt x="318" y="331" on="1"/>
        <pt x="370" y="331" on="0"/>
        <pt x="410" y="349" on="0"/>
        <pt x="420" y="403" on="0"/>
        <pt x="420" y="474" on="1"/>
        <pt x="420" y="688" on="1"/>
      </contour>
    </TTGlyph>
    <TTGlyph name="Yacute" xMin="1" yMin="0" xMax="633" yMax="896">
      <component glyphName="Y" x="0" y="0" flags="0x0"/>
      <component glyphName="acute" x="244" y="153" flags="0x4"/>
    </TTGlyph>
    <TTGlyph name="Yacute.loclGUA" xMin="42" yMin="0" xMax="594" yMax="888">
      <component glyphName="Y.loclGUA" x="0" y="0" flags="0x0"/>
      <component glyphName="acutecomb.case" x="520" y="0" flags="0x0"/>
    </TTGlyph>
    <TTGlyph name="Ycircumflex" xMin="1" yMin="0" xMax="633" yMax="888">
      <component glyphName="Y" x="0" y="0" flags="0x0"/>
      <component glyphName="uni0302.case" x="505" y="0" flags="0x0"/>
    </TTGlyph>
    <TTGlyph name="Ycircumflex.loclGUA" xMin="42" yMin="0" xMax="594" yMax="888">
      <component glyphName="Y.loclGUA" x="0" y="0" flags="0x0"/>
      <component glyphName="uni0302.case" x="505" y="0" flags="0x0"/>
    </TTGlyph>
    <TTGlyph name="Ydieresis" xMin="1" yMin="0" xMax="633" yMax="888">
      <component glyphName="Y" x="0" y="0" flags="0x0"/>
      <component glyphName="dieresis" x="135" y="158" flags="0x4"/>
    </TTGlyph>
    <TTGlyph name="Ydieresis.loclGUA" xMin="42" yMin="0" xMax="594" yMax="875">
      <component glyphName="Y.loclGUA" x="0" y="0" flags="0x0"/>
      <component glyphName="uni0308.case" x="503" y="0" flags="0x0"/>
    </TTGlyph>
    <TTGlyph name="Ygrave" xMin="1" yMin="0" xMax="633" yMax="888">
      <component glyphName="Y" x="0" y="0" flags="0x0"/>
      <component glyphName="gravecomb.case" x="401" y="0" flags="0x0"/>
    </TTGlyph>
    <TTGlyph name="Ygrave.loclGUA" xMin="42" yMin="0" xMax="594" yMax="888">
      <component glyphName="Y.loclGUA" x="0" y="0" flags="0x0"/>
      <component glyphName="gravecomb.case" x="401" y="0" flags="0x0"/>
    </TTGlyph>
    <TTGlyph name="Z" xMin="43" yMin="0" xMax="576" yMax="688">
      <contour>
        <pt x="43" y="136" on="1"/>
        <pt x="358" y="547" on="1"/>
        <pt x="55" y="547" on="1"/>
        <pt x="55" y="688" on="1"/>
        <pt x="575" y="688" on="1"/>
        <pt x="575" y="557" on="1"/>
        <pt x="257" y="141" on="1"/>
        <pt x="576" y="141" on="1"/>
        <pt x="576" y="0" on="1"/>
        <pt x="43" y="0" on="1"/>
      </contour>
    </TTGlyph>
    <TTGlyph name="Zacute" xMin="43" yMin="0" xMax="576" yMax="888">
      <component glyphName="Z" x="0" y="0" flags="0x0"/>
      <component glyphName="acutecomb.case" x="513" y="0" flags="0x0"/>
    </TTGlyph>
    <TTGlyph name="Zacute.loclPLK" xMin="43" yMin="0" xMax="576" yMax="888">
      <component glyphName="Z" x="0" y="0" flags="0x0"/>
      <component glyphName="acute.case.loclPLK" x="227" y="0" flags="0x0"/>
    </TTGlyph>
    <TTGlyph name="Zcaron" xMin="43" yMin="0" xMax="576" yMax="897">
      <component glyphName="Z" x="0" y="0" flags="0x0"/>
      <component glyphName="caron" x="126" y="154" flags="0x4"/>
    </TTGlyph>
    <TTGlyph name="Zdotaccent" xMin="43" yMin="0" xMax="576" yMax="875">
      <component glyphName="Z" x="0" y="0" flags="0x0"/>
      <component glyphName="uni0307.case" x="395" y="0" flags="0x0"/>
    </TTGlyph>
    <TTGlyph name="a" xMin="38" yMin="-8" xMax="502" yMax="518">
      <contour>
        <pt x="110" y="-8" on="0"/>
        <pt x="38" y="64" on="0"/>
        <pt x="38" y="146" on="1"/>
        <pt x="38" y="206" on="0"/>
        <pt x="66" y="272" on="0"/>
        <pt x="135" y="302" on="0"/>
        <pt x="200" y="302" on="1"/>
        <pt x="249" y="302" on="0"/>
        <pt x="341" y="298" on="1"/>
        <pt x="341" y="316" on="1"/>
        <pt x="341" y="354" on="0"/>
        <pt x="324" y="385" on="0"/>
        <pt x="277" y="393" on="0"/>
        <pt x="217" y="393" on="1"/>
        <pt x="142" y="393" on="0"/>
        <pt x="68" y="385" on="1"/>
        <pt x="68" y="501" on="1"/>
        <pt x="162" y="518" on="0"/>
        <pt x="268" y="518" on="1"/>
        <pt x="373" y="518" on="0"/>
        <pt x="472" y="474" on="0"/>
        <pt x="502" y="388" on="0"/>
        <pt x="502" y="307" on="1"/>
        <pt x="502" y="0" on="1"/>
        <pt x="348" y="0" on="1"/>
        <pt x="344" y="59" on="1"/>
        <pt x="336" y="59" on="1"/>
        <pt x="310" y="18" on="0"/>
        <pt x="236" y="-8" on="0"/>
        <pt x="185" y="-8" on="1"/>
      </contour>
      <contour>
        <pt x="289" y="109" on="0"/>
        <pt x="321" y="121" on="0"/>
        <pt x="330" y="136" on="1"/>
        <pt x="341" y="155" on="0"/>
        <pt x="341" y="198" on="1"/>
        <pt x="341" y="218" on="1"/>
        <pt x="250" y="218" on="1"/>
        <pt x="223" y="218" on="0"/>
        <pt x="199" y="210" on="0"/>
        <pt x="190" y="187" on="0"/>
        <pt x="190" y="161" on="1"/>
        <pt x="190" y="139" on="0"/>
        <pt x="200" y="117" on="0"/>
        <pt x="229" y="109" on="0"/>
        <pt x="261" y="109" on="1"/>
      </contour>
    </TTGlyph>
    <TTGlyph name="aacute" xMin="38" yMin="-8" xMax="502" yMax="743">
      <component glyphName="a" x="0" y="0" flags="0x0"/>
      <component glyphName="acute" x="198" y="0" flags="0x0"/>
    </TTGlyph>
    <TTGlyph name="abreve" xMin="38" yMin="-8" xMax="502" yMax="743">
      <component glyphName="a" x="0" y="0" flags="0x0"/>
      <component glyphName="uni0306" x="454" y="0" flags="0x0"/>
    </TTGlyph>
    <TTGlyph name="acircumflex" xMin="38" yMin="-8" xMax="502" yMax="743">
      <component glyphName="a" x="0" y="0" flags="0x0"/>
      <component glyphName="circumflex" x="96" y="0" flags="0x0"/>
    </TTGlyph>
    <TTGlyph name="acute" xMin="20" yMin="597" xMax="266" yMax="743">
      <contour>
        <pt x="20" y="602" on="1"/>
        <pt x="111" y="743" on="1"/>
        <pt x="266" y="743" on="1"/>
        <pt x="266" y="738" on="1"/>
        <pt x="134" y="597" on="1"/>
        <pt x="20" y="597" on="1"/>
      </contour>
    </TTGlyph>
    <TTGlyph name="acute.case.loclPLK" xMin="20" yMin="742" xMax="221" yMax="888">
      <contour>
        <pt x="20" y="747" on="1"/>
        <pt x="65" y="888" on="1"/>
        <pt x="221" y="888" on="1"/>
        <pt x="221" y="883" on="1"/>
        <pt x="134" y="742" on="1"/>
        <pt x="20" y="742" on="1"/>
      </contour>
    </TTGlyph>
    <TTGlyph name="acute.loclPLK" xMin="20" yMin="597" xMax="221" yMax="743">
      <contour>
        <pt x="20" y="602" on="1"/>
        <pt x="65" y="743" on="1"/>
        <pt x="221" y="743" on="1"/>
        <pt x="221" y="738" on="1"/>
        <pt x="134" y="597" on="1"/>
        <pt x="20" y="597" on="1"/>
      </contour>
    </TTGlyph>
    <TTGlyph name="acutecomb" xMin="-266" yMin="597" xMax="-20" yMax="743">
      <contour>
        <pt x="-266" y="602" on="1"/>
        <pt x="-175" y="743" on="1"/>
        <pt x="-20" y="743" on="1"/>
        <pt x="-20" y="738" on="1"/>
        <pt x="-152" y="597" on="1"/>
        <pt x="-266" y="597" on="1"/>
      </contour>
    </TTGlyph>
    <TTGlyph name="acutecomb.case" xMin="-266" yMin="742" xMax="-20" yMax="888">
      <contour>
        <pt x="-266" y="747" on="1"/>
        <pt x="-175" y="888" on="1"/>
        <pt x="-20" y="888" on="1"/>
        <pt x="-20" y="883" on="1"/>
        <pt x="-152" y="742" on="1"/>
        <pt x="-266" y="742" on="1"/>
      </contour>
    </TTGlyph>
    <TTGlyph name="adieresis" xMin="38" yMin="-8" xMax="502" yMax="730">
      <component glyphName="a" x="0" y="0" flags="0x0"/>
      <component glyphName="dieresis" x="97" y="0" flags="0x0"/>
    </TTGlyph>
    <TTGlyph name="ae" xMin="38" yMin="-8" xMax="808" yMax="518">
      <contour>
        <pt x="808" y="216" on="1"/>
        <pt x="503" y="216" on="1"/>
        <pt x="503" y="167" on="0"/>
        <pt x="518" y="130" on="0"/>
        <pt x="570" y="117" on="0"/>
        <pt x="636" y="117" on="1"/>
        <pt x="708" y="117" on="0"/>
        <pt x="788" y="125" on="1"/>
        <pt x="788" y="10" on="1"/>
        <pt x="757" y="2" on="0"/>
        <pt x="650" y="-8" on="0"/>
        <pt x="598" y="-8" on="1"/>
        <pt x="522" y="-8" on="0"/>
        <pt x="429" y="15" on="0"/>
        <pt x="403" y="41" on="1"/>
        <pt x="369" y="11" on="0"/>
        <pt x="279" y="-8" on="0"/>
        <pt x="218" y="-8" on="1"/>
        <pt x="150" y="-8" on="0"/>
        <pt x="72" y="22" on="0"/>
        <pt x="38" y="89" on="0"/>
        <pt x="38" y="146" on="1"/>
        <pt x="38" y="206" on="0"/>
        <pt x="66" y="272" on="0"/>
        <pt x="135" y="302" on="0"/>
        <pt x="200" y="302" on="1"/>
        <pt x="232" y="302" on="0"/>
        <pt x="316" y="299" on="0"/>
        <pt x="341" y="298" on="1"/>
        <pt x="341" y="316" on="1"/>
        <pt x="341" y="354" on="0"/>
        <pt x="324" y="385" on="0"/>
        <pt x="277" y="393" on="0"/>
        <pt x="217" y="393" on="1"/>
        <pt x="186" y="393" on="0"/>
        <pt x="96" y="388" on="0"/>
        <pt x="68" y="385" on="1"/>
        <pt x="68" y="501" on="1"/>
        <pt x="164" y="518" on="0"/>
        <pt x="260" y="518" on="1"/>
        <pt x="373" y="518" on="0"/>
        <pt x="427" y="476" on="1"/>
        <pt x="481" y="518" on="0"/>
        <pt x="591" y="518" on="1"/>
        <pt x="695" y="518" on="0"/>
        <pt x="786" y="467" on="0"/>
        <pt x="808" y="366" on="0"/>
        <pt x="808" y="254" on="1"/>
      </contour>
      <contour>
        <pt x="546" y="401" on="0"/>
        <pt x="514" y="387" on="0"/>
        <pt x="504" y="346" on="0"/>
        <pt x="503" y="298" on="1"/>
        <pt x="657" y="298" on="1"/>
        <pt x="657" y="346" on="0"/>
        <pt x="645" y="388" on="0"/>
        <pt x="615" y="401" on="0"/>
        <pt x="582" y="401" on="1"/>
      </contour>
      <contour>
        <pt x="341" y="217" on="1"/>
        <pt x="250" y="217" on="1"/>
        <pt x="223" y="217" on="0"/>
        <pt x="199" y="210" on="0"/>
        <pt x="190" y="187" on="0"/>
        <pt x="190" y="161" on="1"/>
        <pt x="190" y="139" on="0"/>
        <pt x="200" y="117" on="0"/>
        <pt x="229" y="109" on="0"/>
        <pt x="261" y="109" on="1"/>
        <pt x="292" y="109" on="0"/>
        <pt x="327" y="126" on="0"/>
        <pt x="334" y="145" on="1"/>
        <pt x="341" y="166" on="0"/>
        <pt x="341" y="198" on="1"/>
      </contour>
    </TTGlyph>
    <TTGlyph name="aeacute" xMin="38" yMin="-8" xMax="808" yMax="743">
      <component glyphName="ae" x="0" y="0" flags="0x0"/>
      <component glyphName="acutecomb" x="632" y="0" flags="0x0"/>
    </TTGlyph>
    <TTGlyph name="agrave" xMin="38" yMin="-8" xMax="502" yMax="743">
      <component glyphName="a" x="0" y="0" flags="0x0"/>
      <component glyphName="grave" x="80" y="0" flags="0x0"/>
    </TTGlyph>
    <TTGlyph name="amacron" xMin="38" yMin="-8" xMax="502" yMax="743">
      <component glyphName="a" x="0" y="0" flags="0x0"/>
      <component glyphName="uni0304" x="469" y="0" flags="0x0"/>
    </TTGlyph>
    <TTGlyph name="ampersand" xMin="47" yMin="-8" xMax="711" yMax="696">
      <contour>
        <pt x="711" y="410" on="1"/>
        <pt x="711" y="284" on="1"/>
        <pt x="606" y="284" on="1"/>
        <pt x="606" y="15" on="1"/>
        <pt x="552" y="5" on="0"/>
        <pt x="413" y="-8" on="0"/>
        <pt x="359" y="-8" on="1"/>
        <pt x="230" y="-8" on="0"/>
        <pt x="93" y="41" on="0"/>
        <pt x="47" y="123" on="0"/>
        <pt x="47" y="184" on="1"/>
        <pt x="47" y="239" on="0"/>
        <pt x="74" y="304" on="0"/>
        <pt x="128" y="339" on="0"/>
        <pt x="171" y="349" on="1"/>
        <pt x="171" y="353" on="1"/>
        <pt x="110" y="368" on="0"/>
        <pt x="53" y="442" on="0"/>
        <pt x="53" y="515" on="1"/>
        <pt x="53" y="601" on="0"/>
        <pt x="185" y="696" on="0"/>
        <pt x="358" y="696" on="1"/>
        <pt x="412" y="696" on="0"/>
        <pt x="550" y="683" on="0"/>
        <pt x="602" y="673" on="1"/>
        <pt x="602" y="553" on="1"/>
        <pt x="554" y="559" on="0"/>
        <pt x="433" y="567" on="0"/>
        <pt x="388" y="567" on="1"/>
        <pt x="311" y="567" on="0"/>
        <pt x="242" y="554" on="0"/>
        <pt x="219" y="522" on="0"/>
        <pt x="219" y="487" on="1"/>
        <pt x="219" y="456" on="0"/>
        <pt x="231" y="424" on="0"/>
        <pt x="270" y="410" on="0"/>
        <pt x="312" y="410" on="1"/>
        <pt x="368" y="410" on="1"/>
        <pt x="368" y="284" on="1"/>
        <pt x="312" y="284" on="1"/>
        <pt x="268" y="284" on="0"/>
        <pt x="227" y="271" on="0"/>
        <pt x="213" y="237" on="0"/>
        <pt x="213" y="202" on="1"/>
        <pt x="213" y="166" on="0"/>
        <pt x="239" y="132" on="0"/>
        <pt x="300" y="120" on="0"/>
        <pt x="360" y="120" on="1"/>
        <pt x="402" y="120" on="0"/>
        <pt x="444" y="123" on="1"/>
        <pt x="444" y="410" on="1"/>
      </contour>
    </TTGlyph>
    <TTGlyph name="aogonek" xMin="38" yMin="-196" xMax="502" yMax="518">
      <contour>
        <pt x="477" y="-11" on="0"/>
        <pt x="438" y="-57" on="0"/>
        <pt x="438" y="-79" on="1"/>
        <pt x="438" y="-111" on="0"/>
        <pt x="484" y="-111" on="1"/>
        <pt x="496" y="-111" on="0"/>
        <pt x="502" y="-110" on="1"/>
        <pt x="502" y="-193" on="1"/>
        <pt x="476" y="-194" on="1"/>
        <pt x="446" y="-196" on="0"/>
        <pt x="434" y="-196" on="1"/>
        <pt x="308" y="-196" on="0"/>
        <pt x="308" y="-113" on="1"/>
        <pt x="308" y="-57" on="0"/>
        <pt x="370" y="0" on="1"/>
        <pt x="348" y="0" on="1"/>
        <pt x="344" y="59" on="1"/>
        <pt x="336" y="59" on="1"/>
        <pt x="310" y="18" on="0"/>
        <pt x="236" y="-8" on="0"/>
        <pt x="185" y="-8" on="1"/>
        <pt x="110" y="-8" on="0"/>
        <pt x="38" y="64" on="0"/>
        <pt x="38" y="146" on="1"/>
        <pt x="38" y="206" on="0"/>
        <pt x="66" y="272" on="0"/>
        <pt x="135" y="302" on="0"/>
        <pt x="200" y="302" on="1"/>
        <pt x="249" y="302" on="0"/>
        <pt x="341" y="298" on="1"/>
        <pt x="341" y="316" on="1"/>
        <pt x="341" y="354" on="0"/>
        <pt x="324" y="385" on="0"/>
        <pt x="277" y="393" on="0"/>
        <pt x="217" y="393" on="1"/>
        <pt x="187" y="393" on="0"/>
        <pt x="93" y="387" on="0"/>
        <pt x="68" y="385" on="1"/>
        <pt x="68" y="501" on="1"/>
        <pt x="162" y="518" on="0"/>
        <pt x="268" y="518" on="1"/>
        <pt x="373" y="518" on="0"/>
        <pt x="472" y="474" on="0"/>
        <pt x="502" y="388" on="0"/>
        <pt x="502" y="307" on="1"/>
        <pt x="502" y="0" on="1"/>
      </contour>
      <contour>
        <pt x="341" y="218" on="1"/>
        <pt x="250" y="218" on="1"/>
        <pt x="223" y="218" on="0"/>
        <pt x="199" y="210" on="0"/>
        <pt x="190" y="187" on="0"/>
        <pt x="190" y="161" on="1"/>
        <pt x="190" y="139" on="0"/>
        <pt x="200" y="117" on="0"/>
        <pt x="229" y="109" on="0"/>
        <pt x="261" y="109" on="1"/>
        <pt x="289" y="109" on="0"/>
        <pt x="321" y="121" on="0"/>
        <pt x="330" y="136" on="1"/>
        <pt x="341" y="155" on="0"/>
        <pt x="341" y="198" on="1"/>
      </contour>
    </TTGlyph>
    <TTGlyph name="approxequal" xMin="52" yMin="82" xMax="443" yMax="425">
      <contour>
        <pt x="52" y="324" on="0"/>
        <pt x="62" y="381" on="0"/>
        <pt x="102" y="413" on="0"/>
        <pt x="145" y="413" on="1"/>
        <pt x="171" y="413" on="0"/>
        <pt x="222" y="404" on="0"/>
        <pt x="263" y="395" on="1"/>
        <pt x="317" y="382" on="0"/>
        <pt x="338" y="382" on="1"/>
        <pt x="356" y="382" on="0"/>
        <pt x="363" y="398" on="0"/>
        <pt x="363" y="425" on="1"/>
        <pt x="443" y="425" on="1"/>
        <pt x="443" y="370" on="0"/>
        <pt x="433" y="313" on="0"/>
        <pt x="394" y="281" on="0"/>
        <pt x="351" y="281" on="1"/>
        <pt x="309" y="281" on="0"/>
        <pt x="233" y="300" on="1"/>
        <pt x="224" y="302" on="0"/>
        <pt x="173" y="313" on="0"/>
        <pt x="158" y="313" on="1"/>
        <pt x="141" y="313" on="0"/>
        <pt x="133" y="297" on="0"/>
        <pt x="133" y="270" on="1"/>
        <pt x="52" y="270" on="1"/>
      </contour>
      <contour>
        <pt x="52" y="136" on="0"/>
        <pt x="62" y="193" on="0"/>
        <pt x="102" y="225" on="0"/>
        <pt x="145" y="225" on="1"/>
        <pt x="171" y="225" on="0"/>
        <pt x="222" y="216" on="0"/>
        <pt x="263" y="207" on="1"/>
        <pt x="317" y="194" on="0"/>
        <pt x="338" y="194" on="1"/>
        <pt x="356" y="194" on="0"/>
        <pt x="363" y="210" on="0"/>
        <pt x="363" y="237" on="1"/>
        <pt x="443" y="237" on="1"/>
        <pt x="443" y="182" on="0"/>
        <pt x="433" y="125" on="0"/>
        <pt x="394" y="93" on="0"/>
        <pt x="351" y="93" on="1"/>
        <pt x="309" y="93" on="0"/>
        <pt x="233" y="112" on="1"/>
        <pt x="224" y="114" on="0"/>
        <pt x="173" y="125" on="0"/>
        <pt x="158" y="125" on="1"/>
        <pt x="141" y="125" on="0"/>
        <pt x="133" y="109" on="0"/>
        <pt x="133" y="82" on="1"/>
        <pt x="52" y="82" on="1"/>
      </contour>
    </TTGlyph>
    <TTGlyph name="aring" xMin="38" yMin="-8" xMax="502" yMax="817">
      <component glyphName="a" x="0" y="0" flags="0x0"/>
      <component glyphName="ring" x="119" y="-14" flags="0x4"/>
    </TTGlyph>
    <TTGlyph name="aringacute" xMin="38" yMin="-8" xMax="502" yMax="1004">
      <component glyphName="a" x="0" y="0" flags="0x0"/>
      <component glyphName="uni030A" x="447" y="0" flags="0x0"/>
      <component glyphName="acutecomb" x="488" y="261" flags="0x4"/>
    </TTGlyph>
    <TTGlyph name="arrowboth" xMin="55" yMin="162" xMax="828" yMax="447">
      <contour>
        <pt x="55" y="304" on="1"/>
        <pt x="340" y="447" on="1"/>
        <pt x="310" y="358" on="1"/>
        <pt x="573" y="358" on="1"/>
        <pt x="543" y="447" on="1"/>
        <pt x="828" y="304" on="1"/>
        <pt x="543" y="162" on="1"/>
        <pt x="573" y="251" on="1"/>
        <pt x="309" y="251" on="1"/>
        <pt x="340" y="162" on="1"/>
      </contour>
    </TTGlyph>
    <TTGlyph name="arrowdown" xMin="55" yMin="-85" xMax="340" yMax="688">
      <contour>
        <pt x="55" y="200" on="1"/>
        <pt x="146" y="170" on="1"/>
        <pt x="146" y="688" on="1"/>
        <pt x="251" y="688" on="1"/>
        <pt x="251" y="170" on="1"/>
        <pt x="340" y="200" on="1"/>
        <pt x="198" y="-85" on="1"/>
      </contour>
    </TTGlyph>
    <TTGlyph name="arrowdown.ss01" xMin="30" yMin="171" xMax="315" yMax="456">
      <contour>
        <pt x="30" y="456" on="1"/>
        <pt x="315" y="456" on="1"/>
        <pt x="173" y="171" on="1"/>
      </contour>
    </TTGlyph>
    <TTGlyph name="arrowleft" xMin="55" yMin="162" xMax="828" yMax="447">
      <contour>
        <pt x="340" y="162" on="1"/>
        <pt x="55" y="304" on="1"/>
        <pt x="340" y="447" on="1"/>
        <pt x="310" y="358" on="1"/>
        <pt x="828" y="358" on="1"/>
        <pt x="828" y="251" on="1"/>
        <pt x="309" y="251" on="1"/>
      </contour>
    </TTGlyph>
    <TTGlyph name="arrowleft.ss01" xMin="30" yMin="201" xMax="315" yMax="486">
      <contour>
        <pt x="30" y="343" on="1"/>
        <pt x="315" y="486" on="1"/>
        <pt x="315" y="201" on="1"/>
      </contour>
    </TTGlyph>
    <TTGlyph name="arrowright" xMin="55" yMin="162" xMax="828" yMax="447">
      <contour>
        <pt x="573" y="251" on="1"/>
        <pt x="55" y="251" on="1"/>
        <pt x="55" y="358" on="1"/>
        <pt x="573" y="358" on="1"/>
        <pt x="543" y="447" on="1"/>
        <pt x="828" y="304" on="1"/>
        <pt x="543" y="162" on="1"/>
      </contour>
    </TTGlyph>
    <TTGlyph name="arrowright.ss01" xMin="48" yMin="201" xMax="333" yMax="486">
      <contour>
        <pt x="48" y="486" on="1"/>
        <pt x="333" y="343" on="1"/>
        <pt x="48" y="201" on="1"/>
      </contour>
    </TTGlyph>
    <TTGlyph name="arrowup" xMin="55" yMin="-82" xMax="340" yMax="691">
      <contour>
        <pt x="146" y="436" on="1"/>
        <pt x="55" y="406" on="1"/>
        <pt x="198" y="691" on="1"/>
        <pt x="340" y="406" on="1"/>
        <pt x="251" y="436" on="1"/>
        <pt x="251" y="-82" on="1"/>
        <pt x="146" y="-82" on="1"/>
      </contour>
    </TTGlyph>
    <TTGlyph name="arrowup.ss01" xMin="30" yMin="231" xMax="315" yMax="516">
      <contour>
        <pt x="173" y="516" on="1"/>
        <pt x="315" y="231" on="1"/>
        <pt x="30" y="231" on="1"/>
      </contour>
    </TTGlyph>
    <TTGlyph name="arrowupdn" xMin="55" yMin="-85" xMax="340" yMax="696">
      <contour>
        <pt x="55" y="200" on="1"/>
        <pt x="146" y="170" on="1"/>
        <pt x="146" y="441" on="1"/>
        <pt x="55" y="411" on="1"/>
        <pt x="198" y="696" on="1"/>
        <pt x="340" y="411" on="1"/>
        <pt x="251" y="441" on="1"/>
        <pt x="251" y="170" on="1"/>
        <pt x="340" y="200" on="1"/>
        <pt x="198" y="-85" on="1"/>
      </contour>
    </TTGlyph>
    <TTGlyph name="arrowupdnbse" xMin="55" yMin="-210" xMax="340" yMax="696">
      <contour>
        <pt x="55" y="200" on="1"/>
        <pt x="146" y="170" on="1"/>
        <pt x="146" y="441" on="1"/>
        <pt x="55" y="411" on="1"/>
        <pt x="198" y="696" on="1"/>
        <pt x="340" y="411" on="1"/>
        <pt x="251" y="441" on="1"/>
        <pt x="251" y="170" on="1"/>
        <pt x="340" y="200" on="1"/>
        <pt x="198" y="-85" on="1"/>
      </contour>
      <contour>
        <pt x="55" y="-119" on="1"/>
        <pt x="340" y="-119" on="1"/>
        <pt x="340" y="-210" on="1"/>
        <pt x="55" y="-210" on="1"/>
      </contour>
    </TTGlyph>
    <TTGlyph name="asciicircum" xMin="17" yMin="443" xMax="416" yMax="749">
      <contour>
        <pt x="217" y="643" on="1"/>
        <pt x="132" y="443" on="1"/>
        <pt x="17" y="443" on="1"/>
        <pt x="159" y="749" on="1"/>
        <pt x="275" y="749" on="1"/>
        <pt x="416" y="443" on="1"/>
        <pt x="301" y="443" on="1"/>
      </contour>
    </TTGlyph>
    <TTGlyph name="asciitilde" xMin="52" yMin="226" xMax="443" yMax="381">
      <contour>
        <pt x="443" y="326" on="0"/>
        <pt x="433" y="269" on="0"/>
        <pt x="394" y="237" on="0"/>
        <pt x="351" y="237" on="1"/>
        <pt x="309" y="237" on="0"/>
        <pt x="233" y="256" on="1"/>
        <pt x="224" y="258" on="0"/>
        <pt x="173" y="269" on="0"/>
        <pt x="158" y="269" on="1"/>
        <pt x="141" y="269" on="0"/>
        <pt x="133" y="253" on="0"/>
        <pt x="133" y="226" on="1"/>
        <pt x="52" y="226" on="1"/>
        <pt x="52" y="281" on="0"/>
        <pt x="62" y="338" on="0"/>
        <pt x="102" y="370" on="0"/>
        <pt x="145" y="370" on="1"/>
        <pt x="187" y="370" on="0"/>
        <pt x="263" y="351" on="1"/>
        <pt x="273" y="349" on="0"/>
        <pt x="323" y="338" on="0"/>
        <pt x="338" y="338" on="1"/>
        <pt x="355" y="338" on="0"/>
        <pt x="363" y="354" on="0"/>
        <pt x="363" y="381" on="1"/>
        <pt x="443" y="381" on="1"/>
      </contour>
    </TTGlyph>
    <TTGlyph name="asterisk" xMin="43" yMin="319" xMax="406" yMax="688">
      <contour>
        <pt x="266" y="319" on="1"/>
        <pt x="183" y="319" on="1"/>
        <pt x="194" y="448" on="1"/>
        <pt x="85" y="373" on="1"/>
        <pt x="43" y="448" on="1"/>
        <pt x="162" y="503" on="1"/>
        <pt x="43" y="559" on="1"/>
        <pt x="85" y="634" on="1"/>
        <pt x="194" y="559" on="1"/>
        <pt x="183" y="688" on="1"/>
        <pt x="266" y="688" on="1"/>
        <pt x="255" y="560" on="1"/>
        <pt x="365" y="634" on="1"/>
        <pt x="406" y="559" on="1"/>
        <pt x="286" y="503" on="1"/>
        <pt x="406" y="448" on="1"/>
        <pt x="365" y="373" on="1"/>
        <pt x="256" y="448" on="1"/>
      </contour>
    </TTGlyph>
    <TTGlyph name="asterisk.ss02" xMin="35" yMin="-14" xMax="782" yMax="705">
      <contour>
        <pt x="269" y="262" on="1"/>
        <pt x="35" y="436" on="1"/>
        <pt x="322" y="436" on="1"/>
        <pt x="409" y="705" on="1"/>
        <pt x="494" y="436" on="1"/>
        <pt x="782" y="436" on="1"/>
        <pt x="550" y="262" on="1"/>
        <pt x="640" y="-14" on="1"/>
        <pt x="409" y="156" on="1"/>
        <pt x="178" y="-14" on="1"/>
      </contour>
    </TTGlyph>
    <TTGlyph name="at" xMin="73" yMin="-108" xMax="862" yMax="696">
      <contour>
        <pt x="272" y="-108" on="0"/>
        <pt x="115" y="-54" on="0"/>
        <pt x="73" y="99" on="0"/>
        <pt x="73" y="294" on="1"/>
        <pt x="73" y="490" on="0"/>
        <pt x="115" y="642" on="0"/>
        <pt x="271" y="696" on="0"/>
        <pt x="468" y="696" on="1"/>
        <pt x="664" y="696" on="0"/>
        <pt x="820" y="643" on="0"/>
        <pt x="862" y="490" on="0"/>
        <pt x="862" y="294" on="1"/>
        <pt x="862" y="187" on="0"/>
        <pt x="837" y="96" on="0"/>
        <pt x="786" y="75" on="0"/>
        <pt x="727" y="75" on="1"/>
        <pt x="536" y="75" on="1"/>
        <pt x="532" y="128" on="1"/>
        <pt x="524" y="128" on="1"/>
        <pt x="502" y="91" on="0"/>
        <pt x="441" y="68" on="0"/>
        <pt x="397" y="68" on="1"/>
        <pt x="331" y="68" on="0"/>
        <pt x="269" y="131" on="0"/>
        <pt x="269" y="200" on="1"/>
        <pt x="269" y="254" on="0"/>
        <pt x="292" y="309" on="0"/>
        <pt x="350" y="332" on="0"/>
        <pt x="406" y="332" on="1"/>
        <pt x="493" y="330" on="1"/>
        <pt x="530" y="329" on="1"/>
        <pt x="530" y="345" on="1"/>
        <pt x="530" y="378" on="0"/>
        <pt x="516" y="403" on="0"/>
        <pt x="476" y="410" on="0"/>
        <pt x="423" y="410" on="1"/>
        <pt x="372" y="410" on="0"/>
        <pt x="294" y="404" on="1"/>
        <pt x="294" y="504" on="1"/>
        <pt x="381" y="518" on="0"/>
        <pt x="469" y="518" on="1"/>
        <pt x="560" y="518" on="0"/>
        <pt x="646" y="481" on="0"/>
        <pt x="671" y="408" on="0"/>
        <pt x="671" y="338" on="1"/>
        <pt x="671" y="138" on="1"/>
        <pt x="736" y="138" on="1"/>
        <pt x="763" y="138" on="0"/>
        <pt x="785" y="153" on="0"/>
        <pt x="794" y="216" on="0"/>
        <pt x="794" y="294" on="1"/>
        <pt x="794" y="430" on="0"/>
        <pt x="781" y="550" on="0"/>
        <pt x="729" y="613" on="0"/>
        <pt x="667" y="624" on="1"/>
        <pt x="638" y="629" on="0"/>
        <pt x="552" y="632" on="0"/>
        <pt x="467" y="632" on="1"/>
        <pt x="409" y="632" on="0"/>
        <pt x="310" y="630" on="0"/>
        <pt x="282" y="626" on="1"/>
        <pt x="213" y="617" on="0"/>
        <pt x="155" y="556" on="0"/>
        <pt x="141" y="435" on="0"/>
        <pt x="141" y="294" on="1"/>
        <pt x="141" y="138" on="0"/>
        <pt x="160" y="14" on="0"/>
        <pt x="238" y="-38" on="0"/>
        <pt x="334" y="-43" on="1"/>
        <pt x="367" y="-45" on="0"/>
        <pt x="469" y="-45" on="1"/>
        <pt x="522" y="-45" on="0"/>
        <pt x="634" y="-43" on="0"/>
        <pt x="670" y="-41" on="1"/>
        <pt x="670" y="-106" on="1"/>
        <pt x="625" y="-108" on="0"/>
        <pt x="468" y="-108" on="1"/>
      </contour>
      <contour>
        <pt x="490" y="167" on="0"/>
        <pt x="520" y="180" on="0"/>
        <pt x="530" y="210" on="0"/>
        <pt x="530" y="238" on="1"/>
        <pt x="530" y="262" on="1"/>
        <pt x="450" y="262" on="1"/>
        <pt x="418" y="262" on="0"/>
        <pt x="401" y="245" on="0"/>
        <pt x="401" y="214" on="1"/>
        <pt x="401" y="194" on="0"/>
        <pt x="409" y="175" on="0"/>
        <pt x="434" y="167" on="0"/>
        <pt x="461" y="167" on="1"/>
      </contour>
    </TTGlyph>
    <TTGlyph name="atilde" xMin="38" yMin="-8" xMax="502" yMax="743">
      <component glyphName="a" x="0" y="0" flags="0x0"/>
      <component glyphName="tilde" x="67" y="0" flags="0x0"/>
    </TTGlyph>
    <TTGlyph name="b" xMin="61" yMin="-8" xMax="538" yMax="743">
      <contour>
        <pt x="321" y="-8" on="0"/>
        <pt x="248" y="21" on="0"/>
        <pt x="227" y="60" on="1"/>
        <pt x="218" y="60" on="1"/>
        <pt x="214" y="0" on="1"/>
        <pt x="61" y="0" on="1"/>
        <pt x="61" y="743" on="1"/>
        <pt x="222" y="743" on="1"/>
        <pt x="222" y="456" on="1"/>
        <pt x="230" y="456" on="1"/>
        <pt x="252" y="492" on="0"/>
        <pt x="321" y="517" on="0"/>
        <pt x="372" y="517" on="1"/>
        <pt x="434" y="517" on="0"/>
        <pt x="505" y="470" on="0"/>
        <pt x="538" y="356" on="0"/>
        <pt x="538" y="254" on="1"/>
        <pt x="538" y="151" on="0"/>
        <pt x="504" y="38" on="0"/>
        <pt x="433" y="-8" on="0"/>
        <pt x="371" y="-8" on="1"/>
      </contour>
      <contour>
        <pt x="338" y="128" on="0"/>
        <pt x="368" y="143" on="0"/>
        <pt x="377" y="192" on="0"/>
        <pt x="377" y="255" on="1"/>
        <pt x="377" y="318" on="0"/>
        <pt x="368" y="366" on="0"/>
        <pt x="338" y="381" on="0"/>
        <pt x="299" y="381" on="1"/>
        <pt x="271" y="381" on="0"/>
        <pt x="242" y="370" on="0"/>
        <pt x="234" y="355" on="1"/>
        <pt x="227" y="340" on="0"/>
        <pt x="222" y="294" on="0"/>
        <pt x="222" y="255" on="1"/>
        <pt x="222" y="216" on="0"/>
        <pt x="227" y="169" on="0"/>
        <pt x="234" y="155" on="1"/>
        <pt x="242" y="140" on="0"/>
        <pt x="271" y="128" on="0"/>
        <pt x="299" y="128" on="1"/>
      </contour>
    </TTGlyph>
    <TTGlyph name="backslash" xMin="-9" yMin="-55" xMax="416" yMax="743">
      <contour>
        <pt x="-9" y="743" on="1"/>
        <pt x="127" y="743" on="1"/>
        <pt x="416" y="-55" on="1"/>
        <pt x="280" y="-55" on="1"/>
      </contour>
    </TTGlyph>
    <TTGlyph name="bar" xMin="79" yMin="-161" xMax="217" yMax="743">
      <contour>
        <pt x="79" y="743" on="1"/>
        <pt x="217" y="743" on="1"/>
        <pt x="217" y="-161" on="1"/>
        <pt x="79" y="-161" on="1"/>
      </contour>
    </TTGlyph>
    <TTGlyph name="bar.ss02" xMin="-1" yMin="0" xMax="499" yMax="696">
      <contour>
        <pt x="-1" y="696" on="1"/>
        <pt x="499" y="696" on="1"/>
        <pt x="499" y="0" on="1"/>
        <pt x="-1" y="0" on="1"/>
      </contour>
    </TTGlyph>
    <TTGlyph name="braceleft" xMin="23" yMin="-150" xMax="344" yMax="743">
      <contour>
        <pt x="215" y="-139" on="0"/>
        <pt x="155" y="-84" on="0"/>
        <pt x="109" y="-4" on="0"/>
        <pt x="109" y="42" on="1"/>
        <pt x="109" y="153" on="1"/>
        <pt x="109" y="199" on="0"/>
        <pt x="73" y="256" on="0"/>
        <pt x="23" y="261" on="1"/>
        <pt x="23" y="331" on="1"/>
        <pt x="73" y="336" on="0"/>
        <pt x="109" y="394" on="0"/>
        <pt x="109" y="440" on="1"/>
        <pt x="109" y="551" on="1"/>
        <pt x="109" y="597" on="0"/>
        <pt x="155" y="677" on="0"/>
        <pt x="215" y="732" on="0"/>
        <pt x="238" y="743" on="1"/>
        <pt x="344" y="743" on="1"/>
        <pt x="252" y="647" on="0"/>
        <pt x="252" y="568" on="1"/>
        <pt x="252" y="445" on="1"/>
        <pt x="252" y="321" on="0"/>
        <pt x="133" y="300" on="1"/>
        <pt x="133" y="293" on="1"/>
        <pt x="252" y="272" on="0"/>
        <pt x="252" y="147" on="1"/>
        <pt x="252" y="25" on="1"/>
        <pt x="252" y="-54" on="0"/>
        <pt x="344" y="-150" on="1"/>
        <pt x="238" y="-150" on="1"/>
      </contour>
    </TTGlyph>
    <TTGlyph name="braceright" xMin="19" yMin="-150" xMax="340" yMax="743">
      <contour>
        <pt x="111" y="-54" on="0"/>
        <pt x="111" y="25" on="1"/>
        <pt x="111" y="147" on="1"/>
        <pt x="111" y="206" on="0"/>
        <pt x="169" y="282" on="0"/>
        <pt x="230" y="293" on="1"/>
        <pt x="230" y="300" on="1"/>
        <pt x="169" y="311" on="0"/>
        <pt x="111" y="386" on="0"/>
        <pt x="111" y="445" on="1"/>
        <pt x="111" y="568" on="1"/>
        <pt x="111" y="618" on="0"/>
        <pt x="51" y="711" on="0"/>
        <pt x="19" y="743" on="1"/>
        <pt x="125" y="743" on="1"/>
        <pt x="148" y="731" on="0"/>
        <pt x="209" y="677" on="0"/>
        <pt x="255" y="597" on="0"/>
        <pt x="255" y="551" on="1"/>
        <pt x="255" y="440" on="1"/>
        <pt x="255" y="393" on="0"/>
        <pt x="290" y="336" on="0"/>
        <pt x="340" y="331" on="1"/>
        <pt x="340" y="261" on="1"/>
        <pt x="290" y="256" on="0"/>
        <pt x="255" y="199" on="0"/>
        <pt x="255" y="153" on="1"/>
        <pt x="255" y="42" on="1"/>
        <pt x="255" y="-4" on="0"/>
        <pt x="209" y="-84" on="0"/>
        <pt x="148" y="-138" on="0"/>
        <pt x="125" y="-150" on="1"/>
        <pt x="19" y="-150" on="1"/>
      </contour>
    </TTGlyph>
    <TTGlyph name="bracketleft" xMin="74" yMin="-150" xMax="336" yMax="743">
      <contour>
        <pt x="74" y="743" on="1"/>
        <pt x="336" y="743" on="1"/>
        <pt x="336" y="642" on="1"/>
        <pt x="217" y="638" on="1"/>
        <pt x="217" y="-45" on="1"/>
        <pt x="336" y="-49" on="1"/>
        <pt x="336" y="-150" on="1"/>
        <pt x="74" y="-150" on="1"/>
      </contour>
    </TTGlyph>
    <TTGlyph name="bracketleft.ss02" xMin="45" yMin="0" xMax="397" yMax="696">
      <contour>
        <pt x="45" y="0" on="1"/>
        <pt x="45" y="348" on="1"/>
        <pt x="45" y="449" on="0"/>
        <pt x="135" y="608" on="0"/>
        <pt x="295" y="696" on="0"/>
        <pt x="397" y="696" on="1"/>
        <pt x="397" y="0" on="1"/>
      </contour>
    </TTGlyph>
    <TTGlyph name="bracketright" xMin="44" yMin="-150" xMax="305" yMax="743">
      <contour>
        <pt x="44" y="-49" on="1"/>
        <pt x="163" y="-45" on="1"/>
        <pt x="163" y="638" on="1"/>
        <pt x="44" y="642" on="1"/>
        <pt x="44" y="743" on="1"/>
        <pt x="305" y="743" on="1"/>
        <pt x="305" y="-150" on="1"/>
        <pt x="44" y="-150" on="1"/>
      </contour>
    </TTGlyph>
    <TTGlyph name="bracketright.ss02" xMin="0" yMin="0" xMax="352" yMax="696">
      <contour>
        <pt x="0" y="696" on="1"/>
        <pt x="102" y="696" on="0"/>
        <pt x="262" y="608" on="0"/>
        <pt x="352" y="449" on="0"/>
        <pt x="352" y="348" on="1"/>
        <pt x="352" y="0" on="1"/>
        <pt x="0" y="0" on="1"/>
      </contour>
    </TTGlyph>
    <TTGlyph name="breve" xMin="20" yMin="593" xMax="324" yMax="743">
      <contour>
        <pt x="324" y="693" on="0"/>
        <pt x="302" y="630" on="0"/>
        <pt x="235" y="593" on="0"/>
        <pt x="171" y="593" on="1"/>
        <pt x="107" y="593" on="0"/>
        <pt x="41" y="630" on="0"/>
        <pt x="20" y="693" on="0"/>
        <pt x="20" y="743" on="1"/>
        <pt x="108" y="743" on="1"/>
        <pt x="108" y="720" on="0"/>
        <pt x="114" y="696" on="0"/>
        <pt x="141" y="681" on="0"/>
        <pt x="171" y="681" on="1"/>
        <pt x="201" y="681" on="0"/>
        <pt x="228" y="696" on="0"/>
        <pt x="235" y="720" on="0"/>
        <pt x="235" y="743" on="1"/>
        <pt x="324" y="743" on="1"/>
      </contour>
    </TTGlyph>
    <TTGlyph name="brokenbar" xMin="79" yMin="-161" xMax="217" yMax="743">
      <contour>
        <pt x="79" y="743" on="1"/>
        <pt x="217" y="743" on="1"/>
        <pt x="217" y="390" on="1"/>
        <pt x="79" y="390" on="1"/>
      </contour>
      <contour>
        <pt x="79" y="192" on="1"/>
        <pt x="217" y="192" on="1"/>
        <pt x="217" y="-161" on="1"/>
        <pt x="79" y="-161" on="1"/>
      </contour>
    </TTGlyph>
    <TTGlyph name="bullet" xMin="75" yMin="220" xMax="317" yMax="467">
      <contour>
        <pt x="317" y="284" on="0"/>
        <pt x="304" y="237" on="0"/>
        <pt x="255" y="220" on="0"/>
        <pt x="194" y="220" on="1"/>
        <pt x="135" y="220" on="0"/>
        <pt x="87" y="237" on="0"/>
        <pt x="75" y="283" on="0"/>
        <pt x="75" y="342" on="1"/>
        <pt x="75" y="402" on="0"/>
        <pt x="87" y="449" on="0"/>
        <pt x="135" y="467" on="0"/>
        <pt x="194" y="467" on="1"/>
        <pt x="255" y="467" on="0"/>
        <pt x="304" y="449" on="0"/>
        <pt x="317" y="402" on="0"/>
        <pt x="317" y="342" on="1"/>
      </contour>
    </TTGlyph>
    <TTGlyph name="bullet.ss02" xMin="40" yMin="-8" xMax="743" yMax="696">
      <contour>
        <pt x="343" y="421" on="0"/>
        <pt x="279" y="480" on="0"/>
        <pt x="279" y="533" on="1"/>
        <pt x="279" y="575" on="0"/>
        <pt x="318" y="650" on="0"/>
        <pt x="373" y="696" on="0"/>
        <pt x="392" y="696" on="1"/>
        <pt x="411" y="696" on="0"/>
        <pt x="465" y="650" on="0"/>
        <pt x="504" y="575" on="0"/>
        <pt x="504" y="533" on="1"/>
        <pt x="504" y="480" on="0"/>
        <pt x="441" y="421" on="0"/>
        <pt x="392" y="421" on="1"/>
      </contour>
      <contour>
        <pt x="415" y="481" on="0"/>
        <pt x="444" y="508" on="0"/>
        <pt x="444" y="533" on="1"/>
        <pt x="444" y="560" on="0"/>
        <pt x="426" y="607" on="0"/>
        <pt x="401" y="636" on="0"/>
        <pt x="392" y="636" on="1"/>
        <pt x="383" y="636" on="0"/>
        <pt x="358" y="607" on="0"/>
        <pt x="339" y="560" on="0"/>
        <pt x="339" y="533" on="1"/>
        <pt x="339" y="508" on="0"/>
        <pt x="369" y="481" on="0"/>
        <pt x="392" y="481" on="1"/>
      </contour>
      <contour>
        <pt x="161" y="231" on="0"/>
        <pt x="86" y="270" on="0"/>
        <pt x="40" y="325" on="0"/>
        <pt x="40" y="344" on="1"/>
        <pt x="40" y="363" on="0"/>
        <pt x="86" y="417" on="0"/>
        <pt x="161" y="456" on="0"/>
        <pt x="203" y="456" on="1"/>
        <pt x="256" y="456" on="0"/>
        <pt x="315" y="393" on="0"/>
        <pt x="315" y="344" on="1"/>
        <pt x="315" y="295" on="0"/>
        <pt x="256" y="231" on="0"/>
        <pt x="203" y="231" on="1"/>
      </contour>
      <contour>
        <pt x="527" y="231" on="0"/>
        <pt x="468" y="295" on="0"/>
        <pt x="468" y="344" on="1"/>
        <pt x="468" y="393" on="0"/>
        <pt x="527" y="456" on="0"/>
        <pt x="581" y="456" on="1"/>
        <pt x="622" y="456" on="0"/>
        <pt x="697" y="417" on="0"/>
        <pt x="743" y="363" on="0"/>
        <pt x="743" y="344" on="1"/>
        <pt x="743" y="325" on="0"/>
        <pt x="697" y="270" on="0"/>
        <pt x="623" y="231" on="0"/>
        <pt x="581" y="231" on="1"/>
      </contour>
      <contour>
        <pt x="228" y="291" on="0"/>
        <pt x="255" y="321" on="0"/>
        <pt x="255" y="344" on="1"/>
        <pt x="255" y="367" on="0"/>
        <pt x="228" y="396" on="0"/>
        <pt x="203" y="396" on="1"/>
        <pt x="176" y="396" on="0"/>
        <pt x="129" y="378" on="0"/>
        <pt x="100" y="353" on="0"/>
        <pt x="100" y="344" on="1"/>
        <pt x="100" y="335" on="0"/>
        <pt x="129" y="310" on="0"/>
        <pt x="176" y="291" on="0"/>
        <pt x="203" y="291" on="1"/>
      </contour>
      <contour>
        <pt x="607" y="291" on="0"/>
        <pt x="654" y="310" on="0"/>
        <pt x="683" y="335" on="0"/>
        <pt x="683" y="344" on="1"/>
        <pt x="683" y="353" on="0"/>
        <pt x="654" y="378" on="0"/>
        <pt x="607" y="396" on="0"/>
        <pt x="581" y="396" on="1"/>
        <pt x="556" y="396" on="0"/>
        <pt x="528" y="367" on="0"/>
        <pt x="528" y="344" on="1"/>
        <pt x="528" y="321" on="0"/>
        <pt x="556" y="291" on="0"/>
        <pt x="581" y="291" on="1"/>
      </contour>
      <contour>
        <pt x="373" y="-8" on="0"/>
        <pt x="318" y="38" on="0"/>
        <pt x="279" y="113" on="0"/>
        <pt x="279" y="155" on="1"/>
        <pt x="279" y="208" on="0"/>
        <pt x="343" y="267" on="0"/>
        <pt x="392" y="267" on="1"/>
        <pt x="441" y="267" on="0"/>
        <pt x="504" y="208" on="0"/>
        <pt x="504" y="155" on="1"/>
        <pt x="504" y="113" on="0"/>
        <pt x="465" y="38" on="0"/>
        <pt x="411" y="-8" on="0"/>
        <pt x="392" y="-8" on="1"/>
      </contour>
      <contour>
        <pt x="401" y="52" on="0"/>
        <pt x="426" y="81" on="0"/>
        <pt x="444" y="128" on="0"/>
        <pt x="444" y="155" on="1"/>
        <pt x="444" y="180" on="0"/>
        <pt x="415" y="207" on="0"/>
        <pt x="392" y="207" on="1"/>
        <pt x="369" y="207" on="0"/>
        <pt x="339" y="180" on="0"/>
        <pt x="339" y="155" on="1"/>
        <pt x="339" y="128" on="0"/>
        <pt x="358" y="81" on="0"/>
        <pt x="383" y="52" on="0"/>
        <pt x="392" y="52" on="1"/>
      </contour>
    </TTGlyph>
    <TTGlyph name="c" xMin="44" yMin="-8" xMax="421" yMax="518">
      <contour>
        <pt x="346" y="-8" on="0"/>
        <pt x="266" y="-8" on="1"/>
        <pt x="165" y="-8" on="0"/>
        <pt x="70" y="51" on="0"/>
        <pt x="44" y="157" on="0"/>
        <pt x="44" y="255" on="1"/>
        <pt x="44" y="350" on="0"/>
        <pt x="71" y="457" on="0"/>
        <pt x="166" y="518" on="0"/>
        <pt x="265" y="518" on="1"/>
        <pt x="351" y="518" on="0"/>
        <pt x="417" y="501" on="1"/>
        <pt x="417" y="385" on="1"/>
        <pt x="363" y="393" on="0"/>
        <pt x="308" y="393" on="1"/>
        <pt x="261" y="393" on="0"/>
        <pt x="220" y="372" on="0"/>
        <pt x="207" y="318" on="0"/>
        <pt x="207" y="255" on="1"/>
        <pt x="207" y="192" on="0"/>
        <pt x="220" y="137" on="0"/>
        <pt x="261" y="117" on="0"/>
        <pt x="309" y="117" on="1"/>
        <pt x="362" y="117" on="0"/>
        <pt x="421" y="125" on="1"/>
        <pt x="421" y="9" on="1"/>
      </contour>
    </TTGlyph>
    <TTGlyph name="cacute" xMin="44" yMin="-8" xMax="421" yMax="743">
      <component glyphName="c" x="0" y="0" flags="0x0"/>
      <component glyphName="acutecomb" x="435" y="0" flags="0x0"/>
    </TTGlyph>
    <TTGlyph name="cacute.loclPLK" xMin="44" yMin="-8" xMax="421" yMax="743">
      <component glyphName="c" x="0" y="0" flags="0x0"/>
      <component glyphName="acute.loclPLK" x="149" y="0" flags="0x0"/>
    </TTGlyph>
    <TTGlyph name="caron" xMin="20" yMin="597" xMax="357" yMax="743">
      <contour>
        <pt x="20" y="736" on="1"/>
        <pt x="20" y="743" on="1"/>
        <pt x="123" y="743" on="1"/>
        <pt x="189" y="663" on="1"/>
        <pt x="253" y="743" on="1"/>
        <pt x="357" y="743" on="1"/>
        <pt x="357" y="736" on="1"/>
        <pt x="262" y="597" on="1"/>
        <pt x="113" y="597" on="1"/>
      </contour>
    </TTGlyph>
    <TTGlyph name="caron.loclCSY" xMin="52" yMin="428" xMax="208" yMax="688">
      <contour>
        <pt x="65" y="633" on="1"/>
        <pt x="65" y="688" on="1"/>
        <pt x="208" y="688" on="1"/>
        <pt x="208" y="633" on="1"/>
        <pt x="161" y="428" on="1"/>
        <pt x="52" y="428" on="1"/>
      </contour>
    </TTGlyph>
    <TTGlyph name="ccaron" xMin="44" yMin="-8" xMax="421" yMax="743">
      <component glyphName="c" x="0" y="0" flags="0x0"/>
      <component glyphName="uni030C" x="419" y="0" flags="0x0"/>
    </TTGlyph>
    <TTGlyph name="ccedilla" xMin="44" yMin="-190" xMax="421" yMax="518">
      <contour>
        <pt x="421" y="9" on="1"/>
        <pt x="362" y="-5" on="0"/>
        <pt x="283" y="-8" on="1"/>
        <pt x="249" y="-190" on="1"/>
        <pt x="103" y="-190" on="1"/>
        <pt x="103" y="-185" on="1"/>
        <pt x="176" y="0" on="1"/>
        <pt x="117" y="12" on="0"/>
        <pt x="60" y="78" on="0"/>
        <pt x="44" y="174" on="0"/>
        <pt x="44" y="255" on="1"/>
        <pt x="44" y="350" on="0"/>
        <pt x="71" y="457" on="0"/>
        <pt x="166" y="518" on="0"/>
        <pt x="265" y="518" on="1"/>
        <pt x="351" y="518" on="0"/>
        <pt x="417" y="501" on="1"/>
        <pt x="417" y="385" on="1"/>
        <pt x="363" y="393" on="0"/>
        <pt x="308" y="393" on="1"/>
        <pt x="261" y="393" on="0"/>
        <pt x="220" y="372" on="0"/>
        <pt x="207" y="318" on="0"/>
        <pt x="207" y="255" on="1"/>
        <pt x="207" y="192" on="0"/>
        <pt x="220" y="137" on="0"/>
        <pt x="261" y="117" on="0"/>
        <pt x="309" y="117" on="1"/>
        <pt x="362" y="117" on="0"/>
        <pt x="421" y="125" on="1"/>
      </contour>
    </TTGlyph>
    <TTGlyph name="ccircumflex" xMin="44" yMin="-8" xMax="421" yMax="743">
      <component glyphName="c" x="0" y="0" flags="0x0"/>
      <component glyphName="uni0302" x="419" y="0" flags="0x0"/>
    </TTGlyph>
    <TTGlyph name="cdotaccent" xMin="44" yMin="-8" xMax="421" yMax="730">
      <component glyphName="c" x="0" y="0" flags="0x0"/>
      <component glyphName="uni0307" x="316" y="0" flags="0x0"/>
    </TTGlyph>
    <TTGlyph name="cedilla" xMin="20" yMin="-190" xMax="202" yMax="8">
      <contour>
        <pt x="20" y="-185" on="1"/>
        <pt x="96" y="8" on="1"/>
        <pt x="202" y="8" on="1"/>
        <pt x="202" y="3" on="1"/>
        <pt x="166" y="-190" on="1"/>
        <pt x="20" y="-190" on="1"/>
      </contour>
    </TTGlyph>
    <TTGlyph name="cent" xMin="50" yMin="-8" xMax="421" yMax="696">
      <contour>
        <pt x="206" y="72" on="1"/>
        <pt x="138" y="82" on="0"/>
        <pt x="70" y="148" on="0"/>
        <pt x="50" y="253" on="0"/>
        <pt x="50" y="341" on="1"/>
        <pt x="50" y="429" on="0"/>
        <pt x="72" y="536" on="0"/>
        <pt x="139" y="602" on="0"/>
        <pt x="206" y="612" on="1"/>
        <pt x="206" y="696" on="1"/>
        <pt x="323" y="696" on="1"/>
        <pt x="323" y="615" on="1"/>
        <pt x="371" y="613" on="0"/>
        <pt x="417" y="600" on="1"/>
        <pt x="417" y="480" on="1"/>
        <pt x="370" y="487" on="0"/>
        <pt x="312" y="487" on="1"/>
        <pt x="267" y="487" on="0"/>
        <pt x="227" y="466" on="0"/>
        <pt x="214" y="408" on="0"/>
        <pt x="214" y="342" on="1"/>
        <pt x="214" y="276" on="0"/>
        <pt x="228" y="218" on="0"/>
        <pt x="268" y="197" on="0"/>
        <pt x="313" y="197" on="1"/>
        <pt x="361" y="197" on="0"/>
        <pt x="421" y="205" on="1"/>
        <pt x="421" y="85" on="1"/>
        <pt x="382" y="74" on="0"/>
        <pt x="323" y="69" on="1"/>
        <pt x="323" y="-8" on="1"/>
        <pt x="206" y="-8" on="1"/>
      </contour>
    </TTGlyph>
    <TTGlyph name="cent.bold" xMin="50" yMin="-8" xMax="421" yMax="696">
      <contour>
        <pt x="421" y="85" on="1"/>
        <pt x="379" y="73" on="0"/>
        <pt x="323" y="69" on="1"/>
        <pt x="323" y="-8" on="1"/>
        <pt x="206" y="-8" on="1"/>
        <pt x="206" y="70" on="1"/>
        <pt x="143" y="79" on="0"/>
        <pt x="76" y="141" on="0"/>
        <pt x="50" y="251" on="0"/>
        <pt x="50" y="341" on="1"/>
        <pt x="50" y="466" on="0"/>
        <pt x="115" y="602" on="0"/>
        <pt x="206" y="615" on="1"/>
        <pt x="206" y="696" on="1"/>
        <pt x="323" y="696" on="1"/>
        <pt x="323" y="616" on="1"/>
        <pt x="371" y="613" on="0"/>
        <pt x="417" y="600" on="1"/>
        <pt x="417" y="480" on="1"/>
        <pt x="387" y="485" on="0"/>
        <pt x="323" y="487" on="1"/>
        <pt x="323" y="197" on="1"/>
        <pt x="379" y="199" on="0"/>
        <pt x="421" y="205" on="1"/>
      </contour>
    </TTGlyph>
    <TTGlyph name="circumflex" xMin="20" yMin="597" xMax="357" yMax="743">
      <contour>
        <pt x="20" y="604" on="1"/>
        <pt x="113" y="743" on="1"/>
        <pt x="262" y="743" on="1"/>
        <pt x="357" y="604" on="1"/>
        <pt x="357" y="597" on="1"/>
        <pt x="253" y="597" on="1"/>
        <pt x="187" y="677" on="1"/>
        <pt x="123" y="597" on="1"/>
        <pt x="20" y="597" on="1"/>
      </contour>
    </TTGlyph>
    <TTGlyph name="colon" xMin="64" yMin="0" xMax="235" yMax="510">
      <contour>
        <pt x="64" y="510" on="1"/>
        <pt x="235" y="510" on="1"/>
        <pt x="235" y="361" on="1"/>
        <pt x="64" y="361" on="1"/>
      </contour>
      <contour>
        <pt x="64" y="148" on="1"/>
        <pt x="235" y="148" on="1"/>
        <pt x="235" y="0" on="1"/>
        <pt x="64" y="0" on="1"/>
      </contour>
    </TTGlyph>
    <TTGlyph name="comma" xMin="56" yMin="-149" xMax="235" yMax="148">
      <contour>
        <pt x="86" y="-83" on="0"/>
        <pt x="115" y="-72" on="0"/>
        <pt x="126" y="-44" on="0"/>
        <pt x="126" y="-16" on="1"/>
        <pt x="126" y="0" on="1"/>
        <pt x="64" y="0" on="1"/>
        <pt x="64" y="148" on="1"/>
        <pt x="235" y="148" on="1"/>
        <pt x="235" y="37" on="1"/>
        <pt x="235" y="-42" on="0"/>
        <pt x="210" y="-118" on="0"/>
        <pt x="136" y="-149" on="0"/>
        <pt x="56" y="-149" on="1"/>
        <pt x="56" y="-83" on="1"/>
      </contour>
    </TTGlyph>
    <TTGlyph name="copyright" xMin="77" yMin="-8" xMax="668" yMax="696">
      <contour>
        <pt x="226" y="-8" on="0"/>
        <pt x="109" y="41" on="0"/>
        <pt x="77" y="175" on="0"/>
        <pt x="77" y="344" on="1"/>
        <pt x="77" y="513" on="0"/>
        <pt x="109" y="647" on="0"/>
        <pt x="226" y="696" on="0"/>
        <pt x="372" y="696" on="1"/>
        <pt x="518" y="696" on="0"/>
        <pt x="636" y="647" on="0"/>
        <pt x="668" y="512" on="0"/>
        <pt x="668" y="344" on="1"/>
        <pt x="668" y="175" on="0"/>
        <pt x="636" y="41" on="0"/>
        <pt x="518" y="-8" on="0"/>
        <pt x="372" y="-8" on="1"/>
      </contour>
      <contour>
        <pt x="497" y="54" on="0"/>
        <pt x="581" y="82" on="0"/>
        <pt x="603" y="188" on="0"/>
        <pt x="603" y="344" on="1"/>
        <pt x="603" y="500" on="0"/>
        <pt x="581" y="605" on="0"/>
        <pt x="496" y="634" on="0"/>
        <pt x="372" y="634" on="1"/>
        <pt x="248" y="634" on="0"/>
        <pt x="163" y="605" on="0"/>
        <pt x="141" y="499" on="0"/>
        <pt x="141" y="344" on="1"/>
        <pt x="141" y="188" on="0"/>
        <pt x="163" y="82" on="0"/>
        <pt x="248" y="54" on="0"/>
        <pt x="372" y="54" on="1"/>
      </contour>
      <contour>
        <pt x="326" y="154" on="0"/>
        <pt x="260" y="189" on="0"/>
        <pt x="239" y="266" on="0"/>
        <pt x="239" y="343" on="1"/>
        <pt x="239" y="420" on="0"/>
        <pt x="260" y="497" on="0"/>
        <pt x="326" y="532" on="0"/>
        <pt x="394" y="532" on="1"/>
        <pt x="448" y="532" on="0"/>
        <pt x="488" y="523" on="1"/>
        <pt x="488" y="451" on="1"/>
        <pt x="440" y="455" on="0"/>
        <pt x="416" y="455" on="1"/>
        <pt x="374" y="455" on="0"/>
        <pt x="343" y="442" on="0"/>
        <pt x="335" y="400" on="0"/>
        <pt x="335" y="343" on="1"/>
        <pt x="335" y="286" on="0"/>
        <pt x="343" y="243" on="0"/>
        <pt x="375" y="230" on="0"/>
        <pt x="416" y="230" on="1"/>
        <pt x="458" y="230" on="0"/>
        <pt x="490" y="235" on="1"/>
        <pt x="490" y="161" on="1"/>
        <pt x="448" y="154" on="0"/>
        <pt x="394" y="154" on="1"/>
      </contour>
    </TTGlyph>
    <TTGlyph name="currency" xMin="44" yMin="-2" xMax="634" yMax="690">
      <contour>
        <pt x="45" y="84" on="1"/>
        <pt x="119" y="157" on="1"/>
        <pt x="106" y="185" on="0"/>
        <pt x="98" y="271" on="0"/>
        <pt x="98" y="345" on="1"/>
        <pt x="98" y="418" on="0"/>
        <pt x="106" y="502" on="0"/>
        <pt x="118" y="531" on="1"/>
        <pt x="44" y="604" on="1"/>
        <pt x="127" y="690" on="1"/>
        <pt x="212" y="605" on="1"/>
        <pt x="256" y="616" on="0"/>
        <pt x="339" y="616" on="1"/>
        <pt x="418" y="616" on="0"/>
        <pt x="467" y="604" on="1"/>
        <pt x="552" y="690" on="1"/>
        <pt x="634" y="605" on="1"/>
        <pt x="560" y="532" on="1"/>
        <pt x="572" y="503" on="0"/>
        <pt x="580" y="416" on="0"/>
        <pt x="580" y="345" on="1"/>
        <pt x="580" y="274" on="0"/>
        <pt x="572" y="187" on="0"/>
        <pt x="559" y="158" on="1"/>
        <pt x="634" y="84" on="1"/>
        <pt x="551" y="-2" on="1"/>
        <pt x="466" y="84" on="1"/>
        <pt x="422" y="73" on="0"/>
        <pt x="339" y="73" on="1"/>
        <pt x="255" y="73" on="0"/>
        <pt x="211" y="84" on="1"/>
        <pt x="127" y="-1" on="1"/>
      </contour>
      <contour>
        <pt x="381" y="198" on="0"/>
        <pt x="411" y="216" on="0"/>
        <pt x="419" y="269" on="0"/>
        <pt x="419" y="345" on="1"/>
        <pt x="419" y="420" on="0"/>
        <pt x="411" y="474" on="0"/>
        <pt x="381" y="491" on="0"/>
        <pt x="339" y="491" on="1"/>
        <pt x="297" y="491" on="0"/>
        <pt x="266" y="474" on="0"/>
        <pt x="259" y="421" on="0"/>
        <pt x="259" y="345" on="1"/>
        <pt x="259" y="269" on="0"/>
        <pt x="266" y="216" on="0"/>
        <pt x="297" y="198" on="0"/>
        <pt x="339" y="198" on="1"/>
      </contour>
    </TTGlyph>
    <TTGlyph name="d" xMin="44" yMin="-8" xMax="521" yMax="743">
      <contour>
        <pt x="149" y="-8" on="0"/>
        <pt x="78" y="38" on="0"/>
        <pt x="44" y="151" on="0"/>
        <pt x="44" y="253" on="1"/>
        <pt x="44" y="356" on="0"/>
        <pt x="77" y="470" on="0"/>
        <pt x="148" y="517" on="0"/>
        <pt x="210" y="517" on="1"/>
        <pt x="261" y="517" on="0"/>
        <pt x="330" y="492" on="0"/>
        <pt x="352" y="456" on="1"/>
        <pt x="360" y="456" on="1"/>
        <pt x="360" y="743" on="1"/>
        <pt x="521" y="743" on="1"/>
        <pt x="521" y="0" on="1"/>
        <pt x="368" y="0" on="1"/>
        <pt x="364" y="60" on="1"/>
        <pt x="356" y="60" on="1"/>
        <pt x="335" y="21" on="0"/>
        <pt x="261" y="-8" on="0"/>
        <pt x="211" y="-8" on="1"/>
      </contour>
      <contour>
        <pt x="314" y="128" on="0"/>
        <pt x="344" y="143" on="0"/>
        <pt x="351" y="162" on="1"/>
        <pt x="357" y="178" on="0"/>
        <pt x="360" y="220" on="0"/>
        <pt x="360" y="255" on="1"/>
        <pt x="360" y="321" on="0"/>
        <pt x="352" y="345" on="1"/>
        <pt x="345" y="366" on="0"/>
        <pt x="315" y="381" on="0"/>
        <pt x="283" y="381" on="1"/>
        <pt x="245" y="381" on="0"/>
        <pt x="215" y="366" on="0"/>
        <pt x="205" y="317" on="0"/>
        <pt x="205" y="255" on="1"/>
        <pt x="205" y="192" on="0"/>
        <pt x="215" y="143" on="0"/>
        <pt x="245" y="128" on="0"/>
        <pt x="283" y="128" on="1"/>
      </contour>
    </TTGlyph>
    <TTGlyph name="dagger" xMin="65" yMin="0" xMax="447" yMax="688">
      <contour>
        <pt x="198" y="422" on="1"/>
        <pt x="65" y="431" on="1"/>
        <pt x="65" y="529" on="1"/>
        <pt x="198" y="539" on="1"/>
        <pt x="208" y="688" on="1"/>
        <pt x="304" y="688" on="1"/>
        <pt x="313" y="539" on="1"/>
        <pt x="447" y="529" on="1"/>
        <pt x="447" y="431" on="1"/>
        <pt x="313" y="422" on="1"/>
        <pt x="304" y="0" on="1"/>
        <pt x="208" y="0" on="1"/>
      </contour>
    </TTGlyph>
    <TTGlyph name="daggerdbl" xMin="65" yMin="0" xMax="447" yMax="688">
      <contour>
        <pt x="198" y="148" on="1"/>
        <pt x="65" y="158" on="1"/>
        <pt x="65" y="256" on="1"/>
        <pt x="198" y="266" on="1"/>
        <pt x="198" y="422" on="1"/>
        <pt x="65" y="431" on="1"/>
        <pt x="65" y="529" on="1"/>
        <pt x="198" y="539" on="1"/>
        <pt x="208" y="688" on="1"/>
        <pt x="304" y="688" on="1"/>
        <pt x="313" y="539" on="1"/>
        <pt x="447" y="529" on="1"/>
        <pt x="447" y="431" on="1"/>
        <pt x="313" y="422" on="1"/>
        <pt x="313" y="266" on="1"/>
        <pt x="447" y="256" on="1"/>
        <pt x="447" y="158" on="1"/>
        <pt x="313" y="148" on="1"/>
        <pt x="304" y="0" on="1"/>
        <pt x="208" y="0" on="1"/>
      </contour>
    </TTGlyph>
    <TTGlyph name="dcaron" xMin="44" yMin="-8" xMax="708" yMax="743">
      <component glyphName="d" x="0" y="0" flags="0x0"/>
      <component glyphName="caron.loclCSY" x="500" y="0" flags="0x0"/>
    </TTGlyph>
    <TTGlyph name="dcroat" xMin="44" yMin="-8" xMax="581" yMax="743">
      <contour>
        <pt x="581" y="570" on="1"/>
        <pt x="521" y="570" on="1"/>
        <pt x="521" y="0" on="1"/>
        <pt x="368" y="0" on="1"/>
        <pt x="364" y="60" on="1"/>
        <pt x="356" y="60" on="1"/>
        <pt x="335" y="21" on="0"/>
        <pt x="261" y="-8" on="0"/>
        <pt x="211" y="-8" on="1"/>
        <pt x="149" y="-8" on="0"/>
        <pt x="78" y="38" on="0"/>
        <pt x="44" y="151" on="0"/>
        <pt x="44" y="253" on="1"/>
        <pt x="44" y="356" on="0"/>
        <pt x="77" y="470" on="0"/>
        <pt x="148" y="517" on="0"/>
        <pt x="210" y="517" on="1"/>
        <pt x="261" y="517" on="0"/>
        <pt x="330" y="492" on="0"/>
        <pt x="352" y="456" on="1"/>
        <pt x="360" y="456" on="1"/>
        <pt x="360" y="570" on="1"/>
        <pt x="239" y="570" on="1"/>
        <pt x="239" y="688" on="1"/>
        <pt x="360" y="688" on="1"/>
        <pt x="360" y="743" on="1"/>
        <pt x="521" y="743" on="1"/>
        <pt x="521" y="688" on="1"/>
        <pt x="581" y="688" on="1"/>
      </contour>
      <contour>
        <pt x="357" y="178" on="0"/>
        <pt x="360" y="220" on="0"/>
        <pt x="360" y="255" on="1"/>
        <pt x="360" y="321" on="0"/>
        <pt x="352" y="345" on="1"/>
        <pt x="345" y="366" on="0"/>
        <pt x="315" y="381" on="0"/>
        <pt x="283" y="381" on="1"/>
        <pt x="245" y="381" on="0"/>
        <pt x="215" y="366" on="0"/>
        <pt x="205" y="317" on="0"/>
        <pt x="205" y="255" on="1"/>
        <pt x="205" y="192" on="0"/>
        <pt x="215" y="143" on="0"/>
        <pt x="245" y="128" on="0"/>
        <pt x="283" y="128" on="1"/>
        <pt x="314" y="128" on="0"/>
        <pt x="344" y="143" on="0"/>
        <pt x="351" y="162" on="1"/>
      </contour>
    </TTGlyph>
    <TTGlyph name="degree" xMin="51" yMin="397" xMax="344" yMax="696">
      <contour>
        <pt x="129" y="397" on="0"/>
        <pt x="68" y="423" on="0"/>
        <pt x="51" y="482" on="0"/>
        <pt x="51" y="546" on="1"/>
        <pt x="51" y="610" on="0"/>
        <pt x="69" y="669" on="0"/>
        <pt x="130" y="696" on="0"/>
        <pt x="198" y="696" on="1"/>
        <pt x="266" y="696" on="0"/>
        <pt x="327" y="669" on="0"/>
        <pt x="344" y="610" on="0"/>
        <pt x="344" y="546" on="1"/>
        <pt x="344" y="481" on="0"/>
        <pt x="327" y="423" on="0"/>
        <pt x="266" y="397" on="0"/>
        <pt x="198" y="397" on="1"/>
      </contour>
      <contour>
        <pt x="224" y="467" on="0"/>
        <pt x="244" y="479" on="0"/>
        <pt x="249" y="508" on="0"/>
        <pt x="249" y="546" on="1"/>
        <pt x="249" y="584" on="0"/>
        <pt x="244" y="613" on="0"/>
        <pt x="224" y="625" on="0"/>
        <pt x="198" y="625" on="1"/>
        <pt x="172" y="625" on="0"/>
        <pt x="151" y="613" on="0"/>
        <pt x="146" y="584" on="0"/>
        <pt x="146" y="546" on="1"/>
        <pt x="146" y="508" on="0"/>
        <pt x="151" y="479" on="0"/>
        <pt x="172" y="467" on="0"/>
        <pt x="198" y="467" on="1"/>
      </contour>
    </TTGlyph>
    <TTGlyph name="dialog" xMin="59" yMin="-212" xMax="746" yMax="688">
      <contour>
        <pt x="306" y="-127" on="1"/>
        <pt x="494" y="60" on="1"/>
        <pt x="686" y="60" on="1"/>
        <pt x="686" y="628" on="1"/>
        <pt x="119" y="628" on="1"/>
        <pt x="119" y="60" on="1"/>
        <pt x="306" y="60" on="1"/>
        <pt x="306" y="0" on="1"/>
        <pt x="59" y="0" on="1"/>
        <pt x="59" y="688" on="1"/>
        <pt x="746" y="688" on="1"/>
        <pt x="746" y="0" on="1"/>
        <pt x="519" y="0" on="1"/>
        <pt x="306" y="-212" on="1"/>
      </contour>
    </TTGlyph>
    <TTGlyph name="dieresis" xMin="18" yMin="619" xMax="355" yMax="730">
      <contour>
        <pt x="18" y="730" on="1"/>
        <pt x="149" y="730" on="1"/>
        <pt x="149" y="619" on="1"/>
        <pt x="18" y="619" on="1"/>
      </contour>
      <contour>
        <pt x="224" y="730" on="1"/>
        <pt x="355" y="730" on="1"/>
        <pt x="355" y="619" on="1"/>
        <pt x="224" y="619" on="1"/>
      </contour>
    </TTGlyph>
    <TTGlyph name="divide" xMin="70" yMin="14" xMax="469" yMax="491">
      <contour>
        <pt x="210" y="491" on="1"/>
        <pt x="327" y="491" on="1"/>
        <pt x="327" y="389" on="1"/>
        <pt x="210" y="389" on="1"/>
      </contour>
      <contour>
        <pt x="70" y="312" on="1"/>
        <pt x="469" y="312" on="1"/>
        <pt x="469" y="193" on="1"/>
        <pt x="70" y="193" on="1"/>
      </contour>
      <contour>
        <pt x="210" y="117" on="1"/>
        <pt x="327" y="117" on="1"/>
        <pt x="327" y="14" on="1"/>
        <pt x="210" y="14" on="1"/>
      </contour>
    </TTGlyph>
    <TTGlyph name="dollar" xMin="52" yMin="-8" xMax="484" yMax="696">
      <contour>
        <pt x="211" y="68" on="1"/>
        <pt x="123" y="74" on="0"/>
        <pt x="68" y="82" on="1"/>
        <pt x="68" y="202" on="1"/>
        <pt x="168" y="194" on="0"/>
        <pt x="230" y="194" on="1"/>
        <pt x="278" y="194" on="0"/>
        <pt x="319" y="201" on="0"/>
        <pt x="330" y="217" on="0"/>
        <pt x="330" y="236" on="1"/>
        <pt x="330" y="252" on="0"/>
        <pt x="324" y="265" on="0"/>
        <pt x="306" y="271" on="0"/>
        <pt x="283" y="274" on="1"/>
        <pt x="183" y="287" on="1"/>
        <pt x="127" y="294" on="0"/>
        <pt x="71" y="338" on="0"/>
        <pt x="52" y="404" on="0"/>
        <pt x="52" y="456" on="1"/>
        <pt x="52" y="540" on="0"/>
        <pt x="133" y="610" on="0"/>
        <pt x="211" y="616" on="1"/>
        <pt x="211" y="696" on="1"/>
        <pt x="329" y="696" on="1"/>
        <pt x="329" y="617" on="1"/>
        <pt x="404" y="614" on="0"/>
        <pt x="455" y="603" on="1"/>
        <pt x="455" y="483" on="1"/>
        <pt x="369" y="491" on="0"/>
        <pt x="305" y="491" on="1"/>
        <pt x="260" y="491" on="0"/>
        <pt x="221" y="487" on="0"/>
        <pt x="205" y="472" on="0"/>
        <pt x="205" y="454" on="1"/>
        <pt x="205" y="437" on="0"/>
        <pt x="210" y="424" on="0"/>
        <pt x="228" y="418" on="0"/>
        <pt x="251" y="415" on="1"/>
        <pt x="363" y="402" on="1"/>
        <pt x="407" y="396" on="0"/>
        <pt x="458" y="368" on="0"/>
        <pt x="484" y="302" on="0"/>
        <pt x="484" y="239" on="1"/>
        <pt x="484" y="146" on="0"/>
        <pt x="406" y="73" on="0"/>
        <pt x="329" y="68" on="1"/>
        <pt x="329" y="-8" on="1"/>
        <pt x="211" y="-8" on="1"/>
      </contour>
    </TTGlyph>
    <TTGlyph name="dollar.bold" xMin="52" yMin="-8" xMax="484" yMax="696">
      <contour>
        <pt x="484" y="180" on="0"/>
        <pt x="455" y="110" on="0"/>
        <pt x="388" y="75" on="0"/>
        <pt x="329" y="69" on="1"/>
        <pt x="329" y="-8" on="1"/>
        <pt x="211" y="-8" on="1"/>
        <pt x="211" y="68" on="1"/>
        <pt x="163" y="70" on="0"/>
        <pt x="68" y="82" on="1"/>
        <pt x="68" y="202" on="1"/>
        <pt x="148" y="195" on="0"/>
        <pt x="211" y="194" on="1"/>
        <pt x="211" y="283" on="1"/>
        <pt x="183" y="287" on="1"/>
        <pt x="127" y="294" on="0"/>
        <pt x="71" y="338" on="0"/>
        <pt x="52" y="404" on="0"/>
        <pt x="52" y="456" on="1"/>
        <pt x="52" y="535" on="0"/>
        <pt x="129" y="607" on="0"/>
        <pt x="211" y="616" on="1"/>
        <pt x="211" y="696" on="1"/>
        <pt x="329" y="696" on="1"/>
        <pt x="329" y="618" on="1"/>
        <pt x="400" y="614" on="0"/>
        <pt x="455" y="603" on="1"/>
        <pt x="455" y="483" on="1"/>
        <pt x="387" y="489" on="0"/>
        <pt x="329" y="491" on="1"/>
        <pt x="329" y="406" on="1"/>
        <pt x="363" y="402" on="1"/>
        <pt x="407" y="396" on="0"/>
        <pt x="458" y="368" on="0"/>
        <pt x="484" y="302" on="0"/>
        <pt x="484" y="239" on="1"/>
      </contour>
      <contour>
        <pt x="205" y="432" on="0"/>
        <pt x="211" y="426" on="1"/>
        <pt x="211" y="477" on="1"/>
        <pt x="205" y="470" on="0"/>
        <pt x="205" y="454" on="1"/>
      </contour>
      <contour>
        <pt x="330" y="224" on="0"/>
        <pt x="330" y="236" on="1"/>
        <pt x="330" y="248" on="0"/>
        <pt x="329" y="252" on="1"/>
        <pt x="329" y="220" on="1"/>
      </contour>
    </TTGlyph>
    <TTGlyph name="dotaccent" xMin="20" yMin="619" xMax="151" yMax="730">
      <contour>
        <pt x="20" y="730" on="1"/>
        <pt x="151" y="730" on="1"/>
        <pt x="151" y="619" on="1"/>
        <pt x="20" y="619" on="1"/>
      </contour>
    </TTGlyph>
    <TTGlyph name="dotbelowcomb" xMin="-235" yMin="-211" xMax="-64" yMax="-62">
      <contour>
        <pt x="-235" y="-62" on="1"/>
        <pt x="-64" y="-62" on="1"/>
        <pt x="-64" y="-211" on="1"/>
        <pt x="-235" y="-211" on="1"/>
      </contour>
    </TTGlyph>
    <TTGlyph name="dotlessi" xMin="61" yMin="0" xMax="224" yMax="510">
      <contour>
        <pt x="61" y="510" on="1"/>
        <pt x="224" y="510" on="1"/>
        <pt x="224" y="0" on="1"/>
        <pt x="61" y="0" on="1"/>
      </contour>
    </TTGlyph>
    <TTGlyph name="e" xMin="44" yMin="-8" xMax="509" yMax="518">
      <contour>
        <pt x="509" y="215" on="1"/>
        <pt x="204" y="215" on="1"/>
        <pt x="204" y="167" on="0"/>
        <pt x="219" y="129" on="0"/>
        <pt x="270" y="117" on="0"/>
        <pt x="336" y="117" on="1"/>
        <pt x="407" y="117" on="0"/>
        <pt x="489" y="125" on="1"/>
        <pt x="489" y="10" on="1"/>
        <pt x="457" y="2" on="0"/>
        <pt x="350" y="-8" on="0"/>
        <pt x="298" y="-8" on="1"/>
        <pt x="181" y="-8" on="0"/>
        <pt x="74" y="43" on="0"/>
        <pt x="44" y="147" on="0"/>
        <pt x="44" y="254" on="1"/>
        <pt x="44" y="359" on="0"/>
        <pt x="74" y="465" on="0"/>
        <pt x="175" y="518" on="0"/>
        <pt x="283" y="518" on="1"/>
        <pt x="391" y="518" on="0"/>
        <pt x="486" y="467" on="0"/>
        <pt x="509" y="366" on="0"/>
        <pt x="509" y="254" on="1"/>
      </contour>
      <contour>
        <pt x="246" y="401" on="0"/>
        <pt x="214" y="387" on="0"/>
        <pt x="204" y="346" on="0"/>
        <pt x="204" y="298" on="1"/>
        <pt x="358" y="298" on="1"/>
        <pt x="358" y="346" on="0"/>
        <pt x="346" y="388" on="0"/>
        <pt x="316" y="401" on="0"/>
        <pt x="282" y="401" on="1"/>
      </contour>
    </TTGlyph>
    <TTGlyph name="eacute" xMin="44" yMin="-8" xMax="509" yMax="743">
      <component glyphName="e" x="0" y="0" flags="0x0"/>
      <component glyphName="acute" x="201" y="0" flags="0x0"/>
    </TTGlyph>
    <TTGlyph name="ebreve" xMin="44" yMin="-8" xMax="509" yMax="743">
      <component glyphName="e" x="0" y="0" flags="0x0"/>
      <component glyphName="uni0306" x="450" y="0" flags="0x0"/>
    </TTGlyph>
    <TTGlyph name="ecaron" xMin="44" yMin="-8" xMax="509" yMax="743">
      <component glyphName="e" x="0" y="0" flags="0x0"/>
      <component glyphName="uni030C" x="466" y="0" flags="0x0"/>
    </TTGlyph>
    <TTGlyph name="ecircumflex" xMin="44" yMin="-8" xMax="509" yMax="743">
      <component glyphName="e" x="0" y="0" flags="0x0"/>
      <component glyphName="circumflex" x="96" y="0" flags="0x0"/>
    </TTGlyph>
    <TTGlyph name="edieresis" xMin="44" yMin="-8" xMax="509" yMax="730">
      <component glyphName="e" x="0" y="0" flags="0x0"/>
      <component glyphName="dieresis" x="99" y="0" flags="0x0"/>
    </TTGlyph>
    <TTGlyph name="edotaccent" xMin="44" yMin="-8" xMax="509" yMax="730">
      <component glyphName="e" x="0" y="0" flags="0x0"/>
      <component glyphName="uni0307" x="363" y="0" flags="0x0"/>
    </TTGlyph>
    <TTGlyph name="egrave" xMin="44" yMin="-8" xMax="509" yMax="743">
      <component glyphName="e" x="0" y="0" flags="0x0"/>
      <component glyphName="grave" x="84" y="0" flags="0x0"/>
    </TTGlyph>
    <TTGlyph name="eight" xMin="54" yMin="-8" xMax="623" yMax="696">
      <contour>
        <pt x="226" y="-8" on="0"/>
        <pt x="101" y="37" on="0"/>
        <pt x="54" y="120" on="0"/>
        <pt x="54" y="184" on="1"/>
        <pt x="54" y="239" on="0"/>
        <pt x="82" y="305" on="0"/>
        <pt x="135" y="339" on="0"/>
        <pt x="178" y="349" on="1"/>
        <pt x="178" y="353" on="1"/>
        <pt x="117" y="367" on="0"/>
        <pt x="60" y="442" on="0"/>
        <pt x="60" y="515" on="1"/>
        <pt x="60" y="577" on="0"/>
        <pt x="111" y="655" on="0"/>
        <pt x="233" y="696" on="0"/>
        <pt x="339" y="696" on="1"/>
        <pt x="444" y="696" on="0"/>
        <pt x="566" y="655" on="0"/>
        <pt x="617" y="577" on="0"/>
        <pt x="617" y="515" on="1"/>
        <pt x="617" y="442" on="0"/>
        <pt x="560" y="367" on="0"/>
        <pt x="499" y="353" on="1"/>
        <pt x="499" y="349" on="1"/>
        <pt x="543" y="339" on="0"/>
        <pt x="596" y="305" on="0"/>
        <pt x="623" y="240" on="0"/>
        <pt x="623" y="184" on="1"/>
        <pt x="623" y="120" on="0"/>
        <pt x="576" y="37" on="0"/>
        <pt x="452" y="-8" on="0"/>
        <pt x="339" y="-8" on="1"/>
      </contour>
      <contour>
        <pt x="386" y="409" on="0"/>
        <pt x="428" y="419" on="0"/>
        <pt x="444" y="450" on="0"/>
        <pt x="444" y="485" on="1"/>
        <pt x="444" y="520" on="0"/>
        <pt x="429" y="552" on="0"/>
        <pt x="386" y="563" on="0"/>
        <pt x="339" y="563" on="1"/>
        <pt x="291" y="563" on="0"/>
        <pt x="249" y="552" on="0"/>
        <pt x="234" y="521" on="0"/>
        <pt x="234" y="485" on="1"/>
        <pt x="234" y="450" on="0"/>
        <pt x="249" y="419" on="0"/>
        <pt x="291" y="409" on="0"/>
        <pt x="339" y="409" on="1"/>
      </contour>
      <contour>
        <pt x="387" y="125" on="0"/>
        <pt x="431" y="135" on="0"/>
        <pt x="449" y="168" on="0"/>
        <pt x="449" y="204" on="1"/>
        <pt x="449" y="242" on="0"/>
        <pt x="432" y="275" on="0"/>
        <pt x="388" y="286" on="0"/>
        <pt x="339" y="286" on="1"/>
        <pt x="290" y="286" on="0"/>
        <pt x="246" y="275" on="0"/>
        <pt x="228" y="242" on="0"/>
        <pt x="228" y="204" on="1"/>
        <pt x="228" y="168" on="0"/>
        <pt x="246" y="135" on="0"/>
        <pt x="291" y="125" on="0"/>
        <pt x="339" y="125" on="1"/>
      </contour>
    </TTGlyph>
    <TTGlyph name="eight.dnom" xMin="33" yMin="-4" xMax="356" yMax="385">
      <contour>
        <pt x="130" y="-4" on="0"/>
        <pt x="60" y="20" on="0"/>
        <pt x="33" y="66" on="0"/>
        <pt x="33" y="102" on="1"/>
        <pt x="33" y="145" on="0"/>
        <pt x="67" y="184" on="0"/>
        <pt x="103" y="193" on="1"/>
        <pt x="103" y="195" on="1"/>
        <pt x="68" y="203" on="0"/>
        <pt x="36" y="244" on="0"/>
        <pt x="36" y="284" on="1"/>
        <pt x="36" y="337" on="0"/>
        <pt x="106" y="385" on="0"/>
        <pt x="194" y="385" on="1"/>
        <pt x="282" y="385" on="0"/>
        <pt x="352" y="337" on="0"/>
        <pt x="352" y="284" on="1"/>
        <pt x="352" y="244" on="0"/>
        <pt x="320" y="203" on="0"/>
        <pt x="285" y="195" on="1"/>
        <pt x="285" y="193" on="1"/>
        <pt x="322" y="184" on="0"/>
        <pt x="356" y="145" on="0"/>
        <pt x="356" y="102" on="1"/>
        <pt x="356" y="66" on="0"/>
        <pt x="329" y="20" on="0"/>
        <pt x="258" y="-4" on="0"/>
        <pt x="194" y="-4" on="1"/>
      </contour>
      <contour>
        <pt x="219" y="225" on="0"/>
        <pt x="242" y="231" on="0"/>
        <pt x="250" y="247" on="0"/>
        <pt x="250" y="266" on="1"/>
        <pt x="250" y="286" on="0"/>
        <pt x="242" y="304" on="0"/>
        <pt x="219" y="310" on="0"/>
        <pt x="194" y="310" on="1"/>
        <pt x="169" y="310" on="0"/>
        <pt x="146" y="304" on="0"/>
        <pt x="138" y="286" on="0"/>
        <pt x="138" y="266" on="1"/>
        <pt x="138" y="247" on="0"/>
        <pt x="146" y="231" on="0"/>
        <pt x="169" y="225" on="0"/>
        <pt x="194" y="225" on="1"/>
      </contour>
      <contour>
        <pt x="231" y="70" on="0"/>
        <pt x="253" y="85" on="0"/>
        <pt x="253" y="114" on="1"/>
        <pt x="253" y="135" on="0"/>
        <pt x="244" y="153" on="0"/>
        <pt x="220" y="159" on="0"/>
        <pt x="194" y="159" on="1"/>
        <pt x="168" y="159" on="0"/>
        <pt x="144" y="153" on="0"/>
        <pt x="135" y="135" on="0"/>
        <pt x="135" y="114" on="1"/>
        <pt x="135" y="86" on="0"/>
        <pt x="158" y="70" on="0"/>
        <pt x="194" y="70" on="1"/>
      </contour>
    </TTGlyph>
    <TTGlyph name="eight.numr" xMin="33" yMin="304" xMax="356" yMax="693">
      <component glyphName="eight.dnom" x="0" y="308" flags="0x4"/>
    </TTGlyph>
    <TTGlyph name="eight.tnum" xMin="44" yMin="-8" xMax="613" yMax="696">
      <contour>
        <pt x="215" y="-8" on="0"/>
        <pt x="91" y="37" on="0"/>
        <pt x="44" y="120" on="0"/>
        <pt x="44" y="184" on="1"/>
        <pt x="44" y="240" on="0"/>
        <pt x="71" y="305" on="0"/>
        <pt x="124" y="339" on="0"/>
        <pt x="168" y="349" on="1"/>
        <pt x="168" y="353" on="1"/>
        <pt x="107" y="367" on="0"/>
        <pt x="50" y="442" on="0"/>
        <pt x="50" y="515" on="1"/>
        <pt x="50" y="577" on="0"/>
        <pt x="101" y="655" on="0"/>
        <pt x="223" y="696" on="0"/>
        <pt x="329" y="696" on="1"/>
        <pt x="434" y="696" on="0"/>
        <pt x="556" y="655" on="0"/>
        <pt x="607" y="577" on="0"/>
        <pt x="607" y="515" on="1"/>
        <pt x="607" y="442" on="0"/>
        <pt x="550" y="367" on="0"/>
        <pt x="489" y="353" on="1"/>
        <pt x="489" y="349" on="1"/>
        <pt x="533" y="339" on="0"/>
        <pt x="586" y="305" on="0"/>
        <pt x="613" y="240" on="0"/>
        <pt x="613" y="184" on="1"/>
        <pt x="613" y="120" on="0"/>
        <pt x="566" y="37" on="0"/>
        <pt x="442" y="-8" on="0"/>
        <pt x="329" y="-8" on="1"/>
      </contour>
      <contour>
        <pt x="376" y="409" on="0"/>
        <pt x="418" y="419" on="0"/>
        <pt x="433" y="450" on="0"/>
        <pt x="433" y="485" on="1"/>
        <pt x="433" y="521" on="0"/>
        <pt x="418" y="552" on="0"/>
        <pt x="376" y="563" on="0"/>
        <pt x="329" y="563" on="1"/>
        <pt x="281" y="563" on="0"/>
        <pt x="239" y="552" on="0"/>
        <pt x="224" y="521" on="0"/>
        <pt x="224" y="485" on="1"/>
        <pt x="224" y="450" on="0"/>
        <pt x="239" y="419" on="0"/>
        <pt x="281" y="409" on="0"/>
        <pt x="329" y="409" on="1"/>
      </contour>
      <contour>
        <pt x="377" y="125" on="0"/>
        <pt x="421" y="135" on="0"/>
        <pt x="439" y="168" on="0"/>
        <pt x="439" y="204" on="1"/>
        <pt x="439" y="242" on="0"/>
        <pt x="422" y="275" on="0"/>
        <pt x="378" y="286" on="0"/>
        <pt x="329" y="286" on="1"/>
        <pt x="280" y="286" on="0"/>
        <pt x="236" y="275" on="0"/>
        <pt x="218" y="242" on="0"/>
        <pt x="218" y="204" on="1"/>
        <pt x="218" y="168" on="0"/>
        <pt x="236" y="135" on="0"/>
        <pt x="281" y="125" on="0"/>
        <pt x="329" y="125" on="1"/>
      </contour>
    </TTGlyph>
    <TTGlyph name="ellipsis" xMin="64" yMin="0" xMax="833" yMax="148">
      <contour>
        <pt x="64" y="148" on="1"/>
        <pt x="235" y="148" on="1"/>
        <pt x="235" y="0" on="1"/>
        <pt x="64" y="0" on="1"/>
      </contour>
      <contour>
        <pt x="362" y="148" on="1"/>
        <pt x="534" y="148" on="1"/>
        <pt x="534" y="0" on="1"/>
        <pt x="362" y="0" on="1"/>
      </contour>
      <contour>
        <pt x="662" y="148" on="1"/>
        <pt x="833" y="148" on="1"/>
        <pt x="833" y="0" on="1"/>
        <pt x="662" y="0" on="1"/>
      </contour>
    </TTGlyph>
    <TTGlyph name="emacron" xMin="44" yMin="-8" xMax="509" yMax="743">
      <component glyphName="e" x="0" y="0" flags="0x0"/>
      <component glyphName="uni0304" x="465" y="0" flags="0x0"/>
    </TTGlyph>
    <TTGlyph name="emdash" xMin="44" yMin="245" xMax="832" yMax="363">
      <contour>
        <pt x="44" y="363" on="1"/>
        <pt x="832" y="363" on="1"/>
        <pt x="832" y="245" on="1"/>
        <pt x="44" y="245" on="1"/>
      </contour>
    </TTGlyph>
    <TTGlyph name="endash" xMin="44" yMin="245" xMax="432" yMax="363">
      <contour>
        <pt x="44" y="363" on="1"/>
        <pt x="432" y="363" on="1"/>
        <pt x="432" y="245" on="1"/>
        <pt x="44" y="245" on="1"/>
      </contour>
    </TTGlyph>
    <TTGlyph name="eng" xMin="61" yMin="-200" xMax="528" yMax="518">
      <contour>
        <pt x="439" y="518" on="0"/>
        <pt x="506" y="473" on="0"/>
        <pt x="528" y="390" on="0"/>
        <pt x="528" y="319" on="1"/>
        <pt x="528" y="4" on="1"/>
        <pt x="528" y="-91" on="0"/>
        <pt x="490" y="-174" on="0"/>
        <pt x="393" y="-200" on="0"/>
        <pt x="285" y="-200" on="1"/>
        <pt x="285" y="-84" on="1"/>
        <pt x="323" y="-84" on="0"/>
        <pt x="357" y="-74" on="0"/>
        <pt x="367" y="-53" on="0"/>
        <pt x="367" y="-32" on="1"/>
        <pt x="367" y="269" on="1"/>
        <pt x="367" y="325" on="0"/>
        <pt x="358" y="369" on="0"/>
        <pt x="332" y="381" on="0"/>
        <pt x="297" y="381" on="1"/>
        <pt x="263" y="381" on="0"/>
        <pt x="232" y="362" on="0"/>
        <pt x="222" y="316" on="0"/>
        <pt x="222" y="266" on="1"/>
        <pt x="222" y="0" on="1"/>
        <pt x="61" y="0" on="1"/>
        <pt x="61" y="510" on="1"/>
        <pt x="214" y="510" on="1"/>
        <pt x="218" y="449" on="1"/>
        <pt x="227" y="449" on="1"/>
        <pt x="266" y="518" on="0"/>
        <pt x="374" y="518" on="1"/>
      </contour>
    </TTGlyph>
    <TTGlyph name="eogonek" xMin="44" yMin="-196" xMax="509" yMax="518">
      <contour>
        <pt x="509" y="215" on="1"/>
        <pt x="204" y="215" on="1"/>
        <pt x="204" y="167" on="0"/>
        <pt x="219" y="129" on="0"/>
        <pt x="270" y="117" on="0"/>
        <pt x="336" y="117" on="1"/>
        <pt x="407" y="117" on="0"/>
        <pt x="489" y="125" on="1"/>
        <pt x="489" y="10" on="1"/>
        <pt x="455" y="-6" on="0"/>
        <pt x="399" y="-55" on="0"/>
        <pt x="399" y="-80" on="1"/>
        <pt x="399" y="-111" on="0"/>
        <pt x="445" y="-111" on="1"/>
        <pt x="459" y="-111" on="0"/>
        <pt x="463" y="-110" on="1"/>
        <pt x="463" y="-193" on="1"/>
        <pt x="433" y="-196" on="0"/>
        <pt x="395" y="-196" on="1"/>
        <pt x="327" y="-196" on="0"/>
        <pt x="269" y="-150" on="0"/>
        <pt x="269" y="-115" on="1"/>
        <pt x="269" y="-59" on="0"/>
        <pt x="334" y="-8" on="1"/>
        <pt x="298" y="-8" on="1"/>
        <pt x="181" y="-8" on="0"/>
        <pt x="74" y="43" on="0"/>
        <pt x="44" y="147" on="0"/>
        <pt x="44" y="254" on="1"/>
        <pt x="44" y="359" on="0"/>
        <pt x="74" y="465" on="0"/>
        <pt x="175" y="518" on="0"/>
        <pt x="283" y="518" on="1"/>
        <pt x="391" y="518" on="0"/>
        <pt x="486" y="467" on="0"/>
        <pt x="509" y="366" on="0"/>
        <pt x="509" y="254" on="1"/>
      </contour>
      <contour>
        <pt x="246" y="401" on="0"/>
        <pt x="214" y="387" on="0"/>
        <pt x="204" y="346" on="0"/>
        <pt x="204" y="298" on="1"/>
        <pt x="358" y="298" on="1"/>
        <pt x="358" y="346" on="0"/>
        <pt x="346" y="388" on="0"/>
        <pt x="316" y="401" on="0"/>
        <pt x="282" y="401" on="1"/>
      </contour>
    </TTGlyph>
    <TTGlyph name="equal" xMin="70" yMin="89" xMax="469" yMax="416">
      <contour>
        <pt x="70" y="416" on="1"/>
        <pt x="469" y="416" on="1"/>
        <pt x="469" y="297" on="1"/>
        <pt x="70" y="297" on="1"/>
      </contour>
      <contour>
        <pt x="70" y="208" on="1"/>
        <pt x="469" y="208" on="1"/>
        <pt x="469" y="89" on="1"/>
        <pt x="70" y="89" on="1"/>
      </contour>
    </TTGlyph>
    <TTGlyph name="estimated" xMin="55" yMin="-8" xMax="645" yMax="696">
      <contour>
        <pt x="492" y="696" on="0"/>
        <pt x="614" y="636" on="0"/>
        <pt x="645" y="501" on="0"/>
        <pt x="645" y="344" on="1"/>
        <pt x="645" y="323" on="1"/>
        <pt x="229" y="323" on="1"/>
        <pt x="229" y="167" on="0"/>
        <pt x="243" y="55" on="0"/>
        <pt x="292" y="26" on="0"/>
        <pt x="361" y="26" on="1"/>
        <pt x="463" y="26" on="0"/>
        <pt x="550" y="46" on="0"/>
        <pt x="588" y="117" on="0"/>
        <pt x="594" y="200" on="1"/>
        <pt x="630" y="200" on="1"/>
        <pt x="624" y="105" on="0"/>
        <pt x="578" y="21" on="0"/>
        <pt x="468" y="-8" on="0"/>
        <pt x="349" y="-8" on="1"/>
        <pt x="206" y="-8" on="0"/>
        <pt x="85" y="52" on="0"/>
        <pt x="55" y="186" on="0"/>
        <pt x="55" y="344" on="1"/>
        <pt x="55" y="502" on="0"/>
        <pt x="85" y="636" on="0"/>
        <pt x="206" y="696" on="0"/>
        <pt x="349" y="696" on="1"/>
      </contour>
      <contour>
        <pt x="286" y="662" on="0"/>
        <pt x="242" y="632" on="0"/>
        <pt x="229" y="517" on="0"/>
        <pt x="229" y="357" on="1"/>
        <pt x="470" y="357" on="1"/>
        <pt x="470" y="517" on="0"/>
        <pt x="457" y="632" on="0"/>
        <pt x="412" y="662" on="0"/>
        <pt x="349" y="662" on="1"/>
      </contour>
    </TTGlyph>
    <TTGlyph name="eth" xMin="44" yMin="-8" xMax="526" yMax="743">
      <contour>
        <pt x="172" y="-8" on="0"/>
        <pt x="71" y="38" on="0"/>
        <pt x="44" y="141" on="0"/>
        <pt x="44" y="255" on="1"/>
        <pt x="44" y="359" on="0"/>
        <pt x="68" y="465" on="0"/>
        <pt x="148" y="518" on="0"/>
        <pt x="233" y="518" on="1"/>
        <pt x="262" y="518" on="0"/>
        <pt x="304" y="511" on="0"/>
        <pt x="329" y="504" on="1"/>
        <pt x="333" y="509" on="1"/>
        <pt x="317" y="554" on="0"/>
        <pt x="296" y="586" on="1"/>
        <pt x="173" y="569" on="1"/>
        <pt x="173" y="662" on="1"/>
        <pt x="239" y="671" on="1"/>
        <pt x="203" y="710" on="0"/>
        <pt x="168" y="739" on="1"/>
        <pt x="168" y="743" on="1"/>
        <pt x="341" y="743" on="1"/>
        <pt x="368" y="719" on="0"/>
        <pt x="390" y="694" on="1"/>
        <pt x="513" y="712" on="1"/>
        <pt x="513" y="619" on="1"/>
        <pt x="452" y="609" on="1"/>
        <pt x="492" y="537" on="0"/>
        <pt x="512" y="436" on="1"/>
        <pt x="526" y="358" on="0"/>
        <pt x="526" y="261" on="1"/>
        <pt x="526" y="143" on="0"/>
        <pt x="499" y="38" on="0"/>
        <pt x="399" y="-8" on="0"/>
        <pt x="285" y="-8" on="1"/>
      </contour>
      <contour>
        <pt x="327" y="117" on="0"/>
        <pt x="358" y="133" on="0"/>
        <pt x="366" y="184" on="0"/>
        <pt x="366" y="255" on="1"/>
        <pt x="366" y="323" on="0"/>
        <pt x="358" y="374" on="0"/>
        <pt x="326" y="393" on="0"/>
        <pt x="285" y="393" on="1"/>
        <pt x="243" y="393" on="0"/>
        <pt x="212" y="376" on="0"/>
        <pt x="205" y="326" on="0"/>
        <pt x="205" y="255" on="1"/>
        <pt x="205" y="183" on="0"/>
        <pt x="212" y="133" on="0"/>
        <pt x="243" y="117" on="0"/>
        <pt x="285" y="117" on="1"/>
      </contour>
    </TTGlyph>
    <TTGlyph name="exclam" xMin="79" yMin="0" xMax="265" yMax="688">
      <contour>
        <pt x="103" y="336" on="0"/>
        <pt x="79" y="610" on="0"/>
        <pt x="79" y="648" on="1"/>
        <pt x="79" y="688" on="1"/>
        <pt x="265" y="688" on="1"/>
        <pt x="265" y="648" on="1"/>
        <pt x="265" y="609" on="0"/>
        <pt x="242" y="330" on="0"/>
        <pt x="232" y="235" on="1"/>
        <pt x="113" y="235" on="1"/>
      </contour>
      <contour>
        <pt x="87" y="148" on="1"/>
        <pt x="258" y="148" on="1"/>
        <pt x="258" y="0" on="1"/>
        <pt x="87" y="0" on="1"/>
      </contour>
    </TTGlyph>
    <TTGlyph name="exclam.case" xMin="79" yMin="0" xMax="265" yMax="688">
      <component glyphName="exclam" x="0" y="0" flags="0x0"/>
    </TTGlyph>
    <TTGlyph name="exclam.ss02" xMin="45" yMin="-8" xMax="749" yMax="696">
      <contour>
        <pt x="302" y="-8" on="0"/>
        <pt x="140" y="87" on="0"/>
        <pt x="45" y="249" on="0"/>
        <pt x="45" y="344" on="1"/>
        <pt x="45" y="439" on="0"/>
        <pt x="140" y="601" on="0"/>
        <pt x="302" y="696" on="0"/>
        <pt x="397" y="696" on="1"/>
        <pt x="492" y="696" on="0"/>
        <pt x="654" y="601" on="0"/>
        <pt x="749" y="439" on="0"/>
        <pt x="749" y="344" on="1"/>
        <pt x="749" y="249" on="0"/>
        <pt x="654" y="87" on="0"/>
        <pt x="492" y="-8" on="0"/>
        <pt x="397" y="-8" on="1"/>
      </contour>
      <contour>
        <pt x="480" y="37" on="0"/>
        <pt x="621" y="120" on="0"/>
        <pt x="704" y="261" on="0"/>
        <pt x="704" y="344" on="1"/>
        <pt x="704" y="427" on="0"/>
        <pt x="621" y="568" on="0"/>
        <pt x="480" y="651" on="0"/>
        <pt x="397" y="651" on="1"/>
        <pt x="314" y="651" on="0"/>
        <pt x="173" y="568" on="0"/>
        <pt x="90" y="427" on="0"/>
        <pt x="90" y="344" on="1"/>
        <pt x="90" y="261" on="0"/>
        <pt x="173" y="120" on="0"/>
        <pt x="314" y="37" on="0"/>
        <pt x="397" y="37" on="1"/>
      </contour>
      <contour>
        <pt x="372" y="300" on="0"/>
        <pt x="363" y="418" on="0"/>
        <pt x="363" y="480" on="1"/>
        <pt x="363" y="579" on="1"/>
        <pt x="431" y="579" on="1"/>
        <pt x="431" y="480" on="1"/>
        <pt x="431" y="418" on="0"/>
        <pt x="422" y="300" on="0"/>
        <pt x="417" y="268" on="1"/>
        <pt x="377" y="268" on="1"/>
      </contour>
      <contour>
        <pt x="363" y="191" on="1"/>
        <pt x="431" y="191" on="1"/>
        <pt x="431" y="109" on="1"/>
        <pt x="363" y="109" on="1"/>
      </contour>
    </TTGlyph>
    <TTGlyph name="exclamdbl" xMin="79" yMin="0" xMax="523" yMax="688">
      <component glyphName="exclam" x="258" y="0" flags="0x0"/>
      <component glyphName="exclam" x="0" y="0" flags="0x0"/>
    </TTGlyph>
    <TTGlyph name="exclamdown" xMin="63" yMin="-178" xMax="249" yMax="510">
      <contour>
        <pt x="71" y="510" on="1"/>
        <pt x="242" y="510" on="1"/>
        <pt x="242" y="362" on="1"/>
        <pt x="71" y="362" on="1"/>
      </contour>
      <contour>
        <pt x="63" y="-138" on="1"/>
        <pt x="63" y="-99" on="0"/>
        <pt x="86" y="180" on="0"/>
        <pt x="96" y="275" on="1"/>
        <pt x="216" y="275" on="1"/>
        <pt x="226" y="180" on="0"/>
        <pt x="249" y="-99" on="0"/>
        <pt x="249" y="-138" on="1"/>
        <pt x="249" y="-178" on="1"/>
        <pt x="63" y="-178" on="1"/>
      </contour>
    </TTGlyph>
    <TTGlyph name="exclamdown.case" xMin="64" yMin="0" xMax="250" yMax="688">
      <component glyphName="exclamdown" x="1" y="178" flags="0x4"/>
    </TTGlyph>
    <TTGlyph name="f" xMin="20" yMin="0" xMax="396" yMax="742">
      <contour>
        <pt x="113" y="385" on="1"/>
        <pt x="20" y="385" on="1"/>
        <pt x="20" y="510" on="1"/>
        <pt x="113" y="510" on="1"/>
        <pt x="113" y="542" on="1"/>
        <pt x="113" y="641" on="0"/>
        <pt x="157" y="722" on="0"/>
        <pt x="264" y="742" on="0"/>
        <pt x="396" y="742" on="1"/>
        <pt x="396" y="628" on="1"/>
        <pt x="337" y="628" on="0"/>
        <pt x="290" y="620" on="0"/>
        <pt x="275" y="596" on="0"/>
        <pt x="275" y="565" on="1"/>
        <pt x="275" y="510" on="1"/>
        <pt x="396" y="510" on="1"/>
        <pt x="396" y="385" on="1"/>
        <pt x="275" y="385" on="1"/>
        <pt x="275" y="0" on="1"/>
        <pt x="113" y="0" on="1"/>
      </contour>
    </TTGlyph>
    <TTGlyph name="f_f" xMin="20" yMin="0" xMax="817" yMax="742">
      <component glyphName="f" x="0" y="0" flags="0x0"/>
      <component glyphName="f" x="421" y="0" flags="0x0"/>
    </TTGlyph>
    <TTGlyph name="fi" xMin="20" yMin="0" xMax="646" yMax="743">
      <component glyphName="f" x="0" y="0" flags="0x0"/>
      <component glyphName="i" x="421" y="0" flags="0x0"/>
    </TTGlyph>
    <TTGlyph name="five" xMin="69" yMin="-8" xMax="570" yMax="688">
      <contour>
        <pt x="187" y="130" on="0"/>
        <pt x="271" y="130" on="1"/>
        <pt x="325" y="130" on="0"/>
        <pt x="375" y="143" on="0"/>
        <pt x="394" y="177" on="0"/>
        <pt x="394" y="214" on="1"/>
        <pt x="394" y="252" on="0"/>
        <pt x="374" y="286" on="0"/>
        <pt x="323" y="297" on="0"/>
        <pt x="267" y="297" on="1"/>
        <pt x="170" y="297" on="0"/>
        <pt x="77" y="286" on="1"/>
        <pt x="77" y="688" on="1"/>
        <pt x="519" y="688" on="1"/>
        <pt x="519" y="548" on="1"/>
        <pt x="228" y="548" on="1"/>
        <pt x="228" y="426" on="1"/>
        <pt x="289" y="433" on="0"/>
        <pt x="354" y="433" on="1"/>
        <pt x="438" y="433" on="0"/>
        <pt x="533" y="386" on="0"/>
        <pt x="570" y="296" on="0"/>
        <pt x="570" y="226" on="1"/>
        <pt x="570" y="140" on="0"/>
        <pt x="524" y="41" on="0"/>
        <pt x="403" y="-8" on="0"/>
        <pt x="291" y="-8" on="1"/>
        <pt x="242" y="-8" on="0"/>
        <pt x="117" y="4" on="0"/>
        <pt x="69" y="13" on="1"/>
        <pt x="69" y="142" on="1"/>
      </contour>
    </TTGlyph>
    <TTGlyph name="five.dnom" xMin="43" yMin="-4" xMax="327" yMax="380">
      <contour>
        <pt x="115" y="74" on="0"/>
        <pt x="155" y="74" on="1"/>
        <pt x="186" y="74" on="0"/>
        <pt x="214" y="80" on="0"/>
        <pt x="224" y="98" on="0"/>
        <pt x="224" y="119" on="1"/>
        <pt x="224" y="139" on="0"/>
        <pt x="213" y="158" on="0"/>
        <pt x="185" y="164" on="0"/>
        <pt x="153" y="164" on="1"/>
        <pt x="115" y="164" on="0"/>
        <pt x="47" y="158" on="1"/>
        <pt x="47" y="380" on="1"/>
        <pt x="299" y="380" on="1"/>
        <pt x="299" y="300" on="1"/>
        <pt x="136" y="300" on="1"/>
        <pt x="136" y="236" on="1"/>
        <pt x="163" y="240" on="0"/>
        <pt x="207" y="240" on="1"/>
        <pt x="276" y="240" on="0"/>
        <pt x="327" y="184" on="0"/>
        <pt x="327" y="126" on="1"/>
        <pt x="327" y="79" on="0"/>
        <pt x="300" y="23" on="0"/>
        <pt x="232" y="-4" on="0"/>
        <pt x="169" y="-4" on="1"/>
        <pt x="113" y="-4" on="0"/>
        <pt x="43" y="7" on="1"/>
        <pt x="43" y="80" on="1"/>
      </contour>
    </TTGlyph>
    <TTGlyph name="five.numr" xMin="43" yMin="304" xMax="327" yMax="688">
      <contour>
        <pt x="115" y="382" on="0"/>
        <pt x="155" y="382" on="1"/>
        <pt x="186" y="382" on="0"/>
        <pt x="214" y="388" on="0"/>
        <pt x="224" y="406" on="0"/>
        <pt x="224" y="427" on="1"/>
        <pt x="224" y="447" on="0"/>
        <pt x="213" y="466" on="0"/>
        <pt x="185" y="472" on="0"/>
        <pt x="153" y="472" on="1"/>
        <pt x="115" y="472" on="0"/>
        <pt x="47" y="466" on="1"/>
        <pt x="47" y="688" on="1"/>
        <pt x="299" y="688" on="1"/>
        <pt x="299" y="608" on="1"/>
        <pt x="136" y="608" on="1"/>
        <pt x="136" y="544" on="1"/>
        <pt x="163" y="548" on="0"/>
        <pt x="207" y="548" on="1"/>
        <pt x="276" y="548" on="0"/>
        <pt x="327" y="492" on="0"/>
        <pt x="327" y="434" on="1"/>
        <pt x="327" y="387" on="0"/>
        <pt x="300" y="331" on="0"/>
        <pt x="232" y="304" on="0"/>
        <pt x="169" y="304" on="1"/>
        <pt x="113" y="304" on="0"/>
        <pt x="43" y="315" on="1"/>
        <pt x="43" y="388" on="1"/>
      </contour>
    </TTGlyph>
    <TTGlyph name="five.tnum" xMin="91" yMin="-8" xMax="592" yMax="688">
      <contour>
        <pt x="208" y="130" on="0"/>
        <pt x="293" y="130" on="1"/>
        <pt x="347" y="130" on="0"/>
        <pt x="397" y="143" on="0"/>
        <pt x="416" y="177" on="0"/>
        <pt x="416" y="214" on="1"/>
        <pt x="416" y="252" on="0"/>
        <pt x="396" y="286" on="0"/>
        <pt x="345" y="297" on="0"/>
        <pt x="289" y="297" on="1"/>
        <pt x="192" y="297" on="0"/>
        <pt x="99" y="286" on="1"/>
        <pt x="99" y="688" on="1"/>
        <pt x="541" y="688" on="1"/>
        <pt x="541" y="548" on="1"/>
        <pt x="250" y="548" on="1"/>
        <pt x="250" y="426" on="1"/>
        <pt x="311" y="433" on="0"/>
        <pt x="376" y="433" on="1"/>
        <pt x="460" y="433" on="0"/>
        <pt x="555" y="386" on="0"/>
        <pt x="592" y="296" on="0"/>
        <pt x="592" y="226" on="1"/>
        <pt x="592" y="140" on="0"/>
        <pt x="546" y="41" on="0"/>
        <pt x="425" y="-8" on="0"/>
        <pt x="313" y="-8" on="1"/>
        <pt x="264" y="-8" on="0"/>
        <pt x="139" y="4" on="0"/>
        <pt x="91" y="13" on="1"/>
        <pt x="91" y="142" on="1"/>
      </contour>
    </TTGlyph>
    <TTGlyph name="fiveeighths" xMin="43" yMin="-4" xMax="877" yMax="688">
      <component glyphName="five.numr" x="0" y="0" flags="0x0"/>
      <component glyphName="fraction" x="359" y="0" flags="0x0"/>
      <component glyphName="eight.dnom" x="521" y="0" flags="0x0"/>
    </TTGlyph>
    <TTGlyph name="fl" xMin="20" yMin="0" xMax="645" yMax="743">
      <component glyphName="f" x="0" y="0" flags="0x0"/>
      <component glyphName="l" x="421" y="0" flags="0x0"/>
    </TTGlyph>
    <TTGlyph name="florin" xMin="-109" yMin="-195" xMax="493" yMax="742">
      <contour>
        <pt x="402" y="628" on="0"/>
        <pt x="353" y="614" on="0"/>
        <pt x="336" y="575" on="0"/>
        <pt x="322" y="510" on="1"/>
        <pt x="443" y="510" on="1"/>
        <pt x="418" y="385" on="1"/>
        <pt x="296" y="385" on="1"/>
        <pt x="213" y="-5" on="1"/>
        <pt x="192" y="-100" on="0"/>
        <pt x="137" y="-176" on="0"/>
        <pt x="28" y="-195" on="0"/>
        <pt x="-109" y="-195" on="1"/>
        <pt x="-85" y="-81" on="1"/>
        <pt x="-27" y="-81" on="0"/>
        <pt x="20" y="-73" on="0"/>
        <pt x="41" y="-49" on="0"/>
        <pt x="48" y="-18" on="1"/>
        <pt x="135" y="385" on="1"/>
        <pt x="42" y="385" on="1"/>
        <pt x="67" y="510" on="1"/>
        <pt x="160" y="510" on="1"/>
        <pt x="160" y="512" on="1"/>
        <pt x="185" y="628" on="0"/>
        <pt x="243" y="718" on="0"/>
        <pt x="354" y="742" on="0"/>
        <pt x="493" y="742" on="1"/>
        <pt x="469" y="628" on="1"/>
      </contour>
    </TTGlyph>
    <TTGlyph name="four" xMin="34" yMin="0" xMax="617" yMax="688">
      <contour>
        <pt x="360" y="136" on="1"/>
        <pt x="34" y="136" on="1"/>
        <pt x="34" y="259" on="1"/>
        <pt x="268" y="688" on="1"/>
        <pt x="456" y="688" on="1"/>
        <pt x="216" y="274" on="1"/>
        <pt x="365" y="274" on="1"/>
        <pt x="415" y="435" on="1"/>
        <pt x="532" y="435" on="1"/>
        <pt x="532" y="274" on="1"/>
        <pt x="617" y="274" on="1"/>
        <pt x="617" y="136" on="1"/>
        <pt x="532" y="136" on="1"/>
        <pt x="532" y="0" on="1"/>
        <pt x="360" y="0" on="1"/>
      </contour>
    </TTGlyph>
    <TTGlyph name="four.dnom" xMin="21" yMin="0" xMax="351" yMax="380">
      <contour>
        <pt x="204" y="74" on="1"/>
        <pt x="21" y="74" on="1"/>
        <pt x="21" y="144" on="1"/>
        <pt x="145" y="380" on="1"/>
        <pt x="255" y="380" on="1"/>
        <pt x="126" y="152" on="1"/>
        <pt x="208" y="152" on="1"/>
        <pt x="238" y="239" on="1"/>
        <pt x="305" y="239" on="1"/>
        <pt x="305" y="152" on="1"/>
        <pt x="351" y="152" on="1"/>
        <pt x="351" y="74" on="1"/>
        <pt x="305" y="74" on="1"/>
        <pt x="305" y="0" on="1"/>
        <pt x="204" y="0" on="1"/>
      </contour>
    </TTGlyph>
    <TTGlyph name="four.numr" xMin="21" yMin="308" xMax="351" yMax="688">
      <component glyphName="four.dnom" x="0" y="308" flags="0x4"/>
    </TTGlyph>
    <TTGlyph name="four.ss01" xMin="34" yMin="0" xMax="624" yMax="688">
      <contour>
        <pt x="364" y="136" on="1"/>
        <pt x="34" y="136" on="1"/>
        <pt x="34" y="261" on="1"/>
        <pt x="295" y="688" on="1"/>
        <pt x="535" y="688" on="1"/>
        <pt x="535" y="275" on="1"/>
        <pt x="624" y="275" on="1"/>
        <pt x="624" y="136" on="1"/>
        <pt x="535" y="136" on="1"/>
        <pt x="535" y="0" on="1"/>
        <pt x="364" y="0" on="1"/>
      </contour>
      <contour>
        <pt x="364" y="275" on="1"/>
        <pt x="364" y="542" on="1"/>
        <pt x="358" y="542" on="1"/>
        <pt x="192" y="275" on="1"/>
      </contour>
    </TTGlyph>
    <TTGlyph name="four.tnum" xMin="36" yMin="0" xMax="619" yMax="688">
      <contour>
        <pt x="363" y="136" on="1"/>
        <pt x="36" y="136" on="1"/>
        <pt x="36" y="259" on="1"/>
        <pt x="271" y="688" on="1"/>
        <pt x="458" y="688" on="1"/>
        <pt x="218" y="274" on="1"/>
        <pt x="368" y="274" on="1"/>
        <pt x="417" y="435" on="1"/>
        <pt x="534" y="435" on="1"/>
        <pt x="534" y="274" on="1"/>
        <pt x="619" y="274" on="1"/>
        <pt x="619" y="136" on="1"/>
        <pt x="534" y="136" on="1"/>
        <pt x="534" y="0" on="1"/>
        <pt x="363" y="0" on="1"/>
      </contour>
    </TTGlyph>
    <TTGlyph name="fraction" xMin="-194" yMin="0" xMax="355" yMax="688">
      <contour>
        <pt x="254" y="688" on="1"/>
        <pt x="355" y="688" on="1"/>
        <pt x="-92" y="0" on="1"/>
        <pt x="-194" y="0" on="1"/>
      </contour>
    </TTGlyph>
    <TTGlyph name="g" xMin="44" yMin="-206" xMax="521" yMax="518">
      <contour>
        <pt x="218" y="-206" on="0"/>
        <pt x="116" y="-198" on="0"/>
        <pt x="85" y="-193" on="1"/>
        <pt x="85" y="-79" on="1"/>
        <pt x="167" y="-81" on="0"/>
        <pt x="224" y="-81" on="1"/>
        <pt x="292" y="-81" on="0"/>
        <pt x="345" y="-67" on="0"/>
        <pt x="360" y="-25" on="0"/>
        <pt x="360" y="28" on="1"/>
        <pt x="360" y="65" on="1"/>
        <pt x="353" y="65" on="1"/>
        <pt x="332" y="29" on="0"/>
        <pt x="262" y="3" on="0"/>
        <pt x="212" y="3" on="1"/>
        <pt x="149" y="3" on="0"/>
        <pt x="77" y="49" on="0"/>
        <pt x="44" y="159" on="0"/>
        <pt x="44" y="260" on="1"/>
        <pt x="44" y="361" on="0"/>
        <pt x="78" y="473" on="0"/>
        <pt x="150" y="518" on="0"/>
        <pt x="212" y="518" on="1"/>
        <pt x="260" y="518" on="0"/>
        <pt x="335" y="488" on="0"/>
        <pt x="356" y="449" on="1"/>
        <pt x="364" y="449" on="1"/>
        <pt x="368" y="510" on="1"/>
        <pt x="521" y="510" on="1"/>
        <pt x="521" y="58" on="1"/>
        <pt x="521" y="-45" on="0"/>
        <pt x="490" y="-151" on="0"/>
        <pt x="381" y="-206" on="0"/>
        <pt x="265" y="-206" on="1"/>
      </contour>
      <contour>
        <pt x="312" y="138" on="0"/>
        <pt x="342" y="151" on="0"/>
        <pt x="349" y="168" on="1"/>
        <pt x="356" y="182" on="0"/>
        <pt x="360" y="223" on="0"/>
        <pt x="360" y="260" on="1"/>
        <pt x="360" y="296" on="0"/>
        <pt x="356" y="337" on="0"/>
        <pt x="349" y="350" on="1"/>
        <pt x="342" y="368" on="0"/>
        <pt x="312" y="382" on="0"/>
        <pt x="283" y="382" on="1"/>
        <pt x="245" y="382" on="0"/>
        <pt x="215" y="368" on="0"/>
        <pt x="205" y="320" on="0"/>
        <pt x="205" y="260" on="1"/>
        <pt x="205" y="200" on="0"/>
        <pt x="215" y="152" on="0"/>
        <pt x="245" y="138" on="0"/>
        <pt x="283" y="138" on="1"/>
      </contour>
    </TTGlyph>
    <TTGlyph name="g_tilde.loclGUA" xMin="44" yMin="-206" xMax="521" yMax="743">
      <component glyphName="g" x="0" y="0" flags="0x0"/>
      <component glyphName="tildecomb" x="505" y="0" flags="0x0"/>
    </TTGlyph>
    <TTGlyph name="gbreve" xMin="44" yMin="-206" xMax="521" yMax="743">
      <component glyphName="g" x="0" y="0" flags="0x0"/>
      <component glyphName="uni0306" x="463" y="0" flags="0x0"/>
    </TTGlyph>
    <TTGlyph name="gcaron" xMin="44" yMin="-206" xMax="521" yMax="743">
      <component glyphName="g" x="0" y="0" flags="0x0"/>
      <component glyphName="uni030C" x="479" y="0" flags="0x0"/>
    </TTGlyph>
    <TTGlyph name="gcircumflex" xMin="44" yMin="-206" xMax="521" yMax="743">
      <component glyphName="g" x="0" y="0" flags="0x0"/>
      <component glyphName="uni0302" x="479" y="0" flags="0x0"/>
    </TTGlyph>
    <TTGlyph name="gcommaaccent" xMin="44" yMin="-206" xMax="521" yMax="828">
      <component glyphName="g" x="0" y="0" flags="0x0"/>
      <component glyphName="uni0312" x="586" y="0" flags="0x0"/>
    </TTGlyph>
    <TTGlyph name="gdotaccent" xMin="44" yMin="-206" xMax="521" yMax="730">
      <component glyphName="g" x="0" y="0" flags="0x0"/>
      <component glyphName="uni0307" x="376" y="0" flags="0x0"/>
    </TTGlyph>
    <TTGlyph name="germandbls" xMin="61" yMin="0" xMax="557" yMax="750">
      <contour>
        <pt x="283" y="0" on="1"/>
        <pt x="283" y="125" on="1"/>
        <pt x="306" y="125" on="1"/>
        <pt x="350" y="125" on="0"/>
        <pt x="383" y="137" on="0"/>
        <pt x="395" y="185" on="0"/>
        <pt x="395" y="246" on="1"/>
        <pt x="395" y="302" on="0"/>
        <pt x="381" y="351" on="0"/>
        <pt x="346" y="365" on="0"/>
        <pt x="306" y="365" on="1"/>
        <pt x="290" y="365" on="1"/>
        <pt x="290" y="490" on="1"/>
        <pt x="306" y="490" on="1"/>
        <pt x="341" y="490" on="0"/>
        <pt x="373" y="500" on="0"/>
        <pt x="385" y="526" on="0"/>
        <pt x="385" y="554" on="1"/>
        <pt x="385" y="585" on="0"/>
        <pt x="371" y="615" on="0"/>
        <pt x="339" y="625" on="0"/>
        <pt x="305" y="625" on="1"/>
        <pt x="271" y="625" on="0"/>
        <pt x="238" y="614" on="0"/>
        <pt x="222" y="578" on="0"/>
        <pt x="222" y="539" on="1"/>
        <pt x="222" y="0" on="1"/>
        <pt x="61" y="0" on="1"/>
        <pt x="61" y="556" on="1"/>
        <pt x="61" y="624" on="0"/>
        <pt x="106" y="709" on="0"/>
        <pt x="213" y="750" on="0"/>
        <pt x="306" y="750" on="1"/>
        <pt x="400" y="750" on="0"/>
        <pt x="507" y="710" on="0"/>
        <pt x="549" y="634" on="0"/>
        <pt x="549" y="575" on="1"/>
        <pt x="549" y="511" on="0"/>
        <pt x="493" y="444" on="0"/>
        <pt x="433" y="434" on="1"/>
        <pt x="433" y="430" on="1"/>
        <pt x="497" y="418" on="0"/>
        <pt x="557" y="332" on="0"/>
        <pt x="557" y="238" on="1"/>
        <pt x="557" y="145" on="0"/>
        <pt x="522" y="46" on="0"/>
        <pt x="423" y="0" on="0"/>
        <pt x="326" y="0" on="1"/>
      </contour>
    </TTGlyph>
    <TTGlyph name="grave" xMin="20" yMin="597" xMax="266" yMax="743">
      <contour>
        <pt x="20" y="738" on="1"/>
        <pt x="20" y="743" on="1"/>
        <pt x="175" y="743" on="1"/>
        <pt x="266" y="602" on="1"/>
        <pt x="266" y="597" on="1"/>
        <pt x="152" y="597" on="1"/>
      </contour>
    </TTGlyph>
    <TTGlyph name="gravecomb" xMin="-266" yMin="597" xMax="-20" yMax="743">
      <contour>
        <pt x="-266" y="738" on="1"/>
        <pt x="-266" y="743" on="1"/>
        <pt x="-111" y="743" on="1"/>
        <pt x="-20" y="602" on="1"/>
        <pt x="-20" y="597" on="1"/>
        <pt x="-134" y="597" on="1"/>
      </contour>
    </TTGlyph>
    <TTGlyph name="gravecomb.case" xMin="-266" yMin="742" xMax="-20" yMax="888">
      <contour>
        <pt x="-266" y="883" on="1"/>
        <pt x="-266" y="888" on="1"/>
        <pt x="-111" y="888" on="1"/>
        <pt x="-20" y="747" on="1"/>
        <pt x="-20" y="742" on="1"/>
        <pt x="-134" y="742" on="1"/>
      </contour>
    </TTGlyph>
    <TTGlyph name="greater" xMin="70" yMin="45" xMax="469" yMax="461">
      <contour>
        <pt x="70" y="164" on="1"/>
        <pt x="332" y="253" on="1"/>
        <pt x="70" y="341" on="1"/>
        <pt x="70" y="461" on="1"/>
        <pt x="469" y="313" on="1"/>
        <pt x="469" y="192" on="1"/>
        <pt x="70" y="45" on="1"/>
      </contour>
    </TTGlyph>
    <TTGlyph name="greaterequal" xMin="70" yMin="0" xMax="470" yMax="590">
      <contour>
        <pt x="70" y="294" on="1"/>
        <pt x="333" y="382" on="1"/>
        <pt x="70" y="470" on="1"/>
        <pt x="70" y="590" on="1"/>
        <pt x="470" y="442" on="1"/>
        <pt x="470" y="321" on="1"/>
        <pt x="70" y="174" on="1"/>
      </contour>
      <contour>
        <pt x="70" y="118" on="1"/>
        <pt x="470" y="118" on="1"/>
        <pt x="470" y="0" on="1"/>
        <pt x="70" y="0" on="1"/>
      </contour>
    </TTGlyph>
    <TTGlyph name="guillemotleft" xMin="24" yMin="99" xMax="450" yMax="510">
      <contour>
        <pt x="24" y="304" on="1"/>
        <pt x="155" y="510" on="1"/>
        <pt x="258" y="510" on="1"/>
        <pt x="154" y="304" on="1"/>
        <pt x="258" y="99" on="1"/>
        <pt x="155" y="99" on="1"/>
      </contour>
      <contour>
        <pt x="216" y="304" on="1"/>
        <pt x="347" y="510" on="1"/>
        <pt x="450" y="510" on="1"/>
        <pt x="346" y="304" on="1"/>
        <pt x="450" y="99" on="1"/>
        <pt x="347" y="99" on="1"/>
      </contour>
    </TTGlyph>
    <TTGlyph name="guillemotright" xMin="51" yMin="99" xMax="478" yMax="510">
      <contour>
        <pt x="155" y="304" on="1"/>
        <pt x="51" y="510" on="1"/>
        <pt x="154" y="510" on="1"/>
        <pt x="286" y="304" on="1"/>
        <pt x="154" y="99" on="1"/>
        <pt x="51" y="99" on="1"/>
      </contour>
      <contour>
        <pt x="348" y="304" on="1"/>
        <pt x="244" y="510" on="1"/>
        <pt x="347" y="510" on="1"/>
        <pt x="478" y="304" on="1"/>
        <pt x="347" y="99" on="1"/>
        <pt x="244" y="99" on="1"/>
      </contour>
    </TTGlyph>
    <TTGlyph name="guilsinglleft" xMin="23" yMin="99" xMax="257" yMax="510">
      <contour>
        <pt x="23" y="304" on="1"/>
        <pt x="154" y="510" on="1"/>
        <pt x="257" y="510" on="1"/>
        <pt x="153" y="304" on="1"/>
        <pt x="257" y="99" on="1"/>
        <pt x="154" y="99" on="1"/>
      </contour>
    </TTGlyph>
    <TTGlyph name="guilsinglright" xMin="51" yMin="99" xMax="286" yMax="510">
      <contour>
        <pt x="155" y="304" on="1"/>
        <pt x="51" y="510" on="1"/>
        <pt x="155" y="510" on="1"/>
        <pt x="286" y="304" on="1"/>
        <pt x="155" y="99" on="1"/>
        <pt x="51" y="99" on="1"/>
      </contour>
    </TTGlyph>
    <TTGlyph name="h" xMin="61" yMin="0" xMax="528" yMax="743">
      <contour>
        <pt x="367" y="269" on="1"/>
        <pt x="367" y="325" on="0"/>
        <pt x="358" y="369" on="0"/>
        <pt x="332" y="381" on="0"/>
        <pt x="297" y="381" on="1"/>
        <pt x="263" y="381" on="0"/>
        <pt x="232" y="362" on="0"/>
        <pt x="222" y="316" on="0"/>
        <pt x="222" y="266" on="1"/>
        <pt x="222" y="0" on="1"/>
        <pt x="61" y="0" on="1"/>
        <pt x="61" y="743" on="1"/>
        <pt x="222" y="743" on="1"/>
        <pt x="222" y="451" on="1"/>
        <pt x="230" y="451" on="1"/>
        <pt x="251" y="487" on="0"/>
        <pt x="324" y="518" on="0"/>
        <pt x="374" y="518" on="1"/>
        <pt x="439" y="518" on="0"/>
        <pt x="506" y="473" on="0"/>
        <pt x="528" y="390" on="0"/>
        <pt x="528" y="319" on="1"/>
        <pt x="528" y="0" on="1"/>
        <pt x="367" y="0" on="1"/>
      </contour>
    </TTGlyph>
    <TTGlyph name="hbar" xMin="2" yMin="0" xMax="528" yMax="743">
      <contour>
        <pt x="439" y="518" on="0"/>
        <pt x="506" y="473" on="0"/>
        <pt x="528" y="390" on="0"/>
        <pt x="528" y="319" on="1"/>
        <pt x="528" y="0" on="1"/>
        <pt x="367" y="0" on="1"/>
        <pt x="367" y="269" on="1"/>
        <pt x="367" y="325" on="0"/>
        <pt x="358" y="369" on="0"/>
        <pt x="332" y="381" on="0"/>
        <pt x="297" y="381" on="1"/>
        <pt x="263" y="381" on="0"/>
        <pt x="232" y="362" on="0"/>
        <pt x="222" y="316" on="0"/>
        <pt x="222" y="266" on="1"/>
        <pt x="222" y="0" on="1"/>
        <pt x="61" y="0" on="1"/>
        <pt x="61" y="570" on="1"/>
        <pt x="2" y="570" on="1"/>
        <pt x="2" y="688" on="1"/>
        <pt x="61" y="688" on="1"/>
        <pt x="61" y="743" on="1"/>
        <pt x="222" y="743" on="1"/>
        <pt x="222" y="688" on="1"/>
        <pt x="343" y="688" on="1"/>
        <pt x="343" y="570" on="1"/>
        <pt x="222" y="570" on="1"/>
        <pt x="222" y="451" on="1"/>
        <pt x="230" y="451" on="1"/>
        <pt x="251" y="487" on="0"/>
        <pt x="324" y="518" on="0"/>
        <pt x="374" y="518" on="1"/>
      </contour>
    </TTGlyph>
    <TTGlyph name="hcircumflex" xMin="-26" yMin="0" xMax="528" yMax="921">
      <component glyphName="h" x="0" y="0" flags="0x0"/>
      <component glyphName="uni0302" x="330" y="178" flags="0x4"/>
    </TTGlyph>
    <TTGlyph name="hookabovecomb" xMin="-295" yMin="609" xMax="-24" yMax="825">
      <contour>
        <pt x="-228" y="614" on="1"/>
        <pt x="-228" y="648" on="0"/>
        <pt x="-210" y="673" on="0"/>
        <pt x="-180" y="681" on="1"/>
        <pt x="-162" y="686" on="1"/>
        <pt x="-139" y="692" on="0"/>
        <pt x="-126" y="703" on="0"/>
        <pt x="-126" y="716" on="1"/>
        <pt x="-126" y="736" on="0"/>
        <pt x="-150" y="745" on="0"/>
        <pt x="-191" y="745" on="1"/>
        <pt x="-248" y="745" on="0"/>
        <pt x="-295" y="740" on="1"/>
        <pt x="-295" y="815" on="1"/>
        <pt x="-270" y="819" on="0"/>
        <pt x="-197" y="825" on="0"/>
        <pt x="-166" y="825" on="1"/>
        <pt x="-116" y="825" on="0"/>
        <pt x="-58" y="814" on="0"/>
        <pt x="-24" y="771" on="0"/>
        <pt x="-24" y="727" on="1"/>
        <pt x="-24" y="698" on="0"/>
        <pt x="-39" y="666" on="0"/>
        <pt x="-68" y="650" on="0"/>
        <pt x="-95" y="643" on="1"/>
        <pt x="-110" y="638" on="1"/>
        <pt x="-132" y="632" on="0"/>
        <pt x="-143" y="622" on="0"/>
        <pt x="-143" y="609" on="1"/>
        <pt x="-228" y="609" on="1"/>
      </contour>
    </TTGlyph>
    <TTGlyph name="hookabovecomb.case" xMin="-295" yMin="728" xMax="-24" yMax="944">
      <contour>
        <pt x="-228" y="733" on="1"/>
        <pt x="-228" y="767" on="0"/>
        <pt x="-210" y="792" on="0"/>
        <pt x="-180" y="800" on="1"/>
        <pt x="-162" y="805" on="1"/>
        <pt x="-139" y="811" on="0"/>
        <pt x="-126" y="822" on="0"/>
        <pt x="-126" y="835" on="1"/>
        <pt x="-126" y="855" on="0"/>
        <pt x="-150" y="864" on="0"/>
        <pt x="-191" y="864" on="1"/>
        <pt x="-248" y="864" on="0"/>
        <pt x="-295" y="859" on="1"/>
        <pt x="-295" y="934" on="1"/>
        <pt x="-270" y="938" on="0"/>
        <pt x="-197" y="944" on="0"/>
        <pt x="-166" y="944" on="1"/>
        <pt x="-116" y="944" on="0"/>
        <pt x="-58" y="933" on="0"/>
        <pt x="-24" y="890" on="0"/>
        <pt x="-24" y="846" on="1"/>
        <pt x="-24" y="817" on="0"/>
        <pt x="-39" y="785" on="0"/>
        <pt x="-68" y="769" on="0"/>
        <pt x="-95" y="762" on="1"/>
        <pt x="-110" y="757" on="1"/>
        <pt x="-132" y="751" on="0"/>
        <pt x="-143" y="741" on="0"/>
        <pt x="-143" y="728" on="1"/>
        <pt x="-228" y="728" on="1"/>
      </contour>
    </TTGlyph>
    <TTGlyph name="house" xMin="45" yMin="0" xMax="710" yMax="695">
      <contour>
        <pt x="45" y="419" on="1"/>
        <pt x="323" y="695" on="1"/>
        <pt x="432" y="695" on="1"/>
        <pt x="710" y="419" on="1"/>
        <pt x="709" y="0" on="1"/>
        <pt x="46" y="0" on="1"/>
      </contour>
      <contour>
        <pt x="595" y="98" on="1"/>
        <pt x="596" y="384" on="1"/>
        <pt x="378" y="606" on="1"/>
        <pt x="159" y="384" on="1"/>
        <pt x="160" y="98" on="1"/>
      </contour>
    </TTGlyph>
    <TTGlyph name="hungarumlaut" xMin="20" yMin="609" xMax="416" yMax="732">
      <contour>
        <pt x="20" y="614" on="1"/>
        <pt x="97" y="732" on="1"/>
        <pt x="225" y="732" on="1"/>
        <pt x="225" y="728" on="1"/>
        <pt x="114" y="609" on="1"/>
        <pt x="20" y="609" on="1"/>
      </contour>
      <contour>
        <pt x="209" y="614" on="1"/>
        <pt x="288" y="732" on="1"/>
        <pt x="416" y="732" on="1"/>
        <pt x="416" y="728" on="1"/>
        <pt x="304" y="609" on="1"/>
        <pt x="209" y="609" on="1"/>
      </contour>
    </TTGlyph>
    <TTGlyph name="hyphen" xMin="50" yMin="218" xMax="322" yMax="351">
      <contour>
        <pt x="50" y="351" on="1"/>
        <pt x="322" y="351" on="1"/>
        <pt x="322" y="218" on="1"/>
        <pt x="50" y="218" on="1"/>
      </contour>
    </TTGlyph>
    <TTGlyph name="i" xMin="60" yMin="0" xMax="225" yMax="743">
      <contour>
        <pt x="60" y="743" on="1"/>
        <pt x="225" y="743" on="1"/>
        <pt x="225" y="611" on="1"/>
        <pt x="60" y="611" on="1"/>
      </contour>
      <contour>
        <pt x="61" y="510" on="1"/>
        <pt x="224" y="510" on="1"/>
        <pt x="224" y="0" on="1"/>
        <pt x="61" y="0" on="1"/>
      </contour>
    </TTGlyph>
    <TTGlyph name="i.loclTRK" xMin="61" yMin="0" xMax="224" yMax="730">
      <component glyphName="dotlessi" x="0" y="0" flags="0x0"/>
      <component glyphName="uni0307" x="227" y="0" flags="0x0"/>
    </TTGlyph>
    <TTGlyph name="iacute" xMin="61" yMin="0" xMax="309" yMax="743">
      <component glyphName="dotlessi" x="0" y="0" flags="0x0"/>
      <component glyphName="acute" x="43" y="0" flags="0x0"/>
    </TTGlyph>
    <TTGlyph name="iacute_j.loclNLD" xMin="61" yMin="-200" xMax="611" yMax="743">
      <component glyphName="dotlessi" x="0" y="0" flags="0x0"/>
      <component glyphName="acutecomb" x="346" y="0" flags="0x0"/>
      <component glyphName="uni0237" x="285" y="0" flags="0x0"/>
      <component glyphName="acutecomb" x="631" y="0" flags="0x0"/>
    </TTGlyph>
    <TTGlyph name="ibreve" xMin="-10" yMin="0" xMax="294" yMax="743">
      <component glyphName="dotlessi" x="0" y="0" flags="0x0"/>
      <component glyphName="uni0306" x="314" y="0" flags="0x0"/>
    </TTGlyph>
    <TTGlyph name="icircumflex" xMin="-26" yMin="0" xMax="311" yMax="743">
      <component glyphName="dotlessi" x="0" y="0" flags="0x0"/>
      <component glyphName="circumflex" x="-46" y="0" flags="0x0"/>
    </TTGlyph>
    <TTGlyph name="idieresis" xMin="-26" yMin="0" xMax="311" yMax="730">
      <component glyphName="dotlessi" x="0" y="0" flags="0x0"/>
      <component glyphName="dieresis" x="-44" y="0" flags="0x0"/>
    </TTGlyph>
    <TTGlyph name="igrave" xMin="-23" yMin="0" xMax="224" yMax="743">
      <component glyphName="dotlessi" x="0" y="0" flags="0x0"/>
      <component glyphName="grave" x="-43" y="0" flags="0x0"/>
    </TTGlyph>
    <TTGlyph name="ij" xMin="60" yMin="-200" xMax="510" yMax="743">
      <component glyphName="i" x="0" y="0" flags="0x0"/>
      <component glyphName="j" x="285" y="0" flags="0x0"/>
    </TTGlyph>
    <TTGlyph name="imacron" xMin="5" yMin="0" xMax="280" yMax="743">
      <component glyphName="dotlessi" x="0" y="0" flags="0x0"/>
      <component glyphName="uni0304" x="329" y="0" flags="0x0"/>
    </TTGlyph>
    <TTGlyph name="infinity" xMin="50" yMin="38" xMax="982" yMax="474">
      <contour>
        <pt x="191" y="38" on="0"/>
        <pt x="90" y="87" on="0"/>
        <pt x="50" y="181" on="0"/>
        <pt x="50" y="256" on="1"/>
        <pt x="50" y="330" on="0"/>
        <pt x="90" y="424" on="0"/>
        <pt x="192" y="474" on="0"/>
        <pt x="283" y="474" on="1"/>
        <pt x="375" y="474" on="0"/>
        <pt x="484" y="405" on="0"/>
        <pt x="517" y="346" on="1"/>
        <pt x="550" y="405" on="0"/>
        <pt x="660" y="474" on="0"/>
        <pt x="752" y="474" on="1"/>
        <pt x="843" y="474" on="0"/>
        <pt x="943" y="424" on="0"/>
        <pt x="982" y="330" on="0"/>
        <pt x="982" y="256" on="1"/>
        <pt x="982" y="181" on="0"/>
        <pt x="943" y="87" on="0"/>
        <pt x="843" y="38" on="0"/>
        <pt x="752" y="38" on="1"/>
        <pt x="660" y="38" on="0"/>
        <pt x="549" y="107" on="0"/>
        <pt x="517" y="166" on="1"/>
        <pt x="485" y="106" on="0"/>
        <pt x="375" y="38" on="0"/>
        <pt x="283" y="38" on="1"/>
      </contour>
      <contour>
        <pt x="362" y="149" on="0"/>
        <pt x="430" y="205" on="0"/>
        <pt x="453" y="256" on="1"/>
        <pt x="430" y="307" on="0"/>
        <pt x="362" y="363" on="0"/>
        <pt x="291" y="363" on="1"/>
        <pt x="242" y="363" on="0"/>
        <pt x="191" y="343" on="0"/>
        <pt x="171" y="297" on="0"/>
        <pt x="171" y="256" on="1"/>
        <pt x="171" y="214" on="0"/>
        <pt x="191" y="169" on="0"/>
        <pt x="242" y="149" on="0"/>
        <pt x="291" y="149" on="1"/>
      </contour>
      <contour>
        <pt x="792" y="149" on="0"/>
        <pt x="842" y="169" on="0"/>
        <pt x="862" y="214" on="0"/>
        <pt x="862" y="256" on="1"/>
        <pt x="862" y="297" on="0"/>
        <pt x="842" y="343" on="0"/>
        <pt x="792" y="363" on="0"/>
        <pt x="744" y="363" on="1"/>
        <pt x="672" y="363" on="0"/>
        <pt x="602" y="306" on="0"/>
        <pt x="582" y="256" on="1"/>
        <pt x="602" y="206" on="0"/>
        <pt x="672" y="149" on="0"/>
        <pt x="744" y="149" on="1"/>
      </contour>
    </TTGlyph>
</ttFont>
